<svg width="800" height="800" viewBox="0 0 800 800" fill="none" xmlns="http://www.w3.org/2000/svg">
<rect width="800" height="800" fill="white"/>
<g clip-path="url(#clip0_79_822)">
<path d="M704.866 82.3418H664.895L668.638 79H701.892L704.866 82.3418Z" fill="#231F20"/>
<path d="M704.398 715.553L702.76 717.658H663.791L401.002 510.765V476.745L704.398 715.553Z" fill="#231F20"/>
<path d="M702.76 717.658L700.12 721H668.035L663.791 717.658H702.76Z" fill="#231F20"/>
<path d="M664.894 82.3418H704.866L704.999 82.5089L695.809 90.663L401.002 351.827V316.07L664.894 82.3418Z" fill="#231F20"/>
<path d="M401.002 717.658H374.266V719.329H401.002V717.658Z" fill="#231F20"/>
<path d="M401.002 510.765V717.658H374.266V489.712L401.002 510.765Z" fill="#231F20"/>
<path d="M401.002 476.745V510.765L374.266 489.712V455.692L401.002 476.745Z" fill="#231F20"/>
<path d="M401.002 351.827V476.745L374.266 455.692V375.521L401.002 351.827Z" fill="#231F20"/>
<path d="M401.002 316.07V351.827L374.266 375.521V339.763L401.002 316.07Z" fill="#231F20"/>
<path d="M401.003 82.3418V316.07L374.266 339.763V197.902L125.848 717.658H96.3037L98.1084 713.748L399.867 82.3418H401.003Z" fill="#231F20"/>
<path d="M401.003 79.9358V82.3419H399.867L401.003 79.9358Z" fill="#231F20"/>
<path d="M374.266 455.692V489.712L284.631 419.165L374.266 339.763V375.521L326.34 417.962L374.266 455.692Z" fill="#231F20"/>
<path d="M125.848 717.658L124.243 721H96.1029L95 720.499L96.3034 717.658H125.848Z" fill="#231F20"/>
</g>
<defs>
<clipPath id="clip0_79_822">
<rect width="610" height="642" fill="white" transform="translate(95 79)"/>
</clipPath>
</defs>
</svg>
