<?xml version="1.0" encoding="UTF-8"?>
<svg id="Layer_2" data-name="Layer 2" xmlns="http://www.w3.org/2000/svg" viewBox="0 0 280.74 465.33">
  <defs>
    <style>
      .cls-1 {
        fill: #a6a5a5;
        stroke-width: 0px;
      }
    </style>
  </defs>
  <g id="Layer_7" data-name="Layer 7">
    <g>
      <path class="cls-1" d="M161.32,118.43v4.98l.31,8.2h32.98v-13.18h-33.29ZM159.35,124.43h-25.92v-2h25.89v-6h37.29v3.78l-.28-.29-1.45,1.38,1.73,1.82v10.49h-36.9l-.36-9.18Z"/>
      <polygon class="cls-1" points="133.43 166.55 143.37 166.55 143.37 168.55 131.43 168.55 131.43 124.43 133.43 124.43 133.43 166.55"/>
      <polygon class="cls-1" points="140.2 191.16 140.97 191.32 177.67 199.06 177.67 213.63 150.37 233.36 150.37 224.46 141.73 213.99 140.58 212.6 139.36 213.97 130.01 224.45 130.69 244.19 119.82 244.19 119.43 244.19 99.67 224.61 80.14 205.25 80.14 198.61 80.14 198.02 80.14 128.05 84.49 125.01 84.49 133.61 121.36 133.61 122.06 124.43 131.43 124.43 131.43 168.55 143.37 168.55 143.37 166.55 133.43 166.55 133.43 124.43 159.35 124.43 159.71 133.61 196.61 133.61 196.61 123.12 200.26 126.95 200.26 138.79 177.67 154.68 177.67 192.44 175.56 186.5 144.62 177.02 139.07 175.32 105.53 186.16 100.91 199.6 140.2 191.16"/>
      <rect class="cls-1" x="131.43" y="122.43" width="2" height="2"/>
      <polygon class="cls-1" points="280.49 325.85 140.55 465.08 .25 325.85 50.74 312.71 50.81 312.97 49.83 314.71 50.19 314.91 4.15 326.9 140.55 462.26 276.61 326.89 182.61 302.08 182.61 224.89 184.61 223.07 184.61 300.54 280.49 325.85"/>
      <polygon class="cls-1" points="276.61 326.89 140.55 462.26 4.15 326.9 50.19 314.91 140.06 365.71 140.54 365.99 190.04 338.69 139.25 270.64 140.56 269.66 141.68 267.86 149.67 255.01 149.67 246.19 159.29 246.19 182.61 224.89 182.61 302.08 276.61 326.89"/>
      <polygon class="cls-1" points="212.76 .25 256.03 80.71 255.8 81.17 229.79 132.84 229.79 184.01 204.73 198.48 204.73 204.69 184.61 223.07 184.61 222.79 182.61 222.79 182.31 222.46 202.73 203.81 202.73 197.32 227.79 182.85 227.79 132.37 227.89 132.16 253.78 80.74 211.63 2.38 140.55 9.73 140.45 9.72 68.77 2.38 27.32 81.79 51.32 128.49 51.32 132.61 51.22 132.66 25.07 81.78 25.31 81.32 67.62 .25 140.55 7.72 212.76 .25"/>
      <polygon class="cls-1" points="211.63 2.38 253.78 80.74 227.89 132.16 227.79 132.37 227.79 182.85 202.73 197.32 202.73 203.81 182.31 222.46 158.52 244.19 150.37 244.19 150.37 235.82 179.67 214.65 179.67 199.49 180.21 199.6 179.67 198.08 179.67 155.71 202.26 139.83 202.26 128.41 203.39 127.33 202.26 126.14 202.26 113.44 187.84 101.13 191.71 65.9 161.1 33.84 120.73 33.84 78.14 75.01 78.14 127 77.86 127.2 78.14 127.6 78.14 196.89 64.61 189.21 64.61 61.28 87.63 28.52 51.32 60.51 51.32 128.49 27.32 81.79 68.77 2.38 140.45 9.72 140.55 9.73 211.63 2.38"/>
      <polygon class="cls-1" points="202.26 126.14 203.39 127.33 202.26 128.41 202.26 126.14"/>
      <polygon class="cls-1" points="202.26 128.41 202.26 139.83 179.67 155.71 179.67 198.08 177.67 192.44 177.67 154.68 200.26 138.79 200.26 126.95 201.94 128.71 202.26 128.41"/>
      <polygon class="cls-1" points="202.26 126.14 202.26 128.41 201.94 128.71 200.26 126.95 200.26 124.04 202.26 126.14"/>
      <polygon class="cls-1" points="202.26 113.44 202.26 126.14 200.26 124.04 200.26 114.36 185.73 101.96 189.62 66.61 160.24 35.84 121.54 35.84 80.14 75.85 80.14 125.6 78.14 127 78.14 75.01 120.73 33.84 161.1 33.84 191.71 65.9 187.84 101.13 202.26 113.44"/>
      <polygon class="cls-1" points="200.26 124.04 200.26 126.95 196.61 123.12 196.61 120.21 200.26 124.04"/>
      <path class="cls-1" d="M200.26,114.36v9.68l-3.65-3.83v-3.78h-37.29v6h-25.89v-1.18l-11.17-11.17h-31.12v2h30.29l2.53,2.53-1.82,1.82h-37.65v6.13l-4.35,3.04v-49.75l41.4-40.01h38.7l29.38,30.77-3.89,35.35,14.53,12.4ZM190.67,112.08v-2h-31.77v2h31.77Z"/>
      <polygon class="cls-1" points="196.61 120.21 196.61 123.12 194.88 121.3 196.33 119.92 196.61 120.21"/>
      <polygon class="cls-1" points="194.61 118.43 194.61 131.61 161.63 131.61 161.32 123.41 161.32 118.43 194.61 118.43"/>
      <rect class="cls-1" x="158.9" y="110.08" width="31.77" height="2"/>
      <polygon class="cls-1" points="139.25 270.64 190.04 338.69 140.54 365.99 140.06 365.71 50.19 314.91 52.97 314.19 140.56 363.7 187.06 338.05 118.26 245.84 118.61 246.19 121.01 246.19 139.25 270.64"/>
      <polygon class="cls-1" points="118.26 245.84 187.06 338.05 140.56 363.7 52.97 314.19 97.46 302.61 97.46 320.72 99.46 320.72 99.46 302.28 99.46 227.21 118.22 245.8 118.26 245.84"/>
      <polygon class="cls-1" points="184.61 222.79 184.61 223.07 182.61 224.89 182.61 222.79 184.61 222.79"/>
      <polygon class="cls-1" points="182.61 222.79 182.61 224.89 159.29 246.19 149.67 246.19 149.67 245.19 150.37 245.19 150.37 244.19 158.52 244.19 182.31 222.46 182.61 222.79"/>
      <polygon class="cls-1" points="179.67 198.08 180.21 199.6 179.67 199.49 179.67 198.08"/>
      <polygon class="cls-1" points="179.67 199.49 179.67 214.65 150.37 235.82 150.37 233.36 177.67 213.63 177.67 199.06 179.67 199.49"/>
      <polygon class="cls-1" points="179.67 198.08 179.67 199.49 177.67 199.06 177.67 196.91 177.67 192.44 179.67 198.08"/>
      <polygon class="cls-1" points="177.67 196.91 177.67 199.06 140.97 191.32 141.17 190.38 141.43 189.37 177.13 196.91 177.67 196.91"/>
      <polygon class="cls-1" points="177.67 192.44 177.67 196.91 177.13 196.91 174.01 188.12 144.08 178.95 144.34 177.93 144.62 177.02 175.56 186.5 177.67 192.44"/>
      <polygon class="cls-1" points="174.01 188.12 177.13 196.91 141.43 189.37 144.08 178.95 174.01 188.12"/>
      <polygon class="cls-1" points="150.37 244.19 150.37 245.19 149.67 245.19 148.37 245.19 148.37 244.19 150.37 244.19"/>
      <polygon class="cls-1" points="150.37 235.82 150.37 244.19 148.37 244.19 148.37 234.5 148.79 234.5 149.96 236.12 150.37 235.82"/>
      <polygon class="cls-1" points="150.37 233.36 150.37 235.82 149.96 236.12 148.79 234.5 150.37 233.36"/>
      <polygon class="cls-1" points="150.37 224.46 150.37 233.36 148.79 234.5 148.37 234.5 148.37 225.18 141.55 216.92 141.55 214.14 141.73 213.99 150.37 224.46"/>
      <polygon class="cls-1" points="149.67 246.19 149.67 255.01 141.68 267.86 141.55 267.78 141.55 264.29 147.67 254.44 147.67 244.19 148.37 244.19 148.37 245.19 149.67 245.19 149.67 246.19"/>
      <polygon class="cls-1" points="148.37 234.5 148.37 244.19 147.67 244.19 147.67 254.44 141.55 264.29 141.55 216.92 148.37 225.18 148.37 234.5"/>
      <polygon class="cls-1" points="144.62 177.02 144.34 177.93 142.41 177.44 142.17 178.36 139.09 177.42 107.1 187.76 103.95 196.9 139.38 189.29 139.23 189.89 141.17 190.38 140.97 191.32 140.2 191.16 100.91 199.6 105.53 186.16 139.07 175.32 144.62 177.02"/>
      <polygon class="cls-1" points="144.34 177.93 144.08 178.95 142.17 178.36 142.41 177.44 144.34 177.93"/>
      <polygon class="cls-1" points="144.08 178.95 141.43 189.37 140.2 189.11 139.38 189.29 142.17 178.36 144.08 178.95"/>
      <polygon class="cls-1" points="142.17 178.36 139.38 189.29 103.95 196.9 107.1 187.76 139.09 177.42 142.17 178.36"/>
      <polygon class="cls-1" points="140.58 212.6 141.73 213.99 141.55 214.14 139.55 214.14 139.36 213.97 140.58 212.6"/>
      <polygon class="cls-1" points="141.68 267.86 140.56 269.66 139.41 267.87 139.55 267.78 141.55 267.78 141.68 267.86"/>
      <polygon class="cls-1" points="141.55 264.29 141.55 267.78 139.55 267.78 139.55 264.36 140.54 265.91 141.55 264.29"/>
      <polygon class="cls-1" points="141.55 216.92 141.55 264.29 140.54 265.91 139.55 264.36 139.55 216.76 140.52 215.67 141.55 216.92"/>
      <polygon class="cls-1" points="141.55 214.14 141.55 216.92 140.52 215.67 139.55 216.76 139.55 214.14 141.55 214.14"/>
      <polygon class="cls-1" points="141.43 189.37 141.17 190.38 139.23 189.89 139.38 189.29 140.2 189.11 141.43 189.37"/>
      <polygon class="cls-1" points="139.41 267.87 140.56 269.66 139.25 270.64 121.01 246.19 130.73 246.19 130.73 254.31 139.41 267.87"/>
      <polygon class="cls-1" points="139.55 264.36 139.55 267.78 139.41 267.87 130.73 254.31 130.73 246.19 121.01 246.19 119.82 244.6 119.82 244.19 130.69 244.19 130.73 245.23 132.73 245.16 132.73 253.72 139.55 264.36"/>
      <polygon class="cls-1" points="139.55 216.76 139.55 264.36 132.73 253.72 132.73 245.16 132.73 244.19 132.7 244.19 132.03 225.18 139.55 216.76"/>
      <polygon class="cls-1" points="139.55 214.14 139.55 216.76 132.03 225.18 132.7 244.19 130.69 244.19 130.01 224.45 139.36 213.97 139.55 214.14"/>
      <polygon class="cls-1" points="133.43 121.25 133.43 122.43 131.43 122.43 131.43 122.08 123.96 114.61 121.43 112.08 91.14 112.08 91.14 110.08 122.26 110.08 133.43 121.25"/>
      <polygon class="cls-1" points="132.73 244.19 132.73 245.16 132.7 244.19 132.73 244.19"/>
      <polygon class="cls-1" points="132.7 244.19 132.73 245.16 130.73 245.23 130.69 244.19 132.7 244.19"/>
      <path class="cls-1" d="M131.43,122.43v2h-9.37l-.7,9.18h-36.87v-8.6l1.58-1.11-1.15-1.64-.43.3v-6.13h37.65v6h9.29ZM120.14,123.39v-4.96h-33.65v13.18h33.02l.63-8.22Z"/>
      <polygon class="cls-1" points="131.43 122.08 131.43 122.43 122.14 122.43 122.14 116.43 123.96 114.61 131.43 122.08"/>
      <polygon class="cls-1" points="119.82 244.6 121.01 246.19 118.61 246.19 118.26 245.84 118.22 245.8 118.22 245.79 119.82 244.6"/>
      <polygon class="cls-1" points="120.14 118.43 120.14 123.39 119.51 131.61 86.49 131.61 86.49 118.43 120.14 118.43"/>
      <polygon class="cls-1" points="119.82 244.19 119.82 244.6 118.22 245.79 118.22 245.8 99.46 227.21 99.46 224.82 99.67 224.61 119.43 244.19 119.82 244.19"/>
      <polygon class="cls-1" points="99.67 224.61 99.46 224.82 97.46 224.82 97.46 225.23 78.14 206.08 78.14 199.19 77.89 199.05 78.14 198.61 80.14 198.61 80.14 205.25 99.67 224.61"/>
      <polygon class="cls-1" points="99.46 302.28 99.46 320.72 97.46 320.72 97.46 302.61 98.71 302.28 99.46 302.28"/>
      <polygon class="cls-1" points="99.46 227.21 99.46 302.28 98.71 302.28 98.21 300.35 97.46 300.55 97.46 225.23 99.46 227.21"/>
      <polygon class="cls-1" points="99.46 224.82 99.46 227.21 97.46 225.23 97.46 224.82 99.46 224.82"/>
      <polygon class="cls-1" points="98.21 300.35 98.71 302.28 97.46 302.61 97.46 300.55 98.21 300.35"/>
      <polygon class="cls-1" points="97.46 300.55 97.46 302.61 52.97 314.19 50.81 312.97 50.74 312.71 97.46 300.55"/>
      <polygon class="cls-1" points="87.63 28.52 64.61 61.28 64.61 189.21 62.61 188.08 62.61 60.64 76.3 41.17 53.32 61.41 53.32 132.61 53.31 132.61 53.31 132.36 51.32 128.49 51.32 60.51 87.63 28.52"/>
      <polygon class="cls-1" points="84.92 122.26 86.07 123.9 84.49 125.01 84.49 122.56 84.92 122.26"/>
      <polygon class="cls-1" points="84.49 122.56 84.49 125.01 80.14 128.05 80.14 125.6 84.49 122.56"/>
      <polygon class="cls-1" points="80.14 198.02 80.14 198.61 78.14 198.61 78.14 196.89 80.14 198.02"/>
      <polygon class="cls-1" points="80.14 128.05 80.14 198.02 78.14 196.89 78.14 127.6 79.01 128.84 80.14 128.05"/>
      <polygon class="cls-1" points="80.14 125.6 80.14 128.05 79.01 128.84 78.14 127.6 78.14 127 80.14 125.6"/>
      <polygon class="cls-1" points="78.14 196.89 78.14 198.61 77.89 199.05 62.51 190.32 62.61 190.14 64.61 190.14 64.61 189.21 78.14 196.89"/>
      <polygon class="cls-1" points="78.14 127 78.14 127.6 77.86 127.2 78.14 127"/>
      <polygon class="cls-1" points="76.3 41.17 62.61 60.64 62.61 188.08 54.01 183.2 53.31 132.61 53.32 132.61 53.32 61.41 76.3 41.17"/>
      <polygon class="cls-1" points="64.61 189.21 64.61 190.14 62.61 190.14 62.61 188.08 64.61 189.21"/>
      <polygon class="cls-1" points="62.61 188.08 62.61 190.14 62.51 190.32 52.03 184.37 51.32 132.85 51.22 132.66 51.32 132.61 53.31 132.61 54.01 183.2 62.61 188.08"/>
      <polygon class="cls-1" points="53.31 132.36 53.31 132.61 51.32 132.61 51.32 128.49 53.31 132.36"/>
      <polygon class="cls-1" points="52.97 314.19 50.19 314.91 49.83 314.71 50.81 312.97 52.97 314.19"/>
    </g>
  </g>
</svg>