<svg width="595" height="842" viewBox="0 0 595 842" fill="none" xmlns="http://www.w3.org/2000/svg">
<rect width="595" height="842" fill="black"/>
<rect x="39" y="150" width="115" height="20" fill="#D9D9D9"/>
<rect x="84" y="180" width="70" height="20" fill="#D9D9D9"/>
<rect x="129" y="94" width="337" height="337" fill="white"/>
<rect x="269" y="234" width="197" height="197" fill="#D9D9D9"/>
<rect x="308" y="273" width="158" height="158" fill="black"/>
<rect x="308" y="536" width="247" height="20" fill="#D9D9D9"/>
<rect x="308" y="596" width="202" height="20" fill="#D9D9D9"/>
<rect x="308" y="566" width="247" height="20" fill="#D9D9D9"/>
<rect x="130" y="536" width="113" height="20" fill="#D9D9D9"/>
<rect x="130" y="466" width="291" height="40" fill="white"/>
<rect x="130" y="596" width="92" height="20" fill="#D9D9D9"/>
<rect x="130" y="651" width="24" height="20" fill="#D9D9D9"/>
<rect x="308" y="536" width="69" height="286" fill="#D9D9D9"/>
<rect x="288" y="536" width="10" height="286" fill="white"/>
<rect x="130" y="566" width="113" height="20" fill="#D9D9D9"/>
<rect x="530" y="802" width="25" height="20" fill="#D9D9D9"/>
<rect x="328" y="293" width="118" height="118" fill="#D9D9D9"/>
</svg>
