<svg width="595" height="1498" viewBox="0 0 595 1498" fill="none" xmlns="http://www.w3.org/2000/svg">
<rect width="595" height="1498" fill="#D9D9D9"/>
<rect x="40" y="40" width="69" height="69" fill="black"/>
<rect x="129" y="40" width="69" height="130" fill="black"/>
<rect x="218" y="40" width="70" height="87" fill="white"/>
<rect x="40" y="170" width="25" height="684" fill="white"/>
<rect x="40" y="914" width="203" height="20" fill="white"/>
<rect x="40" y="944" width="203" height="20" fill="white"/>
<rect x="40" y="974" width="203" height="20" fill="white"/>
<rect x="40" y="1054" width="203" height="20" fill="white"/>
<rect x="40" y="1084" width="114" height="20" fill="white"/>
<rect x="40" y="1114" width="203" height="20" fill="white"/>
<rect x="40" y="1144" width="69" height="20" fill="white"/>
<rect x="40" y="1004" width="158" height="20" fill="white"/>
<rect x="40" y="1250" width="515" height="10" fill="white"/>
<rect x="540" y="1270" width="30" height="30" fill="white"/>
<rect x="174" y="1270" width="69" height="10" fill="black"/>
<rect x="85" y="1270" width="24" height="10" fill="black"/>
<rect x="40" y="1270" width="25" height="10" fill="black"/>
<rect x="308" y="7" width="248" height="1203" fill="white"/>
<rect x="377" y="1029" width="158" height="158" fill="#D9D9D9"/>
<rect x="397" y="1052" width="158" height="158" fill="black"/>
<rect x="355" y="520" width="66" height="189" fill="black"/>
<rect x="332" y="40" width="45" height="69" fill="black"/>
<rect x="352" y="320" width="158" height="10" fill="#D9D9D9"/>
<rect x="352" y="465" width="158" height="10" fill="#D9D9D9"/>
<rect x="352" y="340" width="114" height="20" fill="#D9D9D9"/>
<rect x="352" y="370" width="114" height="20" fill="#D9D9D9"/>
<rect x="352" y="400" width="69" height="20" fill="#D9D9D9"/>
<rect x="352" y="774" width="114" height="20" fill="#D9D9D9"/>
<rect x="352" y="804" width="114" height="20" fill="#D9D9D9"/>
<rect x="352" y="834" width="114" height="20" fill="#D9D9D9"/>
<rect x="352" y="864" width="114" height="20" fill="#D9D9D9"/>
<rect x="352" y="894" width="45" height="20" fill="#D9D9D9"/>
<rect x="441" y="520" width="69" height="20" fill="#D9D9D9"/>
<rect x="441" y="550" width="69" height="20" fill="#D9D9D9"/>
<rect x="441" y="580" width="45" height="20" fill="#D9D9D9"/>
<rect x="352" y="754" width="158" height="10" fill="#D9D9D9"/>
</svg>
