<?xml version="1.0" encoding="UTF-8"?>
<svg id="Layer_2" data-name="Layer 2" xmlns="http://www.w3.org/2000/svg" viewBox="0 0 385.87 489.09">
  <defs>
    <style>
      .cls-1 {
        fill: none;
      }

      .cls-1, .cls-2 {
        stroke: #231f20;
        stroke-miterlimit: 10;
      }

      .cls-2, .cls-3 {
        fill: #fff;
      }

      .cls-4 {
        fill: #58595b;
      }

      .cls-4, .cls-3, .cls-5 {
        stroke-width: 0px;
      }

      .cls-5 {
        fill: #231f20;
      }
    </style>
  </defs>
  <g id="Layer_2-2" data-name="Layer 2">
    <g>
      <g>
        <polygon class="cls-4" points="277.97 214.24 385.27 368.82 309.74 488.59 100.28 488.59 100.28 175.56 121.27 182.47 140.09 176.02 140.09 176.03 140.09 236.82 245.5 441.29 285.74 406.94 249.03 374.94 277.97 214.24"/>
        <path class="cls-4" d="M120.33,151.41l7.53-9.41h-14.12l6.59,9.41ZM239.39,142l-99.3,34.02-18.82,6.45-20.99-6.91L1.27,142.94l38.12-20.23L36.09,2.71l42.36,99.76h85.17L205.03,2.71l-3.76,120.47,38.12,18.82ZM191.39,119.41l9.41-93.65-26.83,81.89,17.42,11.76ZM69.5,107.65L41.27,25.76l10.35,90.83,17.88-8.94Z"/>
        <polygon class="cls-5" points="200.8 25.76 191.39 119.41 173.97 107.65 200.8 25.76"/>
        <polygon class="cls-5" points="127.86 142 120.33 151.41 113.74 142 127.86 142"/>
        <polygon class="cls-5" points="41.27 25.76 69.5 107.65 51.62 116.59 41.27 25.76"/>
      </g>
      <g>
        <polygon class="cls-1" points="140.09 176.02 239.39 142 201.27 123.18 205.03 2.71 163.62 102.47 78.45 102.47 36.09 2.71 39.39 122.71 1.27 142.94 100.28 175.56 121.27 182.47 140.09 176.02"/>
        <polygon class="cls-1" points="41.27 25.76 51.62 116.59 69.5 107.65 41.27 25.76"/>
        <polygon class="cls-1" points="173.97 107.65 200.8 25.76 191.39 119.41 173.97 107.65"/>
        <polygon class="cls-1" points="113.74 142 120.33 151.41 127.86 142 113.74 142"/>
        <line class="cls-1" x1="141.03" y1="142" x2="173.97" y2="133.06"/>
        <line class="cls-1" x1="66.21" y1="133.06" x2="98.68" y2="140.12"/>
        <polyline class="cls-1" points="74.21 148.59 120.33 166.94 139.3 159.88 166.45 149.76"/>
        <line class="cls-1" x1="120.33" y1="151.41" x2="120.33" y2="166.94"/>
        <polyline class="cls-1" points="100.28 175.56 100.28 488.59 309.74 488.59 385.27 368.82 277.97 214.24 249.03 374.94 285.74 406.94 245.5 441.29 140.09 236.82 140.09 176.03"/>
      </g>
    </g>
    <polyline class="cls-3" points="183.83 321.66 128.56 488.59 100.28 488.59 100.28 287.18 119.62 319.18 137.74 281 112.56 205.06 140.09 236.83"/>
    <polyline class="cls-3" points="277.97 214.24 285.74 406.94 249.03 374.94"/>
    <polyline class="cls-3" points="36.09 2.71 41.27 25.77 51.62 116.59 39.39 122.71"/>
    <polyline class="cls-3" points="74.21 106.47 58.21 138.94 82.45 169.68 1.27 142.94"/>
    <polyline class="cls-2" points="205.03 2.71 200.8 25.77 173.97 107.65 163.62 102.47"/>
    <polygon class="cls-5" points="278.27 214.24 332.62 383.65 274.97 468.12 205.97 466.94 188.09 488.59 298.74 488.59 357.09 391.89 310.27 260.36 278.27 214.24"/>
    <polygon class="cls-5" points="112.56 205.06 100.28 287.18 119.62 319.18 137.74 281 112.56 205.06"/>
    <polygon class="cls-5" points="121.27 182.47 139.92 159.89 120.33 166.94 100.82 159.18 121.27 182.47"/>
    <polygon class="cls-5" points="127.48 142.47 120.33 151.41 113.74 142.47 127.48 142.47"/>
  </g>
</svg>