<?xml version="1.0" encoding="UTF-8"?>
<svg id="b" data-name="Layer 2" xmlns="http://www.w3.org/2000/svg" viewBox="0 0 393.2 398.8">
  <defs>
    <style>
      .d {
        fill: #a7a9ac;
        stroke: #bcbec0;
        stroke-miterlimit: 10;
        stroke-width: 2px;
      }
    </style>
  </defs>
  <g id="c" data-name="Layer 6">
    <g>
      <path class="d" d="M126.68,162.9l-23.81,13.22c4.91,12.94,3.51,9.26,8.42,22.21l26.59-5.9c6.12,8.86,6.51,9.44,12.63,18.3l-14.94,22.77c10.36,9.18,7.42,6.57,17.78,15.75l20.8-17.58c9.54,5,10.15,5.33,19.69,10.33l-2.65,27.11c13.44,3.31,9.62,2.37,23.06,5.68l10.25-25.23h22.23l10.25,25.23c13.44-3.31,9.62-2.37,23.06-5.68l-2.65-27.11c9.54-5,10.15-5.33,19.69-10.33l20.8,17.58c10.36-9.18,7.42-6.57,17.78-15.75l-14.94-22.77c6.12-8.86,6.51-9.44,12.63-18.3l26.59,5.9c4.91-12.94,3.51-9.26,8.42-22.21l-23.81-13.22c1.3-10.69,1.38-11.38,2.68-22.07l26.28-7.14c-1.67-13.74-1.19-9.84-2.86-23.58l-27.23-.64c-3.82-10.07-4.07-10.72-7.88-20.79l19.96-18.53c-7.86-11.39-5.63-8.15-13.49-19.55l-24.41,12.09c-8.06-7.14-8.58-7.6-16.64-14.74l9.06-25.68c-12.26-6.43-8.77-4.6-21.03-11.04l-15.99,22.04c-10.46-2.58-11.13-2.74-21.59-5.32l-3.92-26.95h-23.75l-3.92,26.95c-10.46,2.58-11.13,2.74-21.59,5.32l-15.99-22.04c-12.26,6.43-8.77,4.6-21.03,11.04l9.06,25.68c-8.06,7.14-8.58,7.6-16.64,14.74l-24.41-12.09c-7.86,11.39-5.63,8.15-13.49,19.55l19.96,18.53c-3.82,10.07-4.07,10.72-7.88,20.79l-27.23.64c-1.67,13.74-1.19,9.84-2.86,23.58l26.28,7.14c1.3,10.69,1.38,11.38,2.68,22.07Z"/>
      <polygon class="d" points="359.15 254.24 289.27 311.41 225.74 298.71 122.68 264.12 1.27 319.18 30.91 397.53 118.44 367.18 258.91 394 344.33 335.41 391.62 263.41 359.15 254.24"/>
    </g>
  </g>
</svg>