<?xml version="1.0" encoding="UTF-8"?>
<svg id="b" data-name="Layer 2" xmlns="http://www.w3.org/2000/svg" viewBox="0 0 339.45 306.66">
  <defs>
    <style>
      .e {
        stroke-width: 5px;
      }

      .e, .f, .g {
        fill: #a7a9ac;
        stroke: #a7a9ac;
        stroke-miterlimit: 10;
      }

      .f {
        stroke-width: 2px;
      }

      .g {
        stroke-width: 6px;
      }
    </style>
  </defs>
  <g id="c" data-name="Layer 5">
    <g id="d" data-name="IllustrationIcon">
      <rect class="f" x="1" y="1" width="232.94" height="295.76" rx="17.65" ry="17.65"/>
      <g>
        <polyline class="f" points="212.81 180.82 260.71 188.81 311 221.53 338.41 254.41 333.35 305.35 290.25 292.58 283.35 260.53 271.09 274.22 223.99 231.11 207.23 197.59 181.68 165.66"/>
        <polyline class="e" points="287.05 243.89 248.46 213.68 176.89 157.67"/>
        <polyline class="e" points="218.4 197.59 165.12 153.08 177.49 160.27 173.3 166.45"/>
      </g>
      <path class="g" d="M23.59,197.24l57.88-89.65,45.18,26.82,33.88-46.59,50.82,62.12-84,2.12-103.76,45.18,16.15,37.68c3.69,8.61,19.43,10.21,20.11.87,1.86-25.61,32.76-41.71,66.33-18.08,57.18,40.24,64-13.65,64-13.65"/>
      <circle class="f" cx="50.06" cy="55.35" r="21.18"/>
    </g>
  </g>
</svg>