<?xml version="1.0" encoding="UTF-8"?>
<svg id="Layer_2" data-name="Layer 2" xmlns="http://www.w3.org/2000/svg" viewBox="0 0 269.55 288.27">
  <defs>
    <style>
      .cls-1 {
        fill: #58595b;
      }

      .cls-1, .cls-2, .cls-3 {
        stroke-width: 0px;
      }

      .cls-4 {
        fill: none;
        stroke: #231f20;
        stroke-miterlimit: 1;
        stroke-width: 4px;
      }

      .cls-2 {
        fill: #a7a9ac;
      }

      .cls-3 {
        fill: #231f20;
      }
    </style>
  </defs>
  <g id="Layer_3" data-name="Layer 3">
    <g>
      <g>
        <path class="cls-3" d="M217.51,167.97l-1.33,13c-.08.81-.19,1.61-.32,2.41s-.28,1.59-.46,2.38c-.18.8-.39,1.59-.62,2.38-.23.78-.48,1.57-.76,2.36-.27.78-.57,1.56-.89,2.34-.32.77-.66,1.54-1.03,2.29-.36.76-.74,1.52-1.14,2.26-.4.75-.83,1.49-1.27,2.22-.44.74-.91,1.47-1.4,2.19-.48.72-.99,1.43-1.52,2.13-.52.71-1.07,1.4-1.64,2.09s-1.16,1.37-1.77,2.04-1.24,1.33-1.88,1.98c-.65.64-1.31,1.28-2,1.9-.68.62-1.38,1.22-2.1,1.82s-1.46,1.18-2.22,1.75c-.77.58-1.51,1.11-2.23,1.6s-1.43.94-2.11,1.34c-.68.41-1.35.77-1.99,1.09-.65.32-1.27.6-1.87.83-.61.24-1.19.43-1.75.58s-1.09.25-1.6.31-1,.08-1.46.06c-.46-.03-.9-.1-1.31-.22-.42-.11-.81-.27-1.17-.47s-.7-.44-1.01-.73c-.31-.28-.6-.62-.86-.99-.25-.38-.49-.8-.69-1.26-.21-.47-.38-.97-.53-1.53-.14-.55-.25-1.15-.34-1.79-.08-.64-.13-1.33-.15-2.06s-.01-1.51.04-2.34l.7-13.32,40.68-28.64Z"/>
        <path class="cls-1" d="M109.48,200.56c.02,1.32.02,2.58-.02,3.78-.03,1.19-.1,2.33-.2,3.41-.1,1.07-.23,2.09-.39,3.04-.16.96-.35,1.86-.57,2.7s-.47,1.61-.74,2.33c-.28.72-.58,1.38-.91,1.97-.32.6-.68,1.13-1.06,1.61s-.78.89-1.21,1.25-.89.66-1.36.91c-.48.25-.97.43-1.5.56-.52.14-1.06.21-1.63.23-.56.02-1.15-.02-1.76-.12-.61-.09-1.24-.24-1.88-.45-.65-.2-1.32-.47-2-.79-.69-.33-1.39-.71-2.11-1.15-.73-.44-1.47-.93-2.23-1.49l-11.9-8.62-4.07-66.62,12.85,8.16c.83.52,1.63,1.08,2.43,1.69.79.6,1.56,1.25,2.32,1.93s1.5,1.41,2.22,2.17c.72.77,1.42,1.57,2.11,2.42.69.84,1.35,1.72,1.99,2.63s1.26,1.85,1.86,2.81c.59.97,1.16,1.96,1.71,2.99.54,1.02,1.06,2.07,1.56,3.14.5,1.09.97,2.19,1.42,3.32.44,1.13.86,2.28,1.25,3.45s.75,2.36,1.08,3.58c.34,1.21.64,2.45.92,3.7.27,1.25.52,2.51.73,3.79.22,1.27.4,2.55.55,3.84s.27,2.58.36,3.89c.09,1.3.15,2.62.18,3.94Z"/>
        <path class="cls-2" d="M193.89,65.84c.07.48.08.95.04,1.42-.04.48-.13.96-.28,1.43-.16.48-.36.96-.62,1.44-.27.48-.58.97-.96,1.45-.37.48-.8.96-1.29,1.44-.48.48-1.03.95-1.63,1.43-.6.47-1.26.94-1.97,1.41-.72.47-1.5.93-2.33,1.39-.83.47-1.69.91-2.55,1.32-.87.4-1.75.79-2.64,1.14-.9.36-1.81.68-2.73.98-.93.3-1.87.57-2.82.81s-1.91.46-2.88.64c-.96.18-1.94.34-2.91.46-.98.13-1.96.23-2.94.29-.98.07-1.97.1-2.96.11s-1.98-.01-2.97-.06c-.98-.05-1.97-.13-2.95-.24-.98-.1-1.97-.24-2.94-.4-.98-.17-1.95-.36-2.93-.58-.97-.22-1.92-.47-2.87-.75s-1.88-.58-2.8-.91c-.92-.34-1.83-.7-2.72-1.09-.9-.39-1.78-.8-2.64-1.24l-13.53-6.9,43.09-21.58,13.46,6.1c.86.39,1.68.79,2.44,1.19.77.4,1.49.81,2.16,1.23s1.29.84,1.86,1.27,1.09.87,1.56,1.31c.47.45.9.89,1.27,1.34.37.46.69.91.97,1.37.27.46.49.92.66,1.38.17.47.29.93.35,1.4Z"/>
        <path class="cls-1" d="M41.08,183.51c-.3-.08-.62-.2-.95-.35-.33-.14-.67-.33-1.03-.54-.36-.22-.74-.46-1.12-.75-.35-.25-.68-.51-1.01-.78-.32-.28-.64-.56-.94-.86-.31-.29-.6-.6-.89-.92s-.56-.65-.83-.99c-.26-.34-.52-.69-.77-1.04s-.5-.71-.74-1.08c-.23-.37-.47-.74-.69-1.12-.23-.38-.45-.76-.66-1.16-.21-.39-.42-.78-.62-1.19-.2-.4-.4-.8-.59-1.22-.19-.41-.37-.82-.55-1.25-.18-.42-.36-.84-.53-1.27s-.34-.86-.5-1.29c-.17-.43-.33-.86-.49-1.29s-.32-.86-.47-1.29c-.16-.43-.31-.86-.46-1.29-.15-.39-.3-.77-.46-1.12-.17-.36-.35-.7-.54-1.02-.18-.32-.39-.62-.6-.9-.21-.29-.44-.55-.68-.8-.07-.08-.15-.16-.22-.23-.08-.07-.15-.14-.23-.2-.07-.07-.15-.13-.23-.19-.07-.06-.15-.12-.22-.17-.16-.12-.32-.22-.48-.3-.16-.09-.32-.16-.49-.22-.16-.05-.32-.1-.48-.13s-.32-.04-.48-.04l-3.54-.07c.3,1.05.6,2.08.9,3.08s.61,1.98.93,2.94c.31.96.63,1.89.96,2.81.32.91.65,1.8.98,2.68.34.86.68,1.71,1.03,2.55.35.83.72,1.65,1.09,2.44.37.8.75,1.58,1.14,2.35.4.76.8,1.51,1.21,2.24s.84,1.44,1.27,2.14c.44.69.88,1.37,1.35,2.04.46.66.93,1.3,1.41,1.93.49.63.99,1.24,1.5,1.83.51.6,1.04,1.19,1.59,1.76.54.57,1.11,1.12,1.7,1.67.58.54,1.19,1.07,1.81,1.59s1.27,1.03,1.93,1.52c.61.45,1.21.87,1.79,1.24.59.37,1.17.71,1.74,1,.57.3,1.13.55,1.68.77.55.21,1.09.39,1.62.53.53.13,1.04.22,1.53.27.5.04.97.04,1.43,0,.45-.05.89-.14,1.31-.28s.82-.33,1.2-.56.74-.51,1.07-.85c.34-.33.65-.71.93-1.14.29-.44.55-.92.79-1.46.24-.53.45-1.12.64-1.75.19-.64.34-1.34.46-2.09.11-.76.2-1.57.24-2.44.05-.88.06-1.81.04-2.8s-.08-2.04-.18-3.15c-.11-1.3-.27-2.59-.48-3.87-.22-1.28-.48-2.54-.78-3.79-.31-1.25-.67-2.49-1.08-3.71s-.87-2.42-1.37-3.6c-.51-1.19-1.07-2.36-1.67-3.5-.61-1.15-1.27-2.28-1.97-3.39-.71-1.11-1.47-2.19-2.27-3.26-.8-1.06-1.65-2.11-2.55-3.13.33.05.66.08.98.09.31.01.62,0,.92-.02.3-.03.58-.07.86-.13.28-.07.55-.15.81-.25s.51-.22.74-.37c.24-.14.46-.32.67-.51.21-.2.4-.42.58-.67.19-.25.36-.52.51-.82.16-.29.31-.62.44-.97s.25-.72.36-1.13c.1-.4.2-.84.28-1.3s.15-.95.2-1.46c.06-.51.1-1.06.12-1.64s.03-1.2.02-1.85c0-.65-.03-1.33-.07-2.05-.03-.71-.09-1.47-.16-2.25-.08-.9-.18-1.8-.31-2.7-.13-.91-.28-1.82-.46-2.73-.18-.92-.39-1.83-.62-2.75s-.49-1.85-.77-2.77c-.28-.93-.59-1.84-.91-2.75-.33-.9-.67-1.8-1.04-2.69-.37-.88-.76-1.76-1.17-2.63-.41-.86-.84-1.72-1.29-2.56s-.92-1.67-1.4-2.47c-.49-.8-.99-1.59-1.51-2.35s-1.06-1.5-1.61-2.23c-.56-.72-1.12-1.42-1.71-2.09-.59-.68-1.19-1.33-1.8-1.94-.61-.62-1.23-1.2-1.86-1.74-.63-.55-1.27-1.06-1.92-1.54-.66-.48-1.32-.92-1.99-1.33-.64-.4-1.27-.75-1.89-1.05-.61-.3-1.2-.55-1.78-.76s-1.15-.37-1.69-.49c-.55-.12-1.08-.19-1.59-.21-.51-.03-1,0-1.47.07s-.92.19-1.34.36c-.43.16-.83.37-1.22.63-.38.26-.74.56-1.09.91-.34.35-.65.75-.95,1.19-.29.44-.57.93-.81,1.47-.25.53-.48,1.11-.69,1.74-.2.62-.38,1.29-.54,2.01s-.29,1.48-.4,2.29c-.1.81-.18,1.67-.24,2.57-.05.9-.07,1.85-.07,2.84s.03,2.03.08,3.11l5.03,4.68c.11.1.22.2.33.29s.21.18.31.26c.11.08.21.16.3.23.1.07.2.13.29.19.17.12.33.21.49.29.15.07.3.13.43.17.14.04.27.06.39.06.11.01.22-.01.32-.04.16-.05.3-.15.43-.3s.24-.34.34-.59c.1-.24.19-.54.27-.88.07-.34.14-.73.19-1.17.01-.36.04-.71.07-1.05.04-.33.08-.65.13-.96s.12-.6.19-.89c.07-.28.15-.54.24-.79.09-.26.19-.5.3-.73.1-.22.22-.43.35-.63.12-.19.26-.37.4-.54.15-.16.3-.31.46-.44.16-.14.33-.25.51-.35s.36-.18.56-.24c.19-.07.39-.11.6-.14.21-.02.43-.03.66-.03.22.02.46.05.7.1.25.06.5.13.75.23.26.09.53.21.8.35.28.14.56.3.85.49.63.39,1.24.85,1.82,1.36.59.52,1.15,1.09,1.69,1.72.54.62,1.06,1.31,1.55,2.05s.96,1.54,1.41,2.39c.44.85.85,1.74,1.21,2.67s.68,1.9.96,2.9c.28,1.01.52,2.05.71,3.12.2,1.08.35,2.19.46,3.33.06.54.1,1.06.12,1.56.03.49.04.97.05,1.43,0,.46-.01.9-.04,1.32-.02.42-.06.82-.11,1.2s-.12.73-.21,1.05c-.08.33-.19.62-.32.89-.12.27-.27.51-.43.72-.17.21-.35.39-.55.55s-.42.28-.67.38c-.24.09-.51.16-.79.19-.29.03-.6.04-.93.01s-.68-.09-1.05-.17c-.37-.09-.76-.21-1.19-.38-.42-.16-.87-.35-1.34-.59-.48-.24-.98-.51-1.51-.81-.52-.31-1.07-.66-1.65-1.04l1.25,11.21c.69.47,1.35.95,1.98,1.42.63.48,1.23.95,1.8,1.42.57.48,1.1.95,1.61,1.42.5.47.97.95,1.41,1.41.44.47.85.94,1.25,1.41.39.46.76.93,1.11,1.4s.68.94.98,1.41.58.94.84,1.41.5.95.72,1.42c.22.48.43.96.61,1.44.19.48.36.96.51,1.45.15.48.28.97.39,1.46.12.49.22.98.32,1.48s.19,1.01.28,1.52c.08.51.15,1.02.22,1.54s.13,1.05.18,1.58c.04.42.07.83.08,1.23.02.39.02.78,0,1.16s-.03.74-.06,1.1c-.04.36-.08.71-.14,1.04-.06.34-.13.66-.22.96-.09.29-.19.57-.3.83s-.24.5-.38.72c-.14.23-.29.43-.46.62-.17.18-.35.34-.54.48-.19.13-.4.24-.62.33-.22.08-.45.15-.7.18-.24.04-.5.06-.77.04-.28-.01-.57-.05-.87-.13ZM135.45,133.8l-.57,152.89L20.7,198.94,1.98,56.74l133.47,77.06ZM122.66,214.72c.1-1.61.15-3.3.14-5.07,0-1.78-.07-3.57-.18-5.36-.12-1.8-.29-3.61-.52-5.43s-.52-3.65-.86-5.48c-.34-1.84-.73-3.68-1.18-5.53-.46-1.85-.96-3.68-1.5-5.48-.55-1.81-1.14-3.6-1.78-5.37s-1.32-3.51-2.05-5.23-1.51-3.42-2.33-5.09c-.82-1.66-1.68-3.29-2.58-4.88-.89-1.59-1.83-3.15-2.81-4.66s-1.99-2.99-3.05-4.42c-1.05-1.43-2.14-2.82-3.26-4.16-1.13-1.35-2.28-2.63-3.45-3.84-1.18-1.21-2.38-2.36-3.6-3.44-1.22-1.07-2.46-2.08-3.73-3.02-1.26-.94-2.55-1.8-3.85-2.61l-25.19-15.45,7.01,94.12,22.61,16.8c1.17.87,2.31,1.65,3.43,2.35,1.12.71,2.21,1.33,3.28,1.87,1.08.55,2.12,1.01,3.14,1.38,1.03.38,2.03.67,3,.88.98.21,1.93.33,2.84.38.92.05,1.8.02,2.65-.09.85-.12,1.66-.31,2.45-.59.78-.27,1.53-.64,2.25-1.08s1.4-.97,2.05-1.57c.64-.61,1.25-1.3,1.82-2.07s1.09-1.62,1.58-2.56c.49-.95.94-1.97,1.35-3.09.41-1.11.77-2.31,1.08-3.58.31-1.28.57-2.63.78-4.07.2-1.44.36-2.96.46-4.56Z"/>
        <path class="cls-2" d="M129.42,31.53c.21.34.34.67.39,1.01.05.35,0,.69-.13,1.02-.13.34-.36.67-.68,1s-.73.65-1.23.97c-.51.33-1.11.64-1.8.96-.32.15-.66.28-.99.41-.34.13-.69.26-1.04.37s-.7.22-1.07.31c-.36.1-.73.18-1.1.26-.38.08-.76.14-1.15.19-.4.05-.8.09-1.21.11-.41.03-.83.04-1.26.04-.43,0-.87-.02-1.32-.05s-.91-.08-1.38-.14c-.47-.05-.95-.13-1.44-.22s-.99-.19-1.5-.31-1.03-.26-1.56-.4c-.53-.15-1.08-.32-1.63-.51-.56-.18-1.13-.39-1.71-.61s-1.18-.46-1.79-.72c-.6-.26-1.22-.53-1.85-.83l-7.42,3.25c.75.36,1.46.72,2.11,1.06s1.25.68,1.8,1,1.05.63,1.49.93.83.59,1.17.87c.34.27.64.54.9.8s.49.52.67.77c.19.24.34.48.45.72.11.23.19.46.22.67.04.22.04.43,0,.64-.03.21-.09.41-.19.61s-.23.39-.39.58-.36.37-.59.55c-.22.18-.47.35-.74.53-.26.18-.55.35-.85.53-.3.17-.63.35-.97.52-.34.18-.7.35-1.08.52-.3.14-.61.27-.94.39s-.67.24-1.02.35c-.36.1-.73.21-1.11.3s-.78.18-1.18.26c-.41.08-.83.15-1.25.21-.43.06-.86.11-1.3.15-.44.03-.88.06-1.34.08-.45.02-.91.03-1.38.02-.47,0-.94-.01-1.41-.04s-.95-.07-1.42-.12c-.48-.05-.95-.11-1.43-.19-.48-.07-.96-.16-1.44-.26-.49-.1-.97-.21-1.44-.34-.47-.14-.93-.28-1.39-.44-.46-.17-.91-.34-1.36-.54-.45-.19-.89-.39-1.32-.62-.39-.2-.75-.39-1.08-.59s-.63-.39-.9-.59-.51-.39-.72-.59-.39-.39-.54-.59c-.16-.19-.29-.38-.41-.58-.12-.19-.21-.38-.29-.57-.08-.2-.14-.39-.19-.58-.04-.19-.06-.38-.07-.56-.01-.19,0-.38.02-.57.03-.18.06-.37.11-.55.05-.19.12-.37.2-.55.08-.19.17-.37.28-.55.1-.18.21-.36.32-.54.11-.17.23-.35.35-.53.12-.17.24-.34.37-.52.13-.17.26-.34.4-.51.12-.16.2-.32.24-.47.04-.16.04-.31.01-.46-.04-.16-.11-.31-.22-.46-.11-.16-.26-.31-.45-.46-.06-.05-.12-.1-.19-.14-.06-.05-.13-.09-.2-.14-.07-.04-.15-.09-.22-.13-.08-.04-.16-.08-.25-.13-.17-.08-.36-.17-.57-.25-.2-.08-.42-.16-.65-.23s-.47-.14-.73-.21c-.25-.07-.52-.13-.8-.19l-6.26-1.31c-.48.38-.94.76-1.37,1.13-.43.38-.83.75-1.2,1.13-.37.37-.71.74-1.02,1.11-.31.36-.59.73-.85,1.09-.25.37-.47.73-.65,1.09-.19.37-.34.73-.46,1.09-.11.36-.19.73-.23,1.09-.05.37-.06.73-.03,1.09.03.37.1.73.21,1.1.1.36.25.73.44,1.09.19.37.42.74.7,1.1.27.37.58.74.94,1.1.35.37.76.74,1.21,1.12.45.37.95.75,1.5,1.13s1.15.77,1.8,1.16,1.35.78,2.1,1.17c.69.36,1.4.71,2.13,1.04.74.33,1.49.64,2.26.94.78.3,1.57.58,2.38.85.82.26,1.66.51,2.51.74.86.23,1.72.44,2.59.63s1.75.35,2.64.5c.89.14,1.79.26,2.69.36.91.11,1.82.18,2.74.24s1.84.09,2.76.1c.91,0,1.83-.01,2.75-.06.92-.04,1.84-.1,2.75-.19.92-.1,1.84-.21,2.75-.35s1.81-.31,2.69-.51c.89-.2,1.75-.42,2.61-.68.85-.26,1.69-.54,2.51-.85.82-.32,1.63-.66,2.41-1.03.93-.43,1.75-.87,2.48-1.33.72-.45,1.35-.91,1.87-1.38s.95-.95,1.28-1.44c.32-.48.55-.98.69-1.49.13-.5.16-1.01.09-1.54-.07-.52-.23-1.05-.49-1.59s-.62-1.09-1.07-1.65-1-1.12-1.64-1.7c.51.13,1.02.25,1.53.36s1.02.21,1.52.31c.51.09,1.01.18,1.51.25.51.08,1.01.15,1.51.21s.99.11,1.49.15c.49.04.98.07,1.48.09.49.02.97.02,1.46.02s.97-.02,1.45-.05c.48-.02.96-.06,1.44-.1.48-.05.96-.11,1.44-.18s.95-.15,1.43-.25c.48-.09.96-.19,1.43-.3.47-.12.95-.25,1.42-.39s.94-.29,1.41-.46.94-.35,1.41-.54c.46-.19.93-.4,1.4-.61.53-.25,1.03-.51,1.48-.77.46-.27.88-.54,1.26-.82s.73-.57,1.03-.87c.31-.29.58-.6.81-.91.22-.31.41-.62.56-.94s.26-.64.34-.96c.07-.33.1-.65.1-.98s-.05-.67-.13-1.01c-.08-.33-.2-.67-.36-1.01-.16-.33-.35-.67-.59-1.01-.23-.33-.51-.67-.82-1.01s-.66-.67-1.05-1.01-.81-.67-1.28-1-.97-.66-1.52-.98c-.54-.32-1.12-.64-1.74-.96-.62-.31-1.28-.62-1.97-.93-.67-.3-1.35-.58-2.04-.84-.68-.27-1.38-.52-2.08-.75-.71-.24-1.42-.46-2.14-.67-.73-.21-1.46-.4-2.2-.57-.74-.18-1.49-.34-2.24-.49-.75-.14-1.5-.27-2.26-.38s-1.53-.21-2.29-.29c-.77-.08-1.54-.14-2.32-.19-.78-.04-1.56-.07-2.34-.08-.78-.02-1.57-.01-2.36,0s-1.58.06-2.38.12c-.8.05-1.6.13-2.41.22s-1.62.2-2.42.33c-.81.13-1.61.28-2.42.45-.8.17-1.6.36-2.41.57-.8.21-1.6.44-2.41.69l4.24,2.78c.1.07.19.13.29.18.1.06.19.12.29.17.1.06.2.11.3.16.09.05.19.1.29.14.18.09.37.16.55.23.19.08.37.14.56.2.18.05.37.1.56.14.18.05.37.08.56.11.28.04.59.07.91.08s.66.01,1.02-.01.73-.06,1.13-.11c.39-.05.8-.11,1.22-.19.31-.08.63-.14.94-.21.32-.06.64-.11.97-.16.32-.05.65-.09.98-.13s.66-.07,1-.09c.34-.03.68-.05,1.02-.06s.68-.01,1.03-.01.69,0,1.03.02c.35.01.7.03,1.05.06.35.02.7.06,1.05.1.35.03.69.08,1.04.13.34.06.69.12,1.03.18.34.07.68.14,1.02.22s.67.16,1,.26c.33.09.66.19.98.3s.64.22.95.35c.32.12.63.25.93.39.66.3,1.25.6,1.76.91s.94.63,1.3.95.64.64.84.97ZM267.57,56.86l-132.12,76.94L1.98,56.74,134.48,1.85l133.09,55.01ZM210.21,71.62c.1-.73.13-1.46.07-2.19s-.19-1.46-.4-2.2c-.21-.72-.49-1.45-.85-2.17s-.79-1.43-1.3-2.15c-.51-.71-1.09-1.41-1.74-2.12-.65-.7-1.37-1.4-2.17-2.09-.79-.7-1.65-1.38-2.58-2.05-.93-.66-1.93-1.32-3-1.96s-2.2-1.27-3.41-1.89c-1.2-.62-2.48-1.22-3.82-1.82l-25.93-11.47-61.29,29.63,26.05,13.66c1.35.71,2.73,1.38,4.13,2.01s2.83,1.22,4.29,1.76c1.46.55,2.94,1.06,4.44,1.52,1.51.47,3.04.89,4.6,1.27s3.12.71,4.68,1.01c1.56.29,3.13.54,4.69.74,1.57.21,3.14.37,4.7.49,1.57.11,3.13.18,4.7.21,1.56.03,3.11.02,4.65-.04s3.06-.16,4.57-.31c1.51-.14,3-.33,4.47-.57,1.48-.23,2.94-.51,4.38-.82,1.44-.32,2.84-.68,4.2-1.09,1.36-.4,2.68-.84,3.96-1.32,1.28-.49,2.52-1.01,3.71-1.58,1.2-.56,2.35-1.16,3.47-1.81,1.1-.64,2.13-1.29,3.06-1.96.93-.66,1.78-1.34,2.55-2.03.76-.69,1.43-1.39,2.02-2.1.6-.71,1.1-1.44,1.53-2.17.42-.73.77-1.46,1.03-2.2.26-.73.44-1.46.54-2.19Z"/>
        <path class="cls-3" d="M218.07,109.01c.23-.06.46-.11.69-.14.22-.03.44-.04.65-.04s.41,0,.61.04.39.08.57.14c.19.06.36.13.53.22.17.08.33.19.49.3.15.12.29.25.43.4.14.14.27.3.39.48.13.17.24.35.35.56.1.2.2.41.28.64.09.22.16.46.23.72.07.25.13.52.18.79.05.29.08.58.11.89s.04.63.05.96c0,.34,0,.69-.02,1.05s-.05.74-.09,1.13c-.09.84-.21,1.66-.38,2.47-.16.81-.37,1.61-.61,2.38-.24.78-.52,1.55-.84,2.29-.32.75-.68,1.49-1.08,2.21s-.83,1.4-1.3,2.05-.97,1.27-1.51,1.84c-.53.58-1.1,1.12-1.71,1.63s-1.26.99-1.94,1.43c-.32.2-.63.39-.93.56-.31.17-.61.32-.9.45s-.57.24-.85.33c-.27.09-.54.16-.8.21s-.5.07-.74.07c-.24-.01-.46-.05-.68-.12-.21-.06-.41-.16-.6-.29-.19-.12-.37-.28-.54-.47s-.32-.41-.47-.66c-.14-.26-.27-.55-.39-.87-.12-.33-.22-.69-.31-1.08-.09-.4-.17-.83-.24-1.29-.06-.47-.11-.98-.15-1.53-.03-.56-.05-1.16-.05-1.8s.01-1.33.05-2.06c.03-.74.07-1.52.14-2.34l-7.48,4.64c-.07,1.01-.16,1.97-.26,2.89-.09.92-.2,1.8-.32,2.63s-.25,1.62-.4,2.37c-.14.75-.29,1.45-.46,2.12-.16.66-.34,1.29-.52,1.9s-.37,1.19-.57,1.74c-.2.56-.41,1.09-.62,1.59-.22.5-.45.97-.68,1.42-.24.45-.48.87-.73,1.28-.26.41-.52.8-.79,1.17-.28.37-.56.72-.85,1.05s-.59.64-.9.94c-.31.29-.63.58-.96.86-.32.28-.66.56-1,.82-.34.27-.69.54-1.05.79-.36.26-.73.51-1.11.75-.29.2-.59.37-.88.53-.3.16-.59.3-.88.42s-.59.23-.88.32c-.29.08-.58.16-.86.21-.29.05-.57.09-.84.09-.28.01-.54,0-.8-.04-.26-.03-.51-.09-.75-.17-.25-.08-.48-.18-.71-.31-.23-.12-.45-.27-.65-.45-.21-.17-.4-.37-.58-.6-.18-.22-.35-.47-.5-.75-.16-.27-.3-.58-.44-.9-.13-.33-.24-.69-.33-1.09-.09-.39-.16-.81-.21-1.26-.05-.46-.08-.94-.09-1.46-.01-.51,0-1.06.03-1.64.02-.52.06-1.03.12-1.53.05-.5.13-.99.21-1.48.09-.49.19-.96.3-1.44.12-.47.25-.93.39-1.39.15-.45.3-.9.46-1.34.17-.45.34-.88.52-1.31s.37-.86.57-1.28.41-.83.62-1.24c.22-.4.44-.8.67-1.19.23-.4.47-.78.71-1.17.24-.38.49-.76.75-1.13s.52-.74.79-1.1c.26-.36.53-.71.8-1.07.27-.35.54-.7.81-1.04.27-.35.54-.69.82-1.03.27-.33.54-.67.82-1,.25-.31.47-.62.68-.95s.4-.67.57-1.02c.16-.35.31-.71.44-1.08.13-.38.23-.76.32-1.16.03-.13.06-.25.08-.38.02-.12.04-.25.06-.37s.03-.24.04-.36c.02-.13.03-.25.03-.37.02-.25.02-.5.02-.75-.01-.25-.03-.49-.05-.73-.03-.25-.07-.48-.13-.72-.05-.23-.11-.46-.18-.69l-1.66-5.14c-.73.71-1.44,1.42-2.13,2.14s-1.36,1.44-2.01,2.16c-.65.73-1.28,1.46-1.9,2.19-.61.73-1.2,1.47-1.78,2.21-.57.73-1.12,1.48-1.66,2.24-.53.75-1.04,1.52-1.54,2.29-.49.78-.96,1.56-1.42,2.36-.45.79-.88,1.6-1.29,2.41s-.8,1.63-1.17,2.47c-.36.83-.7,1.67-1.02,2.53-.32.85-.62,1.71-.89,2.58-.28.87-.53,1.76-.75,2.65-.23.88-.44,1.79-.62,2.71-.18.93-.34,1.86-.47,2.82-.14.95-.25,1.92-.34,2.9-.08.98-.15,1.98-.19,2.99-.04.92-.04,1.82-.02,2.68s.07,1.68.14,2.48c.08.79.19,1.55.32,2.29.13.73.29,1.42.48,2.09.19.66.41,1.28.65,1.86s.51,1.11.8,1.6.61.94.96,1.35c.34.4.71.77,1.11,1.09.39.32.82.59,1.26.81.45.23.91.41,1.41.54.49.13,1.01.21,1.55.25.54.03,1.1.02,1.69-.03.59-.06,1.2-.17,1.84-.35.63-.17,1.29-.4,1.97-.69.67-.28,1.38-.63,2.1-1.03s1.47-.86,2.24-1.37c.9-.6,1.77-1.24,2.6-1.93.83-.68,1.62-1.4,2.38-2.17s1.48-1.57,2.18-2.42c.69-.85,1.34-1.74,1.97-2.68.63-.93,1.22-1.92,1.78-2.94.56-1.03,1.09-2.11,1.59-3.23s.96-2.29,1.4-3.51.84-2.5,1.22-3.82c.08.4.18.77.28,1.13.11.35.22.69.34,1.01s.25.62.39.91c.13.29.28.55.43.8.16.26.32.48.5.69.17.21.36.39.56.55s.41.3.63.42.45.21.69.29c.24.07.5.12.76.15.27.03.55.04.84.03.29-.02.59-.05.91-.11.31-.06.64-.13.98-.23.33-.1.68-.23,1.05-.38s.75-.33,1.14-.53c.4-.2.81-.43,1.23-.68.43-.25.87-.53,1.32-.83.52-.35,1.03-.72,1.53-1.11.51-.39,1-.81,1.49-1.26.5-.44.98-.91,1.46-1.41s.95-1.02,1.41-1.56c.47-.55.92-1.12,1.36-1.7s.87-1.18,1.29-1.8.83-1.26,1.22-1.92c.4-.66.79-1.33,1.16-2.03.38-.7.74-1.4,1.08-2.13.35-.72.68-1.46.99-2.21.32-.75.62-1.51.91-2.29.28-.78.56-1.57.81-2.38.26-.81.5-1.63.72-2.46.22-.82.42-1.66.59-2.5.18-.84.34-1.69.48-2.55s.26-1.73.36-2.61c.09-.84.16-1.66.21-2.46.05-.79.08-1.56.08-2.31.01-.74-.01-1.46-.05-2.16-.05-.69-.11-1.36-.2-2.01-.09-.64-.2-1.25-.34-1.83-.14-.59-.3-1.13-.48-1.65-.19-.52-.4-1-.63-1.45s-.49-.87-.78-1.25c-.28-.38-.59-.73-.92-1.04s-.69-.59-1.08-.82c-.38-.24-.79-.44-1.23-.6s-.9-.29-1.39-.37c-.49-.09-1.01-.13-1.55-.13-.55.01-1.12.06-1.72.16-.6.09-1.22.24-1.88.43-.65.19-1.33.43-2.04.71l-1.64,7.92c-.03.17-.07.34-.09.51-.03.16-.06.32-.08.48-.03.15-.05.3-.07.45-.01.15-.03.29-.04.42-.03.26-.04.5-.04.72-.01.22,0,.43.01.62s.04.36.07.52.08.3.13.43c.08.19.18.35.32.49.13.13.3.24.49.32.18.07.4.12.65.15.24.02.51.01.81-.02ZM267.57,56.86l-19.46,141.98-113.23,87.85.57-152.89,132.12-76.94ZM224.01,175.31l2.87-25.78-58.73,40.24-1.09,26.72c-.06,1.29-.06,2.51-.02,3.66.05,1.14.14,2.22.28,3.23s.32,1.95.56,2.83c.23.87.51,1.68.83,2.42.33.74.7,1.41,1.1,2.01s.83,1.13,1.31,1.6c.47.47.98.87,1.52,1.21s1.12.61,1.74.82c.61.2,1.25.35,1.92.43s1.38.1,2.11.05c.73-.04,1.49-.15,2.28-.32.79-.16,1.6-.39,2.45-.68.84-.29,1.71-.64,2.59-1.05.89-.41,1.79-.89,2.72-1.42.92-.53,1.86-1.12,2.83-1.78.96-.65,1.94-1.36,2.94-2.13s1.98-1.57,2.95-2.4c.95-.82,1.89-1.67,2.81-2.56.92-.88,1.83-1.79,2.71-2.73s1.75-1.9,2.59-2.9c.85-.99,1.67-2,2.47-3.03.79-1.02,1.56-2.06,2.3-3.12.74-1.05,1.46-2.12,2.15-3.21.69-1.08,1.36-2.19,2.01-3.31.64-1.12,1.25-2.25,1.84-3.39s1.15-2.29,1.68-3.46,1.04-2.35,1.52-3.54.93-2.4,1.36-3.63c.43-1.22.82-2.44,1.17-3.67.36-1.22.68-2.45.96-3.68.29-1.23.53-2.47.75-3.7.21-1.24.38-2.48.52-3.73Z"/>
        <path class="cls-3" d="M226.88,149.53l-2.87,25.78c-.14,1.25-.31,2.49-.52,3.73-.22,1.23-.46,2.47-.75,3.7-.28,1.23-.6,2.46-.96,3.68-.35,1.23-.74,2.45-1.17,3.67-.43,1.23-.88,2.44-1.36,3.63s-.99,2.37-1.52,3.54-1.09,2.32-1.68,3.46-1.2,2.27-1.84,3.39c-.65,1.12-1.32,2.23-2.01,3.31-.69,1.09-1.41,2.16-2.15,3.21-.74,1.06-1.51,2.1-2.3,3.12-.8,1.03-1.62,2.04-2.47,3.03-.84,1-1.71,1.96-2.59,2.9s-1.79,1.85-2.71,2.73c-.92.89-1.86,1.74-2.81,2.56-.97.83-1.95,1.63-2.95,2.4s-1.98,1.48-2.94,2.13c-.97.66-1.91,1.25-2.83,1.78-.93.53-1.83,1.01-2.72,1.42-.88.41-1.75.76-2.59,1.05-.85.29-1.66.52-2.45.68-.79.17-1.55.28-2.28.32-.73.05-1.44.03-2.11-.05s-1.31-.23-1.92-.43c-.62-.21-1.2-.48-1.74-.82s-1.05-.74-1.52-1.21c-.48-.47-.91-1-1.31-1.6s-.77-1.27-1.1-2.01c-.32-.74-.6-1.55-.83-2.42-.24-.88-.42-1.82-.56-2.83s-.23-2.09-.28-3.23c-.04-1.15-.04-2.37.02-3.66l1.09-26.72,58.73-40.24ZM216.18,180.97l1.33-13-40.68,28.64-.7,13.32c-.05.83-.06,1.61-.04,2.34s.07,1.42.15,2.06c.09.64.2,1.24.34,1.79.15.56.32,1.06.53,1.53.2.46.44.88.69,1.26.26.37.55.71.86.99.31.29.65.53,1.01.73s.75.36,1.17.47c.41.12.85.19,1.31.22.46.02.95,0,1.46-.06s1.04-.16,1.6-.31,1.14-.34,1.75-.58c.6-.23,1.22-.51,1.87-.83.64-.32,1.31-.68,1.99-1.09.68-.4,1.39-.85,2.11-1.34s1.46-1.02,2.23-1.6c.76-.57,1.5-1.15,2.22-1.75s1.42-1.2,2.1-1.82c.69-.62,1.35-1.26,2-1.9.64-.65,1.27-1.31,1.88-1.98s1.2-1.35,1.77-2.04,1.12-1.38,1.64-2.09c.53-.7,1.04-1.41,1.52-2.13.49-.72.96-1.45,1.4-2.19.44-.73.87-1.47,1.27-2.22.4-.74.78-1.5,1.14-2.26.37-.75.71-1.52,1.03-2.29.32-.78.62-1.56.89-2.34.28-.79.53-1.58.76-2.36.23-.79.44-1.58.62-2.38.18-.79.33-1.58.46-2.38s.24-1.6.32-2.41Z"/>
        <path class="cls-2" d="M210.28,69.43c.06.73.03,1.46-.07,2.19s-.28,1.46-.54,2.19c-.26.74-.61,1.47-1.03,2.2-.43.73-.93,1.46-1.53,2.17-.59.71-1.26,1.41-2.02,2.1-.77.69-1.62,1.37-2.55,2.03-.93.67-1.96,1.32-3.06,1.96-1.12.65-2.27,1.25-3.47,1.81-1.19.57-2.43,1.09-3.71,1.58-1.28.48-2.6.92-3.96,1.32-1.36.41-2.76.77-4.2,1.09-1.44.31-2.9.59-4.38.82-1.47.24-2.96.43-4.47.57-1.51.15-3.03.25-4.57.31s-3.09.07-4.65.04c-1.57-.03-3.13-.1-4.7-.21-1.56-.12-3.13-.28-4.7-.49-1.56-.2-3.13-.45-4.69-.74-1.56-.3-3.12-.63-4.68-1.01s-3.09-.8-4.6-1.27c-1.5-.46-2.98-.97-4.44-1.52-1.46-.54-2.89-1.13-4.29-1.76s-2.78-1.3-4.13-2.01l-26.05-13.66,61.29-29.63,25.93,11.47c1.34.6,2.62,1.2,3.82,1.82,1.21.62,2.34,1.25,3.41,1.89s2.07,1.3,3,1.96c.93.67,1.79,1.35,2.58,2.05.8.69,1.52,1.39,2.17,2.09.65.71,1.23,1.41,1.74,2.12.51.72.94,1.43,1.3,2.15s.64,1.45.85,2.17c.21.74.34,1.47.4,2.2ZM193.93,67.26c.04-.47.03-.94-.04-1.42-.06-.47-.18-.93-.35-1.4-.17-.46-.39-.92-.66-1.38-.28-.46-.6-.91-.97-1.37-.37-.45-.8-.89-1.27-1.34-.47-.44-.99-.88-1.56-1.31s-1.19-.85-1.86-1.27-1.39-.83-2.16-1.23c-.76-.4-1.58-.8-2.44-1.19l-13.46-6.1-43.09,21.58,13.53,6.9c.86.44,1.74.85,2.64,1.24.89.39,1.8.75,2.72,1.09.92.33,1.85.63,2.8.91s1.9.53,2.87.75c.98.22,1.95.41,2.93.58.97.16,1.96.3,2.94.4.98.11,1.97.19,2.95.24.99.05,1.98.07,2.97.06s1.98-.04,2.96-.11c.98-.06,1.96-.16,2.94-.29.97-.12,1.95-.28,2.91-.46.97-.18,1.93-.4,2.88-.64s1.89-.51,2.82-.81c.92-.3,1.83-.62,2.73-.98.89-.35,1.77-.74,2.64-1.14.86-.41,1.72-.85,2.55-1.32.83-.46,1.61-.92,2.33-1.39.71-.47,1.37-.94,1.97-1.41.6-.48,1.15-.95,1.63-1.43.49-.48.92-.96,1.29-1.44.38-.48.69-.97.96-1.45.26-.48.46-.96.62-1.44.15-.47.24-.95.28-1.43Z"/>
        <path class="cls-3" d="M216.61,108.88c-.19-.08-.36-.19-.49-.32-.14-.14-.24-.3-.32-.49-.05-.13-.1-.27-.13-.43s-.06-.33-.07-.52-.02-.4-.01-.62c0-.22.01-.46.04-.72.01-.13.03-.27.04-.42.02-.15.04-.3.07-.45.02-.16.05-.32.08-.48.02-.17.06-.34.09-.51l1.64-7.92c.71-.28,1.39-.52,2.04-.71.66-.19,1.28-.34,1.88-.43.6-.1,1.17-.15,1.72-.16.54,0,1.06.04,1.55.13.49.08.95.21,1.39.37s.85.36,1.23.6c.39.23.75.51,1.08.82s.64.66.92,1.04c.29.38.55.8.78,1.25s.44.93.63,1.45c.18.52.34,1.06.48,1.65.14.58.25,1.19.34,1.83.09.65.15,1.32.2,2.01.04.7.06,1.42.05,2.16,0,.75-.03,1.52-.08,2.31-.05.8-.12,1.62-.21,2.46-.1.88-.22,1.75-.36,2.61s-.3,1.71-.48,2.55c-.17.84-.37,1.68-.59,2.5-.22.83-.46,1.65-.72,2.46-.25.81-.53,1.6-.81,2.38-.29.78-.59,1.54-.91,2.29-.31.75-.64,1.49-.99,2.21-.34.73-.7,1.43-1.08,2.13-.37.7-.76,1.37-1.16,2.03-.39.66-.8,1.3-1.22,1.92s-.85,1.22-1.29,1.8-.89,1.15-1.36,1.7c-.46.54-.93,1.06-1.41,1.56s-.96.97-1.46,1.41c-.49.45-.98.87-1.49,1.26-.5.39-1.01.76-1.53,1.11-.45.3-.89.58-1.32.83-.42.25-.83.48-1.23.68-.39.2-.77.38-1.14.53s-.72.28-1.05.38c-.34.1-.67.17-.98.23-.32.06-.62.09-.91.11-.29.01-.57,0-.84-.03-.26-.03-.52-.08-.76-.15-.24-.08-.47-.17-.69-.29s-.43-.26-.63-.42-.39-.34-.56-.55c-.18-.21-.34-.43-.5-.69-.15-.25-.3-.51-.43-.8-.14-.29-.27-.59-.39-.91s-.23-.66-.34-1.01c-.1-.36-.2-.73-.28-1.13-.38,1.32-.78,2.6-1.22,3.82s-.9,2.39-1.4,3.51-1.03,2.2-1.59,3.23c-.56,1.02-1.15,2.01-1.78,2.94-.63.94-1.28,1.83-1.97,2.68-.7.85-1.42,1.65-2.18,2.42s-1.55,1.49-2.38,2.17c-.83.69-1.7,1.33-2.6,1.93-.77.51-1.52.97-2.24,1.37s-1.43.75-2.1,1.03c-.68.29-1.34.52-1.97.69-.64.18-1.25.29-1.84.35-.59.05-1.15.06-1.69.03-.54-.04-1.06-.12-1.55-.25-.5-.13-.96-.31-1.41-.54-.44-.22-.87-.49-1.26-.81-.4-.32-.77-.69-1.11-1.09-.35-.41-.67-.86-.96-1.35s-.56-1.02-.8-1.6-.46-1.2-.65-1.86c-.19-.67-.35-1.36-.48-2.09-.13-.74-.24-1.5-.32-2.29-.07-.8-.12-1.62-.14-2.48s-.02-1.76.02-2.68c.04-1.01.11-2.01.19-2.99.09-.98.2-1.95.34-2.9.13-.96.29-1.89.47-2.82.18-.92.39-1.83.62-2.71.22-.89.47-1.78.75-2.65.27-.87.57-1.73.89-2.58.32-.86.66-1.7,1.02-2.53.37-.84.76-1.66,1.17-2.47s.84-1.62,1.29-2.41c.46-.8.93-1.58,1.42-2.36.5-.77,1.01-1.54,1.54-2.29.54-.76,1.09-1.51,1.66-2.24.58-.74,1.17-1.48,1.78-2.21.62-.73,1.25-1.46,1.9-2.19.65-.72,1.32-1.44,2.01-2.16s1.4-1.43,2.13-2.14l1.66,5.14c.07.23.13.46.18.69.06.24.1.47.13.72.02.24.04.48.05.73,0,.25,0,.5-.02.75,0,.12-.01.24-.03.37-.01.12-.02.24-.04.36s-.04.25-.06.37c-.02.13-.05.25-.08.38-.09.4-.19.78-.32,1.16-.13.37-.28.73-.44,1.08-.17.35-.36.69-.57,1.02s-.43.64-.68.95c-.28.33-.55.67-.82,1-.28.34-.55.68-.82,1.03-.27.34-.54.69-.81,1.04-.27.36-.54.71-.8,1.07-.27.36-.53.73-.79,1.1s-.51.75-.75,1.13c-.24.39-.48.77-.71,1.17-.23.39-.45.79-.67,1.19-.21.41-.42.82-.62,1.24s-.39.85-.57,1.28-.35.86-.52,1.31c-.16.44-.31.89-.46,1.34-.14.46-.27.92-.39,1.39-.11.48-.21.95-.3,1.44-.08.49-.16.98-.21,1.48-.06.5-.1,1.01-.12,1.53-.03.58-.04,1.13-.03,1.64.01.52.04,1,.09,1.46.05.45.12.87.21,1.26.09.4.2.76.33,1.09.14.32.28.63.44.9.15.28.32.53.5.75.18.23.37.43.58.6.2.18.42.33.65.45.23.13.46.23.71.31.24.08.49.14.75.17.26.04.52.05.8.04.27,0,.55-.04.84-.09.28-.05.57-.13.86-.21.29-.09.59-.2.88-.32s.58-.26.88-.42c.29-.16.59-.33.88-.53.38-.24.75-.49,1.11-.75.36-.25.71-.52,1.05-.79.34-.26.68-.54,1-.82.33-.28.65-.57.96-.86.31-.3.61-.61.9-.94s.57-.68.85-1.05c.27-.37.53-.76.79-1.17.25-.41.49-.83.73-1.28.23-.45.46-.92.68-1.42.21-.5.42-1.03.62-1.59.2-.55.39-1.13.57-1.74s.36-1.24.52-1.9c.17-.67.32-1.37.46-2.12.15-.75.28-1.54.4-2.37s.23-1.71.32-2.63c.1-.92.19-1.88.26-2.89l7.48-4.64c-.07.82-.11,1.6-.14,2.34-.04.73-.05,1.42-.05,2.06s.02,1.24.05,1.8c.04.55.09,1.06.15,1.53.07.46.15.89.24,1.29.09.39.19.75.31,1.08.12.32.25.61.39.87.15.25.3.47.47.66s.35.35.54.47c.19.13.39.23.6.29.22.07.44.11.68.12.24,0,.48-.02.74-.07s.53-.12.8-.21c.28-.09.56-.2.85-.33s.59-.28.9-.45c.3-.17.61-.36.93-.56.68-.44,1.33-.92,1.94-1.43s1.18-1.05,1.71-1.63c.54-.57,1.04-1.19,1.51-1.84s.9-1.33,1.3-2.05.76-1.46,1.08-2.21c.32-.74.6-1.51.84-2.29.24-.77.45-1.57.61-2.38.17-.81.29-1.63.38-2.47.04-.39.07-.77.09-1.13s.02-.71.02-1.05c-.01-.33-.02-.65-.05-.96s-.06-.6-.11-.89c-.05-.27-.11-.54-.18-.79-.07-.26-.14-.5-.23-.72-.08-.23-.18-.44-.28-.64-.11-.21-.22-.39-.35-.56-.12-.18-.25-.34-.39-.48-.14-.15-.28-.28-.43-.4-.16-.11-.32-.22-.49-.3-.17-.09-.34-.16-.53-.22-.18-.06-.37-.11-.57-.14s-.4-.04-.61-.04-.43,0-.65.04c-.23.03-.46.08-.69.14-.3.03-.57.04-.81.02-.25-.03-.47-.08-.65-.15Z"/>
        <path class="cls-1" d="M122.8,209.65c.01,1.77-.04,3.46-.14,5.07-.1,1.6-.26,3.12-.46,4.56-.21,1.44-.47,2.79-.78,4.07-.31,1.27-.67,2.47-1.08,3.58-.41,1.12-.86,2.14-1.35,3.09-.49.94-1.01,1.79-1.58,2.56s-1.18,1.46-1.82,2.07c-.65.6-1.33,1.13-2.05,1.57s-1.47.81-2.25,1.08c-.79.28-1.6.47-2.45.59-.85.11-1.73.14-2.65.09-.91-.05-1.86-.17-2.84-.38-.97-.21-1.97-.5-3-.88-1.02-.37-2.06-.83-3.14-1.38-1.07-.54-2.16-1.16-3.28-1.87-1.12-.7-2.26-1.48-3.43-2.35l-22.61-16.8-7.01-94.12,25.19,15.45c1.3.81,2.59,1.67,3.85,2.61,1.27.94,2.51,1.95,3.73,3.02,1.22,1.08,2.42,2.23,3.6,3.44,1.17,1.21,2.32,2.49,3.45,3.84,1.12,1.34,2.21,2.73,3.26,4.16,1.06,1.43,2.07,2.91,3.05,4.42s1.92,3.07,2.81,4.66c.9,1.59,1.76,3.22,2.58,4.88.82,1.67,1.6,3.37,2.33,5.09s1.41,3.46,2.05,5.23,1.23,3.56,1.78,5.37c.54,1.8,1.04,3.63,1.5,5.48.45,1.85.84,3.69,1.18,5.53.34,1.83.63,3.66.86,5.48s.4,3.63.52,5.43c.11,1.79.17,3.58.18,5.36ZM109.46,204.34c.04-1.2.04-2.46.02-3.78-.03-1.32-.09-2.64-.18-3.94-.09-1.31-.21-2.6-.36-3.89s-.33-2.57-.55-3.84c-.21-1.28-.46-2.54-.73-3.79-.28-1.25-.58-2.49-.92-3.7-.33-1.22-.69-2.41-1.08-3.58s-.81-2.32-1.25-3.45c-.45-1.13-.92-2.23-1.42-3.32-.5-1.07-1.02-2.12-1.56-3.14-.55-1.03-1.12-2.02-1.71-2.99-.6-.96-1.22-1.9-1.86-2.81s-1.3-1.79-1.99-2.63c-.69-.85-1.39-1.65-2.11-2.42-.72-.76-1.46-1.49-2.22-2.17s-1.53-1.33-2.32-1.93c-.8-.61-1.6-1.17-2.43-1.69l-12.85-8.16,4.07,66.62,11.9,8.62c.76.56,1.5,1.05,2.23,1.49.72.44,1.42.82,2.11,1.15.68.32,1.35.59,2,.79.64.21,1.27.36,1.88.45.61.1,1.2.14,1.76.12.57-.02,1.11-.09,1.63-.23.53-.13,1.02-.31,1.5-.56.47-.25.93-.55,1.36-.91s.83-.77,1.21-1.25.74-1.01,1.06-1.61c.33-.59.63-1.25.91-1.97.27-.72.52-1.49.74-2.33s.41-1.74.57-2.7c.16-.95.29-1.97.39-3.04.1-1.08.17-2.22.2-3.41Z"/>
        <path class="cls-2" d="M105.22,27.58c-.19-.03-.38-.06-.56-.11-.19-.04-.38-.09-.56-.14-.19-.06-.37-.12-.56-.2-.18-.07-.37-.14-.55-.23-.1-.04-.2-.09-.29-.14-.1-.05-.2-.1-.3-.16-.1-.05-.19-.11-.29-.17-.1-.05-.19-.11-.29-.18l-4.24-2.78c.81-.25,1.61-.48,2.41-.69.81-.21,1.61-.4,2.41-.57.81-.17,1.61-.32,2.42-.45.8-.13,1.61-.24,2.42-.33s1.61-.17,2.41-.22c.8-.06,1.59-.1,2.38-.12s1.58-.03,2.36,0c.78,0,1.56.04,2.34.08.78.05,1.55.11,2.32.19.76.08,1.53.18,2.29.29s1.51.24,2.26.38c.75.15,1.5.31,2.24.49.74.17,1.47.36,2.2.57.72.21,1.43.43,2.14.67.7.23,1.4.48,2.08.75.69.26,1.37.54,2.04.84.69.31,1.35.62,1.97.93.62.32,1.2.64,1.74.96.55.32,1.05.65,1.52.98s.89.66,1.28,1,.74.67,1.05,1.01.59.68.82,1.01c.24.34.43.68.59,1.01.16.34.28.68.36,1.01.08.34.13.68.13,1.01s-.03.65-.1.98c-.08.32-.19.64-.34.96s-.34.63-.56.94c-.23.31-.5.62-.81.91-.3.3-.65.59-1.03.87s-.8.55-1.26.82c-.45.26-.95.52-1.48.77-.47.21-.94.42-1.4.61-.47.19-.94.37-1.41.54s-.94.32-1.41.46-.95.27-1.42.39c-.47.11-.95.21-1.43.3-.48.1-.95.18-1.43.25s-.96.13-1.44.18c-.48.04-.96.08-1.44.1-.48.03-.96.05-1.45.05s-.97,0-1.46-.02c-.5-.02-.99-.05-1.48-.09-.5-.04-.99-.09-1.49-.15s-1-.13-1.51-.21c-.5-.07-1-.16-1.51-.25-.5-.1-1.01-.2-1.52-.31s-1.02-.23-1.53-.36c.64.58,1.19,1.14,1.64,1.7s.81,1.11,1.07,1.65.42,1.07.49,1.59c.07.53.04,1.04-.09,1.54-.14.51-.37,1.01-.69,1.49-.33.49-.76.97-1.28,1.44s-1.15.93-1.87,1.38c-.73.46-1.55.9-2.48,1.33-.78.37-1.59.71-2.41,1.03-.82.31-1.66.59-2.51.85-.86.26-1.72.48-2.61.68-.88.2-1.78.37-2.69.51s-1.83.25-2.75.35c-.91.09-1.83.15-2.75.19-.92.05-1.84.06-2.75.06-.92-.01-1.84-.04-2.76-.1s-1.83-.13-2.74-.24c-.9-.1-1.8-.22-2.69-.36-.89-.15-1.77-.31-2.64-.5s-1.73-.4-2.59-.63c-.85-.23-1.69-.48-2.51-.74-.81-.27-1.6-.55-2.38-.85-.77-.3-1.52-.61-2.26-.94-.73-.33-1.44-.68-2.13-1.04-.75-.39-1.45-.78-2.1-1.17s-1.25-.78-1.8-1.16-1.05-.76-1.5-1.13c-.45-.38-.86-.75-1.21-1.12-.36-.36-.67-.73-.94-1.1-.28-.36-.51-.73-.7-1.1-.19-.36-.34-.73-.44-1.09-.11-.37-.18-.73-.21-1.1-.03-.36-.02-.72.03-1.09.04-.36.12-.73.23-1.09.12-.36.27-.72.46-1.09.18-.36.4-.72.65-1.09.26-.36.54-.73.85-1.09.31-.37.65-.74,1.02-1.11.37-.38.77-.75,1.2-1.13.43-.37.89-.75,1.37-1.13l6.26,1.31c.28.06.55.12.8.19.26.07.5.14.73.21s.45.15.65.23c.21.08.4.17.57.25.09.05.17.09.25.13.07.04.15.09.22.13.07.05.14.09.2.14.07.04.13.09.19.14.19.15.34.3.45.46.11.15.18.3.22.46.03.15.03.3-.01.46-.04.15-.12.31-.24.47-.14.17-.27.34-.4.51-.13.18-.25.35-.37.52-.12.18-.24.36-.35.53-.11.18-.22.36-.32.54-.11.18-.2.36-.28.55-.08.18-.15.36-.2.55-.05.18-.08.37-.11.55-.02.19-.03.38-.02.57.01.18.03.37.07.56.05.19.11.38.19.58.08.19.17.38.29.57.12.2.25.39.41.58.15.2.33.39.54.59s.45.39.72.59.57.39.9.59.69.39,1.08.59c.43.23.87.43,1.32.62.45.2.9.37,1.36.54.46.16.92.3,1.39.44.47.13.95.24,1.44.34.48.1.96.19,1.44.26.48.08.95.14,1.43.19.47.05.95.09,1.42.12s.94.04,1.41.04c.47.01.93,0,1.38-.02.46-.02.9-.05,1.34-.08.44-.04.87-.09,1.3-.15.42-.06.84-.13,1.25-.21.4-.08.8-.17,1.18-.26s.75-.2,1.11-.3c.35-.11.69-.23,1.02-.35s.64-.25.94-.39c.38-.17.74-.34,1.08-.52.34-.17.67-.35.97-.52.3-.18.59-.35.85-.53.27-.18.52-.35.74-.53.23-.18.43-.36.59-.55s.29-.38.39-.58.16-.4.19-.61c.04-.21.04-.42,0-.64-.03-.21-.11-.44-.22-.67-.11-.24-.26-.48-.45-.72-.18-.25-.41-.51-.67-.77s-.56-.53-.9-.8c-.34-.28-.73-.57-1.17-.87s-.94-.61-1.49-.93-1.15-.66-1.8-1-1.36-.7-2.11-1.06l7.42-3.25c.63.3,1.25.57,1.85.83.61.26,1.21.5,1.79.72s1.15.43,1.71.61c.55.19,1.1.36,1.63.51.53.14,1.05.28,1.56.4s1.01.22,1.5.31.97.17,1.44.22c.47.06.93.11,1.38.14s.89.04,1.32.05c.43,0,.85,0,1.26-.04.41-.02.81-.06,1.21-.11.39-.05.77-.11,1.15-.19.37-.08.74-.16,1.1-.26.37-.09.72-.2,1.07-.31s.7-.24,1.04-.37c.33-.13.67-.26.99-.41.69-.32,1.29-.63,1.8-.96.5-.32.91-.64,1.23-.97s.55-.66.68-1c.13-.33.18-.67.13-1.02-.05-.34-.18-.67-.39-1.01-.2-.33-.48-.65-.84-.97s-.79-.64-1.3-.95-1.1-.61-1.76-.91c-.3-.14-.61-.27-.93-.39-.31-.13-.63-.24-.95-.35s-.65-.21-.98-.3c-.33-.1-.66-.18-1-.26s-.68-.15-1.02-.22c-.34-.06-.69-.12-1.03-.18-.35-.05-.69-.1-1.04-.13-.35-.04-.7-.08-1.05-.1-.35-.03-.7-.05-1.05-.06-.34-.02-.69-.02-1.03-.02s-.69,0-1.03.01-.68.03-1.02.06c-.34.02-.67.05-1,.09s-.66.08-.98.13c-.33.05-.65.1-.97.16-.31.07-.63.13-.94.21-.42.08-.83.14-1.22.19-.4.05-.77.09-1.13.11s-.7.02-1.02.01-.63-.04-.91-.08Z"/>
        <path class="cls-1" d="M43.51,153.05c.9,1.02,1.75,2.07,2.55,3.13.8,1.07,1.56,2.15,2.27,3.26.7,1.11,1.36,2.24,1.97,3.39.6,1.14,1.16,2.31,1.67,3.5.5,1.18.96,2.38,1.37,3.6s.77,2.46,1.08,3.71c.3,1.25.56,2.51.78,3.79.21,1.28.37,2.57.48,3.87.1,1.11.16,2.16.18,3.15s.01,1.92-.04,2.8c-.04.87-.13,1.68-.24,2.44-.12.75-.27,1.45-.46,2.09-.19.63-.4,1.22-.64,1.75-.24.54-.5,1.02-.79,1.46-.28.43-.59.81-.93,1.14-.33.34-.69.62-1.07.85s-.78.42-1.2.56-.86.23-1.31.28c-.46.04-.93.04-1.43,0-.49-.05-1-.14-1.53-.27-.53-.14-1.07-.32-1.62-.53-.55-.22-1.11-.47-1.68-.77-.57-.29-1.15-.63-1.74-1-.58-.37-1.18-.79-1.79-1.24-.66-.49-1.31-1-1.93-1.52s-1.23-1.05-1.81-1.59c-.59-.55-1.16-1.1-1.7-1.67-.55-.57-1.08-1.16-1.59-1.76-.51-.59-1.01-1.2-1.5-1.83-.48-.63-.95-1.27-1.41-1.93-.47-.67-.91-1.35-1.35-2.04-.43-.7-.86-1.41-1.27-2.14s-.81-1.48-1.21-2.24c-.39-.77-.77-1.55-1.14-2.35-.37-.79-.74-1.61-1.09-2.44-.35-.84-.69-1.69-1.03-2.55-.33-.88-.66-1.77-.98-2.68-.33-.92-.65-1.85-.96-2.81-.32-.96-.63-1.94-.93-2.94s-.6-2.03-.9-3.08l3.54.07c.16,0,.32.01.48.04s.32.08.48.13c.17.06.33.13.49.22.16.08.32.18.48.3.07.05.15.11.22.17.08.06.16.12.23.19.08.06.15.13.23.2.07.07.15.15.22.23.24.25.47.51.68.8.21.28.42.58.6.9.19.32.37.66.54,1.02.16.35.31.73.46,1.12.15.43.3.86.46,1.29.15.43.31.86.47,1.29s.32.86.49,1.29c.16.43.33.86.5,1.29s.35.85.53,1.27c.18.43.36.84.55,1.25.19.42.39.82.59,1.22.2.41.41.8.62,1.19.21.4.43.78.66,1.16.22.38.46.75.69,1.12.24.37.49.73.74,1.08s.51.7.77,1.04c.27.34.54.67.83.99s.58.63.89.92c.3.3.62.58.94.86.33.27.66.53,1.01.78.38.29.76.53,1.12.75.36.21.7.4,1.03.54.33.15.65.27.95.35s.59.12.87.13c.27.02.53,0,.77-.04.25-.03.48-.1.7-.18.22-.09.43-.2.62-.33.19-.14.37-.3.54-.48.17-.19.32-.39.46-.62.14-.22.27-.46.38-.72s.21-.54.3-.83c.09-.3.16-.62.22-.96.06-.33.1-.68.14-1.04.03-.36.05-.72.06-1.1s.01-.77,0-1.16c-.01-.4-.04-.81-.08-1.23-.05-.53-.11-1.06-.18-1.58s-.14-1.03-.22-1.54c-.09-.51-.18-1.02-.28-1.52s-.2-.99-.32-1.48c-.11-.49-.24-.98-.39-1.46-.15-.49-.32-.97-.51-1.45-.18-.48-.39-.96-.61-1.44-.22-.47-.46-.95-.72-1.42s-.54-.94-.84-1.41-.63-.94-.98-1.41-.72-.94-1.11-1.4c-.4-.47-.81-.94-1.25-1.41-.44-.46-.91-.94-1.41-1.41-.51-.47-1.04-.94-1.61-1.42-.57-.47-1.17-.94-1.8-1.42-.63-.47-1.29-.95-1.98-1.42l-1.25-11.21c.58.38,1.13.73,1.65,1.04.53.3,1.03.57,1.51.81.47.24.92.43,1.34.59.43.17.82.29,1.19.38.37.08.72.14,1.05.17s.64.02.93-.01c.28-.03.55-.1.79-.19.25-.1.47-.22.67-.38s.38-.34.55-.55c.16-.21.31-.45.43-.72.13-.27.24-.56.32-.89.09-.32.16-.67.21-1.05s.09-.78.11-1.2c.03-.42.04-.86.04-1.32-.01-.46-.02-.94-.05-1.43-.02-.5-.06-1.02-.12-1.56-.11-1.14-.26-2.25-.46-3.33-.19-1.07-.43-2.11-.71-3.12-.28-1-.6-1.97-.96-2.9s-.77-1.82-1.21-2.67c-.45-.85-.92-1.65-1.41-2.39s-1.01-1.43-1.55-2.05c-.54-.63-1.1-1.2-1.69-1.72-.58-.51-1.19-.97-1.82-1.36-.29-.19-.57-.35-.85-.49-.27-.14-.54-.26-.8-.35-.25-.1-.5-.17-.75-.23-.24-.05-.48-.08-.7-.1-.23,0-.45.01-.66.03-.21.03-.41.07-.6.14-.2.06-.38.14-.56.24s-.35.21-.51.35c-.16.13-.31.28-.46.44-.14.17-.28.35-.4.54-.13.2-.25.41-.35.63-.11.23-.21.47-.3.73-.09.25-.17.51-.24.79-.07.29-.14.58-.19.89s-.09.63-.13.96c-.03.34-.06.69-.07,1.05-.05.44-.12.83-.19,1.17-.08.34-.17.64-.27.88-.1.25-.21.44-.34.59s-.27.25-.43.3c-.1.03-.21.05-.32.04-.12,0-.25-.02-.39-.06-.13-.04-.28-.1-.43-.17-.16-.08-.32-.17-.49-.29-.09-.06-.19-.12-.29-.19-.09-.07-.19-.15-.3-.23-.1-.08-.2-.17-.31-.26s-.22-.19-.33-.29l-5.03-4.68c-.05-1.08-.08-2.12-.08-3.11s.02-1.94.07-2.84c.06-.9.14-1.76.24-2.57.11-.81.24-1.57.4-2.29s.34-1.39.54-2.01c.21-.63.44-1.21.69-1.74.24-.54.52-1.03.81-1.47.3-.44.61-.84.95-1.19.35-.35.71-.65,1.09-.91.39-.26.79-.47,1.22-.63.42-.17.87-.29,1.34-.36s.96-.1,1.47-.07c.51.02,1.04.09,1.59.21.54.12,1.11.28,1.69.49s1.17.46,1.78.76c.62.3,1.25.65,1.89,1.05.67.41,1.33.85,1.99,1.33.65.48,1.29.99,1.92,1.54.63.54,1.25,1.12,1.86,1.74.61.61,1.21,1.26,1.8,1.94.59.67,1.15,1.37,1.71,2.09.55.73,1.09,1.47,1.61,2.23s1.02,1.55,1.51,2.35c.48.8.95,1.63,1.4,2.47s.88,1.7,1.29,2.56c.41.87.8,1.75,1.17,2.63.37.89.71,1.79,1.04,2.69.32.91.63,1.82.91,2.75.28.92.54,1.85.77,2.77s.44,1.83.62,2.75c.18.91.33,1.82.46,2.73.13.9.23,1.8.31,2.7.07.78.13,1.54.16,2.25.04.72.07,1.4.07,2.05,0,.65,0,1.27-.02,1.85s-.06,1.13-.12,1.64c-.05.51-.12,1-.2,1.46s-.18.9-.28,1.3c-.11.41-.23.78-.36,1.13s-.28.68-.44.97c-.15.3-.32.57-.51.82-.18.25-.37.47-.58.67-.21.19-.43.37-.67.51-.23.15-.48.27-.74.37s-.53.18-.81.25c-.28.06-.56.1-.86.13-.3.02-.61.03-.92.02-.32-.01-.65-.04-.98-.09Z"/>
      </g>
      <g>
        <polyline class="cls-4" points="267.57 56.86 248.11 198.84 134.88 286.69"/>
        <polyline class="cls-4" points="1.98 56.74 134.48 1.85 267.57 56.86 135.45 133.8"/>
        <polygon class="cls-4" points="135.45 133.8 134.88 286.69 20.7 198.94 1.98 56.74 135.45 133.8"/>
      </g>
    </g>
  </g>
</svg>