<?xml version="1.0" encoding="UTF-8"?>
<svg xmlns="http://www.w3.org/2000/svg" viewBox="0 0 223.41 226.59">
  <defs>
    <style>
      .cls-1, .cls-2, .cls-3 {
        stroke: #231f20;
      }

      .cls-1, .cls-2, .cls-3, .cls-4, .cls-5 {
        stroke-miterlimit: 10;
      }

      .cls-1, .cls-4, .cls-6 {
        fill: #070509;
      }

      .cls-2 {
        fill: #705941;
      }

      .cls-3, .cls-7 {
        fill: #231f20;
      }

      .cls-7, .cls-6 {
        stroke-width: 0px;
      }

      .cls-4 {
        stroke: #070509;
      }

      .cls-5 {
        fill: #ecdcc2;
        stroke: #ecdcc2;
      }
    </style>
  </defs>
  <g id="mirror_mirror_on_the_wall" data-name="mirror mirror on the wall">
    <g>
      <polyline class="cls-2" points="112.12 51.82 128.69 51.25 144.69 61.13 180.46 28.66 176.22 87.96 211.99 110.54 177.16 102.54 206.34 136.43 174.34 140.66 192.69 195.72 111.75 197.71"/>
      <polygon class="cls-5" points="130.22 110.13 164.46 90.54 156.34 73.43 168.22 82.31 179.03 35.26 175.31 88.56 206.81 108.37 174.69 100.96 204.34 135.72 173.87 139.73 163.04 130.78 133.93 143.13 130.93 141.72 138.51 128.31 130.22 110.13"/>
      <polygon class="cls-1" points="168.22 82.31 149.4 65.84 178.1 36.19 168.22 82.31"/>
      <polygon class="cls-1" points="123.43 52.16 123.16 63.01 116.99 68.84 118.22 52.43 123.43 52.16"/>
      <polygon class="cls-1" points="131.9 54.01 131.46 70.6 123.69 74.84 128.63 68.84 128.63 52.16 131.9 54.01"/>
      <polygon class="cls-1" points="139.22 58.6 139.4 70.6 147.69 80.13 135.69 75.37 135.16 55.6 139.22 58.6"/>
      <path class="cls-7" d="M151.42,84.22c-4.73-1.1-11.95-2.51-16.78-3.46,0,0-.44-.09-.44-.09-4.08,2.38-7.8,5.37-10.6,9.22,0,0,.18.24.18.24,3.23-1.11,6.19-2.8,8.91-4.83.88-.68,1.71-1.44,2.56-2.17l-.97.25c2.82.21,10.08.76,12.82.9,1.43.09,2.85.17,4.28.23l.04-.3h0Z"/>
      <path class="cls-7" d="M118.03,93.2c-.16,2.66-.5,5.38-.3,8.01.2.87.48,1.74,1.1,2.58h.2c.93-1.8.79-3.54.3-5.36-.3-1.76-.67-3.51-1.09-5.24,0,0-.2.01-.2.01h0Z"/>
      <path class="cls-7" d="M113.71,123.81c-.24,3.21-.59,7.68-.76,10.84,0,0-.02.25-.02.25,0,0,.2.23.2.23,2.64,2.97,5.3,6.45,8.39,8.94,1.05.88,2.13,1.74,3.32,2.48l.14-.14c-2.1-3.57-4.84-6.65-7.92-9.4,0,0-2.96-2.83-2.96-2.83l.19.48c-.06-1.81-.08-3.62-.17-5.43l-.23-5.43h-.2Z"/>
      <path class="cls-7" d="M129.51,110.49c.33,3.27,1.56,6.15,2.97,9.06,0,0,3.88,8.65,3.88,8.65l.02-.86-3.66,7.19-.92,1.8c-.24.53-.74,1.25-.85,1.83-.36,1.32-.72,2.65-1.01,4.02,1.33-1.57,2.82-3.04,3.64-4.94.58-1.14,3.92-7.7,4.58-8.99,0,0,.22-.43.22-.43l-.2-.44-3.88-8.65c-1.24-2.98-2.57-5.82-4.79-8.24h0Z"/>
      <path class="cls-7" d="M164.19,130.69c-2.82.12-5.45.83-8.03,1.93,0,0-7.68,2.87-7.68,2.87-.02,0-.07.03-.09.04,0,0-7.59,3.75-7.59,3.75-2.65,1.18-5.09,2.54-7.15,4.65,2.92-.36,5.49-1.46,8.03-2.85-.05.02,7.92-3.9,7.5-3.71,0,0,7.68-2.87,7.68-2.87,2.67-.85,5.11-2.05,7.33-3.8h0Z"/>
      <path class="cls-7" d="M160.46,97.33c-1.65,1.63-3.99,4.06-5.64,5.75,0,0,.28-.22.28-.22-6.1,2.62-12.76,4.33-17.53,9.25,0,0,.13.27.13.27,6.9-.71,12.42-4.96,18.33-8.16,0,0,.07-.09.07-.09l2.31-3.29c.77-1.1,1.54-2.2,2.28-3.32l-.23-.19h0Z"/>
      <path class="cls-7" d="M163.46,102.44c-1.75,1.51-4.23,3.78-5.97,5.35,0,0,.29-.2.29-.2-6.03,2.2-12.55,3.49-17.38,8.05,0,0,.12.28.12.28,6.71-.27,12.27-4.09,18.13-6.89,0,0,.07-.09.07-.09l2.5-3.13c.83-1.05,1.66-2.09,2.47-3.16,0,0-.22-.21-.22-.21h0Z"/>
      <polyline class="cls-3" points="116.99 152.66 120.69 160.6 125.99 168.37 118.93 162.72 121.22 178.43 112.75 164.84 112.75 178.07 117.87 184.6 112.22 184.43"/>
      <polygon class="cls-5" points="131.81 168.9 155.46 155.84 148.75 178.25 164.46 164.66 160.22 174.01 169.75 180.37 182.79 169.06 191.39 194.73 112 196.68 111.87 185.66 120.62 189.94 131.79 188.18 134.81 181.6 131.81 168.9"/>
      <polygon class="cls-5" points="111.81 134.28 123.63 146.75 115.57 151.25 116.63 155.84 111.87 155.84 111.81 134.28"/>
    </g>
    <g>
      <polyline class="cls-2" points="112.44 51.82 95.87 51.25 79.87 61.13 44.1 28.66 48.34 87.96 12.57 110.54 47.4 102.54 18.22 136.43 50.22 140.66 31.87 195.72 112.81 197.71"/>
      <polygon class="cls-5" points="94.34 110.13 60.1 90.54 68.22 73.43 56.34 82.31 45.53 35.26 49.25 88.56 17.75 108.37 49.87 100.96 20.22 135.72 50.69 139.73 61.51 130.78 90.63 143.13 93.63 141.72 86.04 128.31 94.34 110.13"/>
      <polygon class="cls-1" points="56.34 82.31 75.16 65.84 46.46 36.19 56.34 82.31"/>
      <polygon class="cls-1" points="101.13 52.16 101.4 63.01 107.57 68.84 106.34 52.43 101.13 52.16"/>
      <polygon class="cls-1" points="92.66 54.01 93.1 70.6 100.87 74.84 95.93 68.84 95.93 52.16 92.66 54.01"/>
      <polygon class="cls-1" points="85.34 58.6 85.16 70.6 76.87 80.13 88.87 75.37 89.4 55.6 85.34 58.6"/>
      <path class="cls-7" d="M73.14,84.22c4.73-1.1,11.95-2.51,16.78-3.46,0,0,.44-.09.44-.09,4.08,2.38,7.8,5.37,10.6,9.22,0,0-.18.24-.18.24-3.23-1.11-6.19-2.8-8.91-4.83-.88-.68-1.71-1.44-2.56-2.17l.97.25c-2.82.21-10.08.76-12.82.9-1.43.09-2.85.17-4.28.23l-.04-.3h0Z"/>
      <path class="cls-7" d="M106.53,93.2c.16,2.66.5,5.38.3,8.01-.2.87-.48,1.74-1.1,2.58h-.2c-.93-1.8-.79-3.54-.3-5.36.3-1.76.67-3.51,1.09-5.24,0,0,.2.01.2.01h0Z"/>
      <path class="cls-7" d="M110.85,123.81c.24,3.21.59,7.68.76,10.84,0,0,.02.25.02.25,0,0-.2.23-.2.23-2.64,2.97-5.3,6.45-8.39,8.94-1.05.88-2.13,1.74-3.32,2.48l-.14-.14c2.1-3.57,4.84-6.65,7.92-9.4,0,0,2.96-2.83,2.96-2.83l-.19.48c.06-1.81.08-3.62.17-5.43l.23-5.43h.2Z"/>
      <path class="cls-7" d="M95.04,110.49c-.33,3.27-1.56,6.15-2.97,9.06,0,0-3.88,8.65-3.88,8.65l-.02-.86,3.66,7.19.92,1.8c.24.53.74,1.25.85,1.83.36,1.32.72,2.65,1.01,4.02-1.33-1.57-2.82-3.04-3.64-4.94-.58-1.14-3.92-7.7-4.58-8.99,0,0-.22-.43-.22-.43l.2-.44,3.88-8.65c1.24-2.98,2.57-5.82,4.79-8.24h0Z"/>
      <path class="cls-7" d="M60.37,130.69c2.82.12,5.45.83,8.03,1.93,0,0,7.68,2.87,7.68,2.87.02,0,.07.03.09.04,0,0,7.59,3.75,7.59,3.75,2.65,1.18,5.09,2.54,7.15,4.65-2.92-.36-5.49-1.46-8.03-2.85.05.02-7.92-3.9-7.5-3.71,0,0-7.68-2.87-7.68-2.87-2.67-.85-5.11-2.05-7.33-3.8h0Z"/>
      <path class="cls-7" d="M64.1,97.33c1.65,1.63,3.99,4.06,5.64,5.75,0,0-.28-.22-.28-.22,6.1,2.62,12.76,4.33,17.53,9.25,0,0-.13.27-.13.27-6.9-.71-12.42-4.96-18.33-8.16,0,0-.07-.09-.07-.09l-2.31-3.29c-.77-1.1-1.54-2.2-2.28-3.32l.23-.19h0Z"/>
      <path class="cls-7" d="M61.09,102.44c1.75,1.51,4.23,3.78,5.97,5.35,0,0-.29-.2-.29-.2,6.03,2.2,12.55,3.49,17.38,8.05,0,0-.12.28-.12.28-6.71-.27-12.27-4.09-18.13-6.89,0,0-.07-.09-.07-.09l-2.5-3.13c-.83-1.05-1.66-2.09-2.47-3.16l.22-.21h0Z"/>
      <polyline class="cls-3" points="107.57 152.66 103.87 160.6 98.57 168.37 105.63 162.72 103.34 178.43 111.81 164.84 111.81 178.07 106.69 184.6 112.34 184.43"/>
      <polygon class="cls-5" points="92.75 168.9 69.1 155.84 75.81 178.25 60.1 164.66 64.34 174.01 54.81 180.37 41.76 169.06 33.17 194.73 112.56 196.68 112.69 185.66 103.94 189.94 92.76 188.18 89.75 181.6 92.75 168.9"/>
      <polygon class="cls-5" points="112.75 134.28 100.93 146.75 108.99 151.25 107.93 155.84 112.69 155.84 112.75 134.28"/>
    </g>
  </g>
  <g id="single">
    <g id="cat5">
      <polygon class="cls-4" points="118.47 82.82 119 107.35 107.88 107 105.24 110.35 114.24 114.59 121.12 110.35 128.88 111.24 118.47 82.82"/>
      <polygon class="cls-5" points="111.71 134.71 100.06 146.59 108.53 151.59 107.47 156.18 117 156.24 116 151.59 124.41 146.82 113.24 135 111.71 134.71"/>
      <polygon class="cls-6" points="108.07 156.7 116.49 156.74 114.94 168.35 113.06 178.06 113.85 184.96 111.68 184.89 111.47 179.71 109.65 167.18 108.07 156.7"/>
    </g>
  </g>
</svg>