<?xml version="1.0" encoding="UTF-8"?>
<svg xmlns="http://www.w3.org/2000/svg" viewBox="0 0 223.41 226.59">
  <defs>
    <style>
      .cls-1, .cls-2 {
        fill: #705941;
      }

      .cls-1, .cls-3 {
        stroke-width: 0px;
      }

      .cls-4 {
        fill: #cfc485;
      }

      .cls-4, .cls-5, .cls-2, .cls-6 {
        stroke: #070509;
      }

      .cls-4, .cls-5, .cls-2, .cls-6, .cls-7 {
        stroke-miterlimit: 10;
      }

      .cls-5, .cls-7 {
        fill: #ecdcc2;
      }

      .cls-6, .cls-3 {
        fill: #070509;
      }

      .cls-7 {
        stroke: #ecdcc2;
      }
    </style>
  </defs>
  <g id="mirror_mirror_on_the_wall" data-name="mirror mirror on the wall">
    <g>
      <polyline class="cls-2" points="112.18 137.55 122.1 131.49 162.34 131.72 181.63 107.96 166.34 92.9 169.87 37.6 141.63 67.72 112.22 65.37"/>
      <polygon class="cls-2" points="154.1 131.96 177.16 168.43 162.81 159.49 177.87 191.96 112.46 191.72 111.99 138.31 124.22 130.07 154.1 131.96"/>
      <polygon class="cls-6" points="163.99 49.37 162.34 88.43 143.99 70.78 163.99 49.37"/>
      <polygon class="cls-4" points="126.87 101.49 135.51 93.19 150.69 99.19 137.1 98.31 128.99 105.01 126.87 101.49"/>
      <circle class="cls-6" cx="133.22" cy="98.31" r="2.38"/>
      <path class="cls-3" d="M112.57,125.49c.81.66,1.74,1.31,2.6,1.9.28.25.64.23.96.37,2.46.84,9.1,3.1,11.65,3.97,0,0,.48.16.48.16.19-.12,4.16-2.91,4.47-3.11.66-.49,1.41-.85,1.9-1.6.55-.65,1.08-1.34,1.59-2.05-1.64.46-3.33.9-4.63,2,0,0-4.06,2.82-4.06,2.82l.89-.13-7.76-2.65-3.88-1.32c-.33-.08-.61-.32-.99-.29-1.04-.07-2.17-.12-3.22-.09h0Z"/>
      <rect class="cls-1" x="111.32" y="138.17" width="1.82" height="53.01"/>
    </g>
    <g>
      <polyline class="cls-2" points="112.38 137.55 102.46 131.49 62.22 131.72 42.93 107.96 58.22 92.9 54.69 37.6 82.93 67.72 112.34 65.37"/>
      <polygon class="cls-2" points="70.46 131.96 47.4 168.43 61.75 159.49 46.69 191.96 112.1 191.72 112.57 138.31 100.34 130.07 70.46 131.96"/>
      <polygon class="cls-6" points="60.57 49.37 62.22 88.43 80.57 70.78 60.57 49.37"/>
      <polygon class="cls-4" points="97.69 101.49 89.04 93.19 73.87 99.19 87.46 98.31 95.57 105.01 97.69 101.49"/>
      <circle class="cls-6" cx="91.34" cy="98.31" r="2.38"/>
      <path class="cls-3" d="M111.99,125.49c-.81.66-1.74,1.31-2.6,1.9-.28.25-.64.23-.96.37-2.46.84-9.1,3.1-11.65,3.97,0,0-.48.16-.48.16-.19-.12-4.16-2.91-4.47-3.11-.66-.49-1.41-.85-1.9-1.6-.55-.65-1.08-1.34-1.59-2.05,1.64.46,3.33.9,4.63,2,0,0,4.06,2.82,4.06,2.82l-.89-.13,7.76-2.65,3.88-1.32c.33-.08.61-.32.99-.29,1.04-.07,2.17-.12,3.22-.09h0Z"/>
      <rect class="cls-1" x="111.41" y="138.17" width="1.82" height="53.01"/>
    </g>
  </g>
  <g id="single">
    <g id="cat6">
      <path class="cls-7" d="M111.79,66.32s-4.79,28.68-14.32,29.91c-7.06,1.24-7.35-4.92-7.35-4.92,0,0-15.07,8.45-23.71,6.86s-7.41-4.5-7.41-4.5l23.91-24.79,28.88-2.56Z"/>
      <path class="cls-7" d="M44.47,108.29s27.41-6.82,34.29,8.53-10.29,13.85-10.29,13.85l-5.82.03-18.18-22.41Z"/>
      <path class="cls-7" d="M114.66,190.71s-2.19-44.09,8.57-39.68,5.32,39.75,5.32,39.75l-13.9-.07Z"/>
      <path class="cls-7" d="M143.53,190.91s2.65-50.21,9-48.09c6.35,2.12,21.32,22.53,21.32,22.53l-12.74-7.94,15.21,33.56-32.79-.06Z"/>
      <path class="cls-7" d="M106.74,128.76s1.5,2.94,5.91,3.47,5.76-3.24,5.76-3.24l-6.47-3.29-5.21,3.06Z"/>
      <path class="cls-7" d="M121.65,127.01s9.85,4.58,6.15-12.36-14.44,9.12-14.44,9.12l-6.09-.44-.71,2.47,6.53-.82,8.56,2.04Z"/>
      <path class="cls-6" d="M174.76,116.71s-18-12.71-27.53-5.12-13.59,15-13.59,15l-4.41,4.85,32.65.26,12.88-15Z"/>
      <path class="cls-6" d="M96.41,131s15.94.77-3,42.71c-7.41,16.41-37.24,11.12-37.24,11.12l-9.53,7.35,14.82-33.12-11.91,7.59,21.71-34.59,25.15-1.06Z"/>
      <path class="cls-6" d="M95.09,105.59s-10.85,7.41-19.15,3-4.5-8.29-4.5-8.29l15.97-1.76,7.68,7.06Z"/>
      <path class="cls-6" d="M126.85,101.26s-2.91-15.97,8.21-15.09c11.12.88,17.91,13.24,17.91,13.24l-17.38-5.65-8.74,7.5Z"/>
      <path class="cls-5" d="M69.59,137.53s13.94,2.12,12.18,12.53-20.29,9-20.29,9l-11.12,7.24,19.24-28.76Z"/>
      <ellipse class="cls-6" cx="89.53" cy="89.26" rx="12.09" ry="4.06"/>
      <polygon class="cls-6" points="123.82 106.53 100.71 106.53 112.24 114.06 123.82 106.53"/>
    </g>
  </g>
</svg>