<?xml version="1.0" encoding="UTF-8"?>
<svg xmlns="http://www.w3.org/2000/svg" viewBox="0 0 223.41 226.59">
  <defs>
    <style>
      .cls-1, .cls-2 {
        fill: #ecdcc2;
      }

      .cls-1, .cls-3 {
        stroke-width: 0px;
      }

      .cls-4 {
        fill: #cfc485;
      }

      .cls-4, .cls-5, .cls-6 {
        stroke: #070509;
      }

      .cls-4, .cls-5, .cls-6, .cls-2 {
        stroke-miterlimit: 10;
      }

      .cls-5 {
        fill: #705941;
      }

      .cls-6, .cls-3 {
        fill: #070509;
      }

      .cls-2 {
        stroke: #ecdcc2;
      }
    </style>
  </defs>
  <g id="mirror_mirror_on_the_wall" data-name="mirror mirror on the wall">
    <g>
      <polyline class="cls-5" points="112.04 60.54 136.57 60.9 176.81 6.54 168.34 80.66 191.99 101.13 148.93 129.72 142.57 131.13 149.99 161.49 133.04 208.43 111.28 208.82"/>
      <polygon class="cls-6" points="172.57 16.43 162.87 76.96 142.04 62.49 172.57 16.43"/>
      <polygon class="cls-2" points="111.16 172.6 123.69 138.01 126.69 147.37 120.69 180.54 119.46 195.01 115.93 195.72 111.51 190.25 111.16 172.6"/>
      <polygon class="cls-2" points="188.85 101.93 180.69 99.9 127.16 124.9 112 115.87 111.69 133.43 122.79 126.15 122.94 126.54 116.9 131.66 141.91 130.21 148.56 128.71 188.85 101.93"/>
      <g>
        <polyline class="cls-1" points="125.1 101.31 122.81 107.49 122.28 113.66"/>
        <path class="cls-1" d="M125.06,101.29c-.9,2.05-1.84,4.08-2.66,6.16-.24,1.63-.67,4.81-.07,6.22.66-1.83.95-4.54.86-6.04.67-2.09,1.33-4.19,1.96-6.3l-.09-.03h0Z"/>
      </g>
      <g>
        <line class="cls-1" x1="132.16" y1="104.31" x2="126.69" y2="113.84"/>
        <path class="cls-1" d="M132.12,104.28c-1.04,1.52-2.05,3.05-3.04,4.59-1.07,1.52-2,3.09-2.43,4.94,0,0,.09.05.09.05,1.38-1.3,2.26-2.9,3.04-4.59.83-1.63,1.65-3.28,2.43-4.94,0,0-.09-.05-.09-.05h0Z"/>
      </g>
      <g>
        <line class="cls-1" x1="151.93" y1="99.01" x2="135.87" y2="109.78"/>
        <path class="cls-1" d="M151.9,98.97c-2.76,1.67-5.5,3.37-8.22,5.09-2.67,1.69-5.78,3.45-7.78,5.76,2.97-1.34,5.63-3.15,8.22-5.09,2.52-1.91,5.55-3.75,7.78-5.76h0Z"/>
      </g>
      <polygon class="cls-2" points="154.4 94.6 155.46 86.49 168.34 95.84 154.4 94.6"/>
      <polyline class="cls-6" points="122.28 177.37 126.51 196.07 131.99 207.94 111.6 208.03 111.51 190.25 115.93 195.72 119.46 195.01 122.28 177.37"/>
      <polygon class="cls-6" points="143.81 176.13 139.93 167.31 141.69 152.66 137.99 146.66 130.22 166.31 127.4 147.01 123.16 137.13 111.69 171.01 110.99 132.85 142.57 131.13 149.99 161.49 143.81 176.13"/>
      <g>
        <polyline class="cls-3" points="190.49 101.57 180.69 99.9 128.1 124.25 174.69 97.6 160.4 83.66 120.87 95.84 119.63 88.25 130.22 82.43 130.4 63.54 141.91 58.29 191.99 101.13"/>
        <path class="cls-3" d="M190.57,101.08s-9.8-1.66-9.8-1.66l-.15-.03c-.02.1-52.62,24.41-52.68,24.5,0,0,.35.69.35.69l46.54-26.72s.34-.2.34-.2l-.28-.27-14.32-13.92s-.11-.11-.11-.11c-.04.01-39.58,12.27-39.66,12.29,0,0,.25.15.25.15l-1.25-7.59s-.09.19-.09.19l10.58-5.84c.11-.05.08-.04.08-.14.03.17.21-19.43.07-18.77,0,0,11.51-5.27,11.51-5.27-.54-.27,50.16,42.81,50.03,42.74-.12-.02-49.99-43.07-50.12-42.94,0,0-11.52,5.23-11.52,5.23l-.08.03v.08c.11-.01-.38,19.4-.13,18.74,0,0-10.6,5.81-10.6,5.81l-.11.06.02.13s1.22,7.59,1.22,7.59l.04.22.21-.07c-.12-.09,40.48-12.14,39.29-12.17,0,0,14.27,13.96,14.27,13.96l.06-.47-46.63,26.57s.35.69.35.69l52.63-24.27-.28.04s9.79,1.69,9.79,1.69l.17-.99h0Z"/>
      </g>
      <polygon class="cls-6" points="111.34 66.37 114.34 71.31 111.51 86.49 111.34 66.37"/>
      <polygon class="cls-6" points="122.46 67.43 118.22 74.13 117.16 86.13 122.46 67.43"/>
      <polygon class="cls-6" points="128.46 79.43 124.75 78.37 117.69 87.01 128.46 79.43"/>
      <polygon class="cls-6" points="119.46 85.96 120.87 95.84 120.56 106.82 115.04 106.78 115.04 84.54 119.46 85.96"/>
      <polygon class="cls-4" points="139.75 90.01 138.51 100.6 126.51 94.43 139.75 90.01"/>
      <ellipse class="cls-6" cx="133.57" cy="94.43" rx="1.76" ry="3"/>
      <g>
        <line class="cls-3" x1="123.96" y1="125.55" x2="112.09" y2="132.94"/>
        <path class="cls-3" d="M123.9,125.47c-2.13.98-4.23,2.01-6.3,3.1-2.21.97-4.19,2.17-5.56,4.29,0,0,.11.17.11.17,2.51-.29,4.46-1.55,6.3-3.1,1.89-1.38,3.75-2.81,5.56-4.29,0,0-.11-.17-.11-.17h0Z"/>
      </g>
    </g>
    <g>
      <polyline class="cls-5" points="112.51 60.54 87.99 60.9 47.75 6.54 56.22 80.66 32.57 101.13 75.63 129.72 81.99 131.13 74.57 161.49 91.51 208.43 113.28 208.82"/>
      <polygon class="cls-6" points="51.99 16.43 61.69 76.96 82.51 62.49 51.99 16.43"/>
      <polygon class="cls-2" points="113.4 172.6 100.87 138.01 97.87 147.37 103.87 180.54 105.1 195.01 108.63 195.72 113.04 190.25 113.4 172.6"/>
      <polygon class="cls-2" points="35.71 101.93 43.87 99.9 97.4 124.9 112.56 115.87 112.87 133.43 101.77 126.15 101.62 126.54 107.66 131.66 82.65 130.21 76 128.71 35.71 101.93"/>
      <g>
        <polyline class="cls-1" points="99.46 101.31 101.75 107.49 102.28 113.66"/>
        <path class="cls-1" d="M99.5,101.29c.9,2.05,1.84,4.08,2.66,6.16.24,1.63.67,4.81.07,6.22-.66-1.83-.95-4.54-.86-6.04-.67-2.09-1.33-4.19-1.96-6.3l.09-.03h0Z"/>
      </g>
      <g>
        <line class="cls-1" x1="92.4" y1="104.31" x2="97.87" y2="113.84"/>
        <path class="cls-1" d="M92.44,104.28c1.04,1.52,2.05,3.05,3.04,4.59,1.07,1.52,2,3.09,2.43,4.94,0,0-.09.05-.09.05-1.38-1.3-2.26-2.9-3.04-4.59-.83-1.63-1.65-3.28-2.43-4.94,0,0,.09-.05.09-.05h0Z"/>
      </g>
      <g>
        <line class="cls-1" x1="72.63" y1="99.01" x2="88.69" y2="109.78"/>
        <path class="cls-1" d="M72.66,98.97c2.76,1.67,5.5,3.37,8.22,5.09,2.67,1.69,5.78,3.45,7.78,5.76-2.97-1.34-5.63-3.15-8.22-5.09-2.52-1.91-5.55-3.75-7.78-5.76h0Z"/>
      </g>
      <polygon class="cls-2" points="70.16 94.6 69.1 86.49 56.22 95.84 70.16 94.6"/>
      <polyline class="cls-6" points="102.28 177.37 98.04 196.07 92.57 207.94 112.96 208.03 113.04 190.25 108.63 195.72 105.1 195.01 102.28 177.37"/>
      <polygon class="cls-6" points="80.75 176.13 84.63 167.31 82.87 152.66 86.57 146.66 94.34 166.31 97.16 147.01 101.4 137.13 112.87 171.01 113.57 132.85 81.99 131.13 74.57 161.49 80.75 176.13"/>
      <g>
        <polyline class="cls-3" points="34.07 101.57 43.87 99.9 96.46 124.25 49.87 97.6 64.16 83.66 103.69 95.84 104.93 88.25 94.34 82.43 94.16 63.54 82.65 58.29 32.57 101.13"/>
        <path class="cls-3" d="M33.99,101.08s9.8-1.66,9.8-1.66l.15-.03c.02.1,52.62,24.41,52.68,24.5,0,0-.35.69-.35.69l-46.54-26.72s-.34-.2-.34-.2l.28-.27,14.32-13.92s.11-.11.11-.11c.04.01,39.58,12.27,39.66,12.29,0,0-.25.15-.25.15l1.25-7.59s.09.19.09.19l-10.58-5.84c-.11-.05-.08-.04-.08-.14-.03.17-.21-19.43-.07-18.77,0,0-11.51-5.27-11.51-5.27.54-.27-50.16,42.81-50.03,42.74.12-.02,49.99-43.07,50.12-42.94,0,0,11.52,5.23,11.52,5.23l.08.03v.08c-.11-.01.38,19.4.13,18.74,0,0,10.6,5.81,10.6,5.81l.11.06-.02.13s-1.22,7.59-1.22,7.59l-.04.22-.21-.07c.12-.09-40.48-12.14-39.29-12.17,0,0-14.27,13.96-14.27,13.96l-.06-.47,46.63,26.57s-.35.69-.35.69l-52.63-24.27.28.04s-9.79,1.69-9.79,1.69l-.17-.99h0Z"/>
      </g>
      <polygon class="cls-6" points="113.22 66.37 110.22 71.31 113.04 86.49 113.22 66.37"/>
      <polygon class="cls-6" points="102.1 67.43 106.34 74.13 107.4 86.13 102.1 67.43"/>
      <polygon class="cls-6" points="96.1 79.43 99.81 78.37 106.87 87.01 96.1 79.43"/>
      <polygon class="cls-6" points="105.1 85.96 103.69 95.84 104 106.82 109.51 106.78 109.51 84.54 105.1 85.96"/>
      <polygon class="cls-4" points="84.81 90.01 86.04 100.6 98.04 94.43 84.81 90.01"/>
      <ellipse class="cls-6" cx="90.99" cy="94.43" rx="1.76" ry="3"/>
      <g>
        <line class="cls-3" x1="100.6" y1="125.55" x2="112.47" y2="132.94"/>
        <path class="cls-3" d="M100.66,125.47c2.13.98,4.23,2.01,6.3,3.1,2.21.97,4.19,2.17,5.56,4.29,0,0-.11.17-.11.17-2.51-.29-4.46-1.55-6.3-3.1-1.89-1.38-3.75-2.81-5.56-4.29,0,0,.11-.17.11-.17h0Z"/>
      </g>
    </g>
  </g>
  <g id="single">
    <g id="cat7">
      <polygon class="cls-6" points="104.65 107.76 119.97 107.71 112.56 115.87 104.65 107.76"/>
    </g>
  </g>
</svg>