<?xml version="1.0" encoding="UTF-8"?>
<svg xmlns="http://www.w3.org/2000/svg" viewBox="0 0 223.41 226.59">
  <defs>
    <style>
      .cls-1, .cls-2, .cls-3, .cls-4, .cls-5 {
        stroke-miterlimit: 10;
      }

      .cls-1, .cls-2, .cls-4 {
        stroke: #231f20;
      }

      .cls-1, .cls-3 {
        fill: #070509;
      }

      .cls-2 {
        fill: #705941;
      }

      .cls-6 {
        fill: #231f20;
        stroke-width: 0px;
      }

      .cls-3 {
        stroke: #070509;
      }

      .cls-4 {
        fill: #cfc485;
      }

      .cls-5 {
        fill: #ecdcc2;
        stroke: #ecdcc2;
      }
    </style>
  </defs>
  <g id="mirror_mirror_on_the_wall" data-name="mirror mirror on the wall">
    <g>
      <path class="cls-2" d="M111.85,42.59l25.47.88,28.45-3.4c1.64-.2,3.08,1.08,3.08,2.73v28.43l9.88,36.47-52.24,63.06h-14.82"/>
      <polygon class="cls-2" points="161.79 128.18 177.32 173.35 174.5 194.06 111.91 194.06 112.15 171.71 126.5 170.76 161.79 128.18"/>
      <path class="cls-1" d="M163.21,60.41l-13.65-13.41,11.87-3.77c1.42-.45,2.85.67,2.76,2.16l-.98,15.02Z"/>
      <polygon class="cls-1" points="120.97 45.53 120.62 56.65 132.15 67.94 132.15 76.88 135.91 75.47 136.38 63.94 123.91 55.47 120.97 45.53"/>
      <polygon class="cls-5" points="144.91 75.41 138.74 86.06 134.26 87.94 126.47 103.65 127.91 79.94 144.91 75.41"/>
      <polygon class="cls-1" points="145.88 72.24 158.97 75.94 167.68 97.59 154.74 79 143.24 75.15 145.88 72.24"/>
      <polygon class="cls-4" points="137.32 82.53 126.74 78.29 144.85 72.65 137.32 82.53"/>
      <polygon class="cls-5" points="158.03 134.53 157.32 152.18 139.18 193.21 111.56 193.12 111.82 171.76 127 171.68 158.03 134.53"/>
      <polygon class="cls-5" points="128.68 116.97 134.97 122.29 165.09 109.12 171.82 114.68 126.06 169.79 111.82 169.82 111.91 124.12 128.68 116.97"/>
      <circle class="cls-1" cx="142.74" cy="61.12" r="3.53"/>
      <circle class="cls-1" cx="140.97" cy="51.59" r="3.18"/>
      <circle class="cls-1" cx="157.44" cy="68.06" r="2.94"/>
      <circle class="cls-1" cx="125.09" cy="53.35" r="2.35"/>
      <circle class="cls-1" cx="162.15" cy="83.82" r="2.71"/>
      <circle class="cls-1" cx="147.21" cy="87.94" r="3.29"/>
      <circle class="cls-1" cx="134.5" cy="96.88" r="2.82"/>
      <circle class="cls-1" cx="144.15" cy="101.59" r="3.29"/>
      <circle class="cls-1" cx="137.79" cy="109.59" r="3.06"/>
      <circle class="cls-1" cx="150.26" cy="112.41" r="2.82"/>
      <circle class="cls-1" cx="164.03" cy="103.59" r="3.88"/>
      <circle class="cls-1" cx="156.5" cy="94.65" r="1.76"/>
      <circle class="cls-1" cx="163.44" cy="148.88" r="3.53"/>
      <circle class="cls-1" cx="163.21" cy="164.65" r="3.76"/>
      <circle class="cls-1" cx="166.85" cy="181.94" r="4.35"/>
      <circle class="cls-1" cx="152.74" cy="186.88" r="3.65"/>
      <circle class="cls-1" cx="142.62" cy="174.41" r="3.65"/>
      <circle class="cls-1" cx="146.15" cy="159.59" r="4.35"/>
      <circle class="cls-1" cx="129.44" cy="180.53" r="3.65"/>
      <circle class="cls-1" cx="117.44" cy="189.24" r="3.41"/>
      <path class="cls-6" d="M116.05,125.81c-.95,5.34-2.29,13.78-3.16,19.2,0,0-.1.62-.1.62,1.26.65,2.52,1.32,3.81,1.91,3.27,1.45,6.59,2.7,10.1,3.55,0,0,.08-.18.08-.18-3.93-2.74-8.15-4.92-12.61-6.62,0,0,.53.94.53.94l.82-9.69c.2-2.41.56-7.29.73-9.7,0,0-.2-.02-.2-.02h0Z"/>
      <path class="cls-6" d="M126.77,79.93c-.89,8.76-1.72,17.52-2.46,26.3,0,0-.02.29-.02.29,0,0,.15.34.15.34,3.61,7.56,8.36,18.94,12.25,26.23,0,0,.06-1.91.06-1.91-3.01,5.72-5.87,11.52-8.07,17.61,0,0,.35.2.35.2,4.39-5.21,8.15-10.89,11.76-16.66-1.14-2.55-2.38-5.07-3.7-7.52-2.25-4.02-8.14-14.88-10.4-19.06,0,0,.13.63.13.63.1-4.4.19-8.8.23-13.2.05-4.4.12-8.8.13-13.21,0,0-.4-.02-.4-.02h0Z"/>
      <ellipse class="cls-3" cx="135.74" cy="77.26" rx="2.38" ry="1.94"/>
    </g>
    <g>
      <path class="cls-2" d="M112.71,42.59l-25.47.88-28.45-3.4c-1.64-.2-3.08,1.08-3.08,2.73v28.43l-9.88,36.47,52.24,63.06h14.82"/>
      <polygon class="cls-2" points="62.76 128.18 47.24 173.35 50.06 194.06 112.65 194.06 112.41 171.71 98.06 170.76 62.76 128.18"/>
      <path class="cls-1" d="M61.35,60.41l13.65-13.41-11.87-3.77c-1.42-.45-2.85.67-2.76,2.16l.98,15.02Z"/>
      <polygon class="cls-1" points="103.59 45.53 103.94 56.65 92.41 67.94 92.41 76.88 88.65 75.47 88.18 63.94 100.65 55.47 103.59 45.53"/>
      <polygon class="cls-5" points="79.65 75.41 85.82 86.06 90.29 87.94 98.09 103.65 96.65 79.94 79.65 75.41"/>
      <polygon class="cls-1" points="78.68 72.24 65.59 75.94 56.88 97.59 69.82 79 81.32 75.15 78.68 72.24"/>
      <polygon class="cls-4" points="87.24 82.53 97.82 78.29 79.71 72.65 87.24 82.53"/>
      <polygon class="cls-5" points="66.53 134.53 67.24 152.18 85.38 193.21 113 193.12 112.74 171.76 97.56 171.68 66.53 134.53"/>
      <polygon class="cls-5" points="95.88 116.97 89.59 122.29 59.47 109.12 52.74 114.68 98.5 169.79 112.74 169.82 112.65 124.12 95.88 116.97"/>
      <circle class="cls-1" cx="81.82" cy="61.12" r="3.53"/>
      <circle class="cls-1" cx="83.59" cy="51.59" r="3.18"/>
      <circle class="cls-1" cx="67.12" cy="68.06" r="2.94"/>
      <circle class="cls-1" cx="99.47" cy="53.35" r="2.35"/>
      <circle class="cls-1" cx="62.41" cy="83.82" r="2.71"/>
      <circle class="cls-1" cx="77.35" cy="87.94" r="3.29"/>
      <circle class="cls-1" cx="90.06" cy="96.88" r="2.82"/>
      <circle class="cls-1" cx="80.41" cy="101.59" r="3.29"/>
      <circle class="cls-1" cx="86.76" cy="109.59" r="3.06"/>
      <circle class="cls-1" cx="74.29" cy="112.41" r="2.82"/>
      <circle class="cls-1" cx="60.53" cy="103.59" r="3.88"/>
      <circle class="cls-1" cx="68.06" cy="94.65" r="1.76"/>
      <circle class="cls-1" cx="61.12" cy="148.88" r="3.53"/>
      <circle class="cls-1" cx="61.35" cy="164.65" r="3.76"/>
      <circle class="cls-1" cx="57.71" cy="181.94" r="4.35"/>
      <circle class="cls-1" cx="71.82" cy="186.88" r="3.65"/>
      <circle class="cls-1" cx="81.94" cy="174.41" r="3.65"/>
      <circle class="cls-1" cx="78.41" cy="159.59" r="4.35"/>
      <circle class="cls-1" cx="95.12" cy="180.53" r="3.65"/>
      <circle class="cls-1" cx="107.12" cy="189.24" r="3.41"/>
      <path class="cls-6" d="M108.51,125.81c.95,5.34,2.29,13.78,3.16,19.2,0,0,.1.62.1.62-1.26.65-2.52,1.32-3.81,1.91-3.27,1.45-6.59,2.7-10.1,3.55,0,0-.08-.18-.08-.18,3.93-2.74,8.15-4.92,12.61-6.62,0,0-.53.94-.53.94l-.82-9.69c-.2-2.41-.56-7.29-.73-9.7,0,0,.2-.02.2-.02h0Z"/>
      <path class="cls-6" d="M97.79,79.93c.89,8.76,1.72,17.52,2.46,26.3,0,0,.02.29.02.29,0,0-.15.34-.15.34-3.61,7.56-8.36,18.94-12.25,26.23,0,0-.06-1.91-.06-1.91,3.01,5.72,5.87,11.52,8.07,17.61,0,0-.35.2-.35.2-4.39-5.21-8.15-10.89-11.76-16.66,1.14-2.55,2.38-5.07,3.7-7.52,2.25-4.02,8.14-14.88,10.4-19.06,0,0-.13.63-.13.63-.1-4.4-.19-8.8-.23-13.2-.05-4.4-.12-8.8-.13-13.21,0,0,.4-.02.4-.02h0Z"/>
      <ellipse class="cls-3" cx="88.82" cy="77.26" rx="2.38" ry="1.94"/>
    </g>
  </g>
  <g id="single">
    <g id="caz9">
      <polygon class="cls-1" points="96.18 114.06 127.94 114.06 129.12 117.35 113.59 123.47 111 123.47 96.18 116.65 96.18 114.06"/>
    </g>
  </g>
</svg>