<?xml version="1.0" encoding="UTF-8"?>
<svg id="b" data-name="Layer 2" xmlns="http://www.w3.org/2000/svg" viewBox="0 0 269.55 288.27">
  <defs>
    <style>
      .e {
        fill: none;
      }

      .e, .f {
        stroke-miterlimit: 1;
        stroke-width: 4px;
      }

      .e, .f, .g {
        stroke: #231f20;
      }

      .f, .g {
        fill: #231f20;
      }

      .h {
        fill: #fff;
      }

      .g {
        stroke-miterlimit: 10;
      }
    </style>
  </defs>
  <g id="c" data-name="Layer 5">
    <g>
      <polygon class="h" points="134.48 1.85 1.98 56.74 20.7 198.94 134.88 286.69 248.11 198.84 267.57 56.86 134.48 1.85"/>
      <g id="d" data-name="Layer 3">
        <g>
          <g>
            <path class="g" d="M120.45,208.22c0,1.58-.04,3.09-.12,4.53-.09,1.43-.23,2.78-.41,4.07-.19,1.29-.42,2.49-.7,3.63-.28,1.13-.6,2.2-.96,3.2-.37,1-.77,1.91-1.2,2.76-.44.84-.9,1.6-1.41,2.28s-1.05,1.3-1.62,1.85c-.58.54-1.19,1.01-1.83,1.4s-1.31.72-2.01.96c-.71.25-1.43.42-2.19.53-.76.1-1.54.12-2.37.08-.81-.04-1.66-.15-2.53-.34-.87-.19-1.76-.45-2.68-.79-.91-.33-1.84-.74-2.8-1.23-.96-.48-1.93-1.04-2.93-1.67-1-.62-2.02-1.32-3.06-2.1l-20.18-15-6.26-84.01,22.48,13.79c1.16.72,2.31,1.49,3.44,2.33,1.13.84,2.24,1.74,3.33,2.7,1.09.96,2.16,1.99,3.21,3.07,1.04,1.08,2.07,2.22,3.08,3.43,1,1.2,1.97,2.44,2.91,3.71.95,1.28,1.85,2.6,2.72,3.95.87,1.35,1.71,2.74,2.51,4.16.8,1.42,1.57,2.87,2.3,4.36.73,1.49,1.43,3.01,2.08,4.54.65,1.54,1.26,3.09,1.83,4.67s1.1,3.18,1.59,4.79c.48,1.61.93,3.24,1.34,4.89.4,1.65.75,3.29,1.05,4.94.3,1.63.56,3.27.77,4.89.21,1.62.36,3.24.46,4.85.1,1.6.15,3.2.16,4.78h0ZM108.54,203.48c.04-1.07.04-2.2.02-3.37-.03-1.18-.08-2.36-.16-3.52-.08-1.17-.19-2.32-.32-3.47-.13-1.15-.29-2.29-.49-3.43-.19-1.14-.41-2.27-.65-3.38-.25-1.12-.52-2.22-.82-3.3-.29-1.09-.62-2.15-.96-3.2-.35-1.04-.72-2.07-1.12-3.08-.4-1.01-.82-1.99-1.27-2.96-.45-.96-.91-1.89-1.39-2.8-.49-.92-1-1.8-1.53-2.67-.54-.86-1.09-1.7-1.66-2.51s-1.16-1.6-1.78-2.35c-.62-.76-1.24-1.47-1.88-2.16-.64-.68-1.3-1.33-1.98-1.94s-1.37-1.19-2.07-1.72c-.71-.54-1.43-1.04-2.17-1.51l-11.47-7.28,3.63,59.46,10.62,7.69c.68.5,1.34.94,1.99,1.33.64.39,1.27.73,1.88,1.03.61.29,1.2.53,1.79.71.57.19,1.13.32,1.68.4.54.09,1.07.12,1.57.11.51-.02.99-.08,1.45-.21.47-.12.91-.28,1.34-.5.42-.22.83-.49,1.21-.81s.74-.69,1.08-1.12.66-.9.95-1.44c.29-.53.56-1.12.81-1.76.24-.64.46-1.33.66-2.08s.37-1.55.51-2.41c.14-.85.26-1.76.35-2.71.09-.96.15-1.98.18-3.04Z"/>
            <path class="g" d="M49.68,157.7c.8.91,1.56,1.85,2.28,2.79.71.96,1.39,1.92,2.03,2.91.62.99,1.21,2,1.76,3.03.54,1.02,1.04,2.06,1.49,3.12.45,1.05.86,2.12,1.22,3.21.37,1.09.69,2.2.96,3.31.27,1.12.5,2.24.7,3.38.19,1.14.33,2.29.43,3.45.09.99.14,1.93.16,2.81s0,1.71-.04,2.5c-.04.78-.12,1.5-.21,2.18-.11.67-.24,1.29-.41,1.87-.17.56-.36,1.09-.57,1.56-.21.48-.45.91-.71,1.3-.25.38-.53.72-.83,1.02-.29.3-.62.55-.96.76s-.7.37-1.07.5-.77.21-1.17.25c-.41.04-.83.04-1.28,0-.44-.04-.89-.12-1.37-.24-.47-.12-.96-.29-1.45-.47-.49-.2-.99-.42-1.5-.69-.51-.26-1.03-.56-1.55-.89-.52-.33-1.05-.71-1.6-1.11-.59-.44-1.17-.89-1.72-1.36s-1.1-.94-1.62-1.42c-.53-.49-1.04-.98-1.52-1.49-.49-.51-.96-1.04-1.42-1.57-.46-.53-.9-1.07-1.34-1.63-.43-.56-.85-1.13-1.26-1.72-.42-.6-.81-1.2-1.2-1.82-.38-.62-.77-1.26-1.13-1.91s-.72-1.32-1.08-2c-.35-.69-.69-1.38-1.02-2.1-.33-.71-.66-1.44-.97-2.18-.31-.75-.62-1.51-.92-2.28-.29-.79-.59-1.58-.87-2.39-.29-.82-.58-1.65-.86-2.51-.29-.86-.56-1.73-.83-2.62s-.54-1.81-.8-2.75l3.16.06c.14,0,.29,0,.43.04s.29.07.43.12c.15.05.29.12.44.2.14.07.29.16.43.27.06.04.13.1.2.15.07.05.14.11.21.17.07.05.13.12.21.18.06.06.13.13.2.21.21.22.42.46.61.71.19.25.37.52.54.8.17.29.33.59.48.91.14.31.28.65.41,1,.13.38.27.77.41,1.15.13.38.28.77.42,1.15s.29.77.44,1.15c.14.38.29.77.45,1.15s.31.76.47,1.13c.16.38.32.75.49,1.12.17.37.35.73.53,1.09.18.37.37.71.55,1.06.19.36.38.7.59,1.04.2.34.41.67.62,1,.21.33.44.65.66.96s.46.62.69.93c.24.3.48.6.74.88s.52.56.79.82c.27.27.55.52.84.77.29.24.59.47.9.7.34.26.68.47,1,.67.32.19.62.36.92.48.29.13.58.24.85.31s.53.11.78.12c.24.02.47,0,.69-.04.22-.03.43-.09.62-.16.2-.08.38-.18.55-.29.17-.12.33-.27.48-.43.15-.17.29-.35.41-.55.12-.2.24-.41.34-.64s.19-.48.27-.74c.08-.27.14-.55.2-.86.05-.29.09-.61.12-.93.03-.32.04-.64.05-.98s0-.69,0-1.04c0-.36-.04-.72-.07-1.1-.04-.47-.1-.95-.16-1.41s-.12-.92-.2-1.37c-.08-.46-.16-.91-.25-1.36s-.18-.88-.29-1.32c-.1-.44-.21-.87-.35-1.3-.13-.44-.29-.87-.46-1.29-.16-.43-.35-.86-.54-1.29-.2-.42-.41-.85-.64-1.27s-.48-.84-.75-1.26-.56-.84-.87-1.26-.64-.84-.99-1.25c-.36-.42-.72-.84-1.12-1.26-.39-.41-.81-.84-1.26-1.26-.46-.42-.93-.84-1.44-1.27-.51-.42-1.04-.84-1.61-1.27-.56-.42-1.15-.85-1.77-1.27l-1.12-10.01c.52.34,1.01.65,1.47.93.47.27.92.51,1.35.72.42.21.82.38,1.2.53.38.15.73.26,1.06.34.33.07.64.12.94.15s.57.02.83,0c.25-.03.49-.09.71-.17.22-.09.42-.2.6-.34s.34-.3.49-.49c.14-.19.28-.4.38-.64.12-.24.21-.5.29-.79.08-.29.14-.6.19-.94s.08-.7.1-1.07c.03-.37.04-.77.04-1.18,0-.41-.02-.84-.04-1.28-.02-.45-.05-.91-.11-1.39-.1-1.02-.23-2.01-.41-2.97-.17-.96-.38-1.88-.63-2.78-.25-.89-.54-1.76-.86-2.59s-.69-1.62-1.08-2.38c-.4-.76-.82-1.47-1.26-2.13s-.9-1.28-1.38-1.83c-.48-.56-.98-1.07-1.51-1.54-.52-.46-1.06-.87-1.62-1.21-.26-.17-.51-.31-.76-.44-.24-.12-.48-.23-.71-.31-.22-.09-.45-.15-.67-.21-.21-.04-.43-.07-.62-.09-.21,0-.4,0-.59.03-.19.03-.37.06-.54.12-.18.05-.34.12-.5.21s-.31.19-.46.31c-.14.12-.28.25-.41.39-.12.15-.25.31-.36.48-.12.18-.22.37-.31.56-.1.21-.19.42-.27.65-.08.22-.15.46-.21.71-.06.26-.12.52-.17.79s-.08.56-.12.86c-.03.3-.05.62-.06.94-.04.39-.11.74-.17,1.04-.07.3-.15.57-.24.79-.09.22-.19.39-.3.53s-.24.22-.38.27c-.09.03-.19.04-.29.04-.11,0-.22-.02-.35-.05-.12-.04-.25-.09-.38-.15-.14-.07-.29-.15-.44-.26-.08-.05-.17-.11-.26-.17-.08-.06-.17-.13-.27-.21-.09-.07-.18-.15-.28-.23s-.2-.17-.29-.26l-4.49-4.18c-.04-.96-.07-1.89-.07-2.78s.02-1.73.06-2.53c.05-.8.12-1.57.21-2.29.1-.72.21-1.4.36-2.04s.3-1.24.48-1.79c.19-.56.39-1.08.62-1.55.21-.48.46-.92.72-1.31.27-.39.54-.75.85-1.06.31-.31.63-.58.97-.81.35-.23.71-.42,1.09-.56.37-.15.78-.26,1.2-.32s.86-.09,1.31-.06c.46.02.93.08,1.42.19.48.11.99.25,1.51.44s1.04.41,1.59.68c.55.27,1.12.58,1.69.94.6.37,1.19.76,1.78,1.19.58.43,1.15.88,1.71,1.37.56.48,1.12,1,1.66,1.55.54.54,1.08,1.12,1.61,1.73.53.6,1.03,1.22,1.53,1.87.49.65.97,1.31,1.44,1.99s.91,1.38,1.35,2.1c.43.71.85,1.45,1.25,2.2s.79,1.52,1.15,2.28c.37.78.71,1.56,1.04,2.35.33.79.63,1.6.93,2.4.29.81.56,1.62.81,2.45.25.82.48,1.65.69,2.47s.39,1.63.55,2.45c.16.81.29,1.62.41,2.44.12.8.21,1.61.28,2.41.06.7.12,1.37.14,2.01.04.64.06,1.25.06,1.83s0,1.13-.02,1.65-.05,1.01-.11,1.46c-.04.46-.11.89-.18,1.3s-.16.8-.25,1.16c-.1.37-.21.7-.32,1.01s-.25.61-.39.87c-.13.27-.29.51-.46.73-.16.22-.33.42-.52.6-.19.17-.38.33-.6.46-.21.13-.43.24-.66.33s-.47.16-.72.22c-.25.05-.5.09-.77.12-.27.02-.54.03-.82.02-.29,0-.58-.04-.87-.08h0Z"/>
          </g>
          <g>
            <polyline class="e" points="267.57 56.86 248.11 198.84 134.88 286.69"/>
            <polyline class="e" points="1.98 56.74 134.48 1.85 267.57 56.86 135.45 133.8"/>
            <polygon class="e" points="135.45 133.8 134.9 282.73 134.88 286.69 20.7 198.94 1.98 56.74 135.45 133.8"/>
          </g>
          <polygon class="f" points="244.86 198.74 263.92 59.68 138.28 135.21 137.57 284.15 244.86 198.74"/>
        </g>
      </g>
    </g>
  </g>
</svg>