<svg width="600" height="600" viewBox="0 0 600 600" fill="none" xmlns="http://www.w3.org/2000/svg">
<rect width="600" height="600" fill="white"/>
<path d="M168.762 276C169.699 275.193 170.357 274.262 170.734 273.207C171.125 272.139 171.438 271.026 171.672 269.867L176.086 247.973H171.32C171.594 247.829 171.952 247.602 172.395 247.289C172.837 246.977 173.306 246.645 173.801 246.293C174.296 245.941 174.751 245.642 175.168 245.395C175.598 245.147 175.923 245.023 176.145 245.023H185.715C187.147 245.023 188.632 245.147 190.168 245.395C191.704 245.642 193.189 246.039 194.621 246.586C196.066 247.12 197.362 247.836 198.508 248.734C199.654 249.62 200.565 250.707 201.242 251.996C201.919 253.285 202.258 254.802 202.258 256.547C202.258 257.406 202.167 258.292 201.984 259.203C201.529 261.404 200.676 263.396 199.426 265.18C198.189 266.951 196.672 268.513 194.875 269.867C193.091 271.208 191.138 272.335 189.016 273.246C186.906 274.158 184.751 274.848 182.551 275.316C180.35 275.772 178.228 276 176.184 276H168.762ZM173.781 273.129H181.75C184.198 273.129 186.496 272.784 188.645 272.094C190.806 271.391 192.642 270.264 194.152 268.715C195.676 267.152 196.698 265.069 197.219 262.465C197.349 261.84 197.447 261.215 197.512 260.59C197.59 259.965 197.629 259.333 197.629 258.695C197.629 256.755 197.271 255.141 196.555 253.852C195.852 252.549 194.895 251.508 193.684 250.727C192.486 249.945 191.132 249.359 189.621 248.969C188.111 248.565 186.548 248.298 184.934 248.168C183.319 248.038 181.763 247.973 180.266 247.973L176.086 268.695C175.891 269.672 175.637 270.479 175.324 271.117C175.012 271.742 174.497 272.413 173.781 273.129ZM236.621 245.023C236.296 245.102 235.918 245.297 235.488 245.609C235.072 245.909 234.635 246.241 234.18 246.605C233.737 246.97 233.307 247.289 232.891 247.562C232.487 247.836 232.135 247.973 231.836 247.973H230.215L226.23 267.68C226.061 268.552 225.755 269.529 225.312 270.609C224.883 271.677 224.329 272.504 223.652 273.09H230.527C230.202 273.168 229.824 273.363 229.395 273.676C228.978 273.975 228.548 274.307 228.105 274.672C227.663 275.023 227.24 275.336 226.836 275.609C226.432 275.87 226.074 276 225.762 276H218.438C219.401 275.232 220.072 274.477 220.449 273.734C220.84 272.992 221.159 272.029 221.406 270.844L226.035 247.973H222.012C222.22 247.842 222.546 247.621 222.988 247.309C223.431 246.983 223.913 246.645 224.434 246.293C224.954 245.941 225.43 245.642 225.859 245.395C226.302 245.147 226.615 245.023 226.797 245.023H236.621ZM258.934 277.27C258.569 274.743 258.243 272.204 257.957 269.652C257.684 267.1 257.352 264.561 256.961 262.035C256.57 259.509 256.023 257.009 255.32 254.535C255.177 254.014 254.982 253.37 254.734 252.602C254.487 251.833 254.174 251.072 253.797 250.316C253.432 249.561 252.99 248.93 252.469 248.422C251.961 247.914 251.362 247.66 250.672 247.66C250.242 247.66 249.826 247.764 249.422 247.973C249.031 248.181 248.634 248.357 248.23 248.5C248.777 248.057 249.467 247.536 250.301 246.938C251.134 246.339 251.993 245.811 252.879 245.355C253.777 244.9 254.578 244.672 255.281 244.672C255.997 244.672 256.655 245.089 257.254 245.922C257.866 246.755 258.432 247.882 258.953 249.301C259.474 250.707 259.949 252.276 260.379 254.008C260.809 255.74 261.193 257.517 261.531 259.34C261.883 261.163 262.189 262.914 262.449 264.594C262.723 266.26 262.951 267.732 263.133 269.008C263.328 270.271 263.484 271.208 263.602 271.82C264.214 271.052 265.008 270.115 265.984 269.008C266.974 267.901 268.048 266.69 269.207 265.375C270.366 264.06 271.518 262.706 272.664 261.312C273.823 259.906 274.878 258.52 275.828 257.152C276.792 255.785 277.56 254.503 278.133 253.305C278.719 252.094 279.012 251.033 279.012 250.121C279.012 249.405 278.829 248.819 278.465 248.363C278.113 247.895 277.553 247.66 276.785 247.66C276.512 247.66 276.238 247.693 275.965 247.758C275.691 247.81 275.431 247.882 275.184 247.973C275.978 247.66 276.668 247.257 277.254 246.762C277.84 246.254 278.445 245.805 279.07 245.414C279.708 245.01 280.496 244.809 281.434 244.809C283.009 244.809 283.797 245.577 283.797 247.113C283.797 248.103 283.465 249.268 282.801 250.609C282.137 251.938 281.258 253.363 280.164 254.887C279.083 256.41 277.892 257.96 276.59 259.535C275.288 261.098 273.979 262.615 272.664 264.086C271.349 265.557 270.138 266.918 269.031 268.168C267.924 269.405 267.039 270.447 266.375 271.293C265.763 272.087 265.249 272.725 264.832 273.207C264.428 273.689 263.973 274.118 263.465 274.496C262.957 274.874 262.247 275.303 261.336 275.785C260.906 276.007 260.49 276.228 260.086 276.449C259.682 276.671 259.298 276.944 258.934 277.27ZM327.047 245.023C326.526 245.18 325.914 245.499 325.211 245.98C324.521 246.462 323.837 246.918 323.16 247.348C322.496 247.764 321.943 247.973 321.5 247.973H308.043L305.895 258.422H321.07C320.693 258.513 320.263 258.702 319.781 258.988C319.312 259.275 318.909 259.529 318.57 259.75C318.31 259.919 317.971 260.128 317.555 260.375C317.151 260.622 316.741 260.844 316.324 261.039C315.908 261.234 315.549 261.332 315.25 261.332H305.309L303.922 268.324C303.831 268.78 303.681 269.346 303.473 270.023C303.264 270.688 302.997 271.312 302.672 271.898C302.346 272.484 301.962 272.882 301.52 273.09H317.574C318.251 273.09 319.039 272.953 319.938 272.68C320.849 272.406 321.637 272.159 322.301 271.938C321.988 272.198 321.441 272.549 320.66 272.992C319.892 273.435 319.046 273.891 318.121 274.359C317.197 274.815 316.337 275.206 315.543 275.531C314.749 275.844 314.169 276 313.805 276H296.266C297.268 274.945 297.991 273.91 298.434 272.895C298.889 271.879 299.26 270.668 299.547 269.262L301.129 261.332H298.141L301.637 258.988L303.844 247.973H299.84C300.035 247.829 300.374 247.602 300.855 247.289C301.35 246.977 301.884 246.645 302.457 246.293C303.03 245.941 303.551 245.642 304.02 245.395C304.501 245.147 304.833 245.023 305.016 245.023H327.047ZM345.883 263.305C345.648 264.464 345.421 265.622 345.199 266.781C344.978 267.927 344.659 269.034 344.242 270.102C343.826 271.169 343.207 272.165 342.387 273.09H349.262C348.793 273.259 348.266 273.578 347.68 274.047C347.107 274.516 346.534 274.958 345.961 275.375C345.401 275.792 344.913 276 344.496 276H337.406C338.201 275.284 338.806 274.503 339.223 273.656C339.639 272.81 339.952 271.872 340.16 270.844L344.77 247.973H340.141C340.323 247.842 340.635 247.621 341.078 247.309C341.534 246.983 342.022 246.645 342.543 246.293C343.077 245.941 343.559 245.642 343.988 245.395C344.431 245.147 344.737 245.023 344.906 245.023H356.82C357.667 245.023 358.559 245.069 359.496 245.16C360.447 245.251 361.332 245.453 362.152 245.766C362.973 246.078 363.637 246.56 364.145 247.211C364.665 247.862 364.926 248.747 364.926 249.867C364.926 251.495 364.516 252.979 363.695 254.32C362.888 255.661 361.853 256.853 360.59 257.895C359.34 258.923 358.057 259.802 356.742 260.531C356.26 260.792 355.792 261.033 355.336 261.254C356.182 261.566 357.048 262.172 357.934 263.07C358.819 263.956 359.698 264.971 360.57 266.117C361.443 267.25 362.296 268.35 363.129 269.418C363.962 270.486 364.743 271.371 365.473 272.074C366.215 272.777 366.892 273.129 367.504 273.129C367.882 273.129 368.253 273.064 368.617 272.934C368.982 272.79 369.327 272.621 369.652 272.426C368.806 273.402 367.725 274.262 366.41 275.004C365.108 275.733 363.799 276.098 362.484 276.098C361.951 276.098 361.54 275.922 361.254 275.57C360.967 275.206 360.694 274.835 360.434 274.457L355.355 267.23C354.861 266.527 354.405 265.928 353.988 265.434C353.572 264.926 353.09 264.522 352.543 264.223C352.009 263.91 351.293 263.689 350.395 263.559C349.809 263.48 349.216 263.428 348.617 263.402C348.018 263.363 347.419 263.331 346.82 263.305L346.84 263.285C346.527 263.298 346.208 263.305 345.883 263.305ZM348.949 247.973L346.469 260.316H350.062C351.482 260.316 352.895 260.121 354.301 259.73C355.72 259.327 356.951 258.669 357.992 257.758C359.034 256.846 359.717 255.616 360.043 254.066C360.134 253.65 360.18 253.233 360.18 252.816C360.18 251.788 359.926 250.954 359.418 250.316C358.91 249.678 358.253 249.19 357.445 248.852C356.638 248.513 355.779 248.285 354.867 248.168C353.969 248.038 353.122 247.973 352.328 247.973H348.949ZM389.406 255.512C389.198 255.616 388.996 255.72 388.801 255.824C388.605 255.915 388.423 256.033 388.254 256.176L388.195 256.215C388.195 256.215 388.215 256.202 388.254 256.176C388.697 255.811 389.165 255.362 389.66 254.828C390.155 254.294 390.572 253.721 390.91 253.109C391.249 252.484 391.418 251.872 391.418 251.273C391.418 251.039 391.372 250.805 391.281 250.57C391.203 250.336 391.021 250.219 390.734 250.219C390.526 250.219 390.292 250.297 390.031 250.453C389.771 250.596 389.549 250.727 389.367 250.844L387.785 247.23L392.609 244.32C392.727 244.607 392.896 244.991 393.117 245.473C393.339 245.954 393.54 246.436 393.723 246.918C393.905 247.4 393.996 247.777 393.996 248.051V248.188C393.749 249.659 393.267 251.072 392.551 252.426C391.835 253.78 390.786 254.809 389.406 255.512ZM429.082 245.863C429.082 246.111 428.828 246.449 428.32 246.879C427.826 247.296 427.227 247.725 426.523 248.168C425.82 248.611 425.156 249.008 424.531 249.359C423.906 249.698 423.47 249.926 423.223 250.043C423.431 249.926 423.652 249.743 423.887 249.496C424.121 249.236 424.238 248.982 424.238 248.734C424.238 248.474 424.043 248.259 423.652 248.09C423.262 247.921 422.793 247.79 422.246 247.699C421.712 247.595 421.198 247.523 420.703 247.484C420.221 247.432 419.889 247.406 419.707 247.406C418.496 247.406 417.402 247.582 416.426 247.934C415.462 248.272 414.688 248.839 414.102 249.633C413.529 250.414 413.242 251.475 413.242 252.816C413.242 253.975 413.522 254.9 414.082 255.59C414.655 256.28 415.384 256.84 416.27 257.27C417.168 257.686 418.112 258.064 419.102 258.402C420.104 258.741 421.048 259.132 421.934 259.574C422.832 260.004 423.561 260.577 424.121 261.293C424.694 261.996 424.98 262.934 424.98 264.105C424.98 265.499 424.642 266.82 423.965 268.07C423.288 269.32 422.383 270.46 421.25 271.488C420.117 272.517 418.854 273.409 417.461 274.164C416.081 274.919 414.674 275.505 413.242 275.922C411.823 276.326 410.495 276.527 409.258 276.527C408.88 276.527 408.372 276.475 407.734 276.371C407.096 276.28 406.445 276.124 405.781 275.902C405.117 275.681 404.557 275.401 404.102 275.062C403.646 274.724 403.418 274.307 403.418 273.812C403.418 273.357 403.646 272.895 404.102 272.426C404.57 271.944 405.137 271.488 405.801 271.059C406.478 270.629 407.135 270.245 407.773 269.906C408.424 269.568 408.932 269.307 409.297 269.125C409.036 269.346 408.802 269.613 408.594 269.926C408.398 270.238 408.301 270.577 408.301 270.941C408.301 271.462 408.509 271.892 408.926 272.23C409.342 272.569 409.857 272.836 410.469 273.031C411.081 273.214 411.693 273.344 412.305 273.422C412.917 273.5 413.411 273.539 413.789 273.539C415.664 273.539 417.227 272.992 418.477 271.898C419.727 270.805 420.352 269.281 420.352 267.328C420.352 266.169 420.065 265.225 419.492 264.496C418.919 263.754 418.177 263.142 417.266 262.66C416.367 262.165 415.41 261.723 414.395 261.332C413.392 260.941 412.435 260.525 411.523 260.082C410.625 259.639 409.889 259.086 409.316 258.422C408.757 257.758 408.477 256.905 408.477 255.863C408.477 255.473 408.516 255.089 408.594 254.711C408.815 253.682 409.336 252.673 410.156 251.684C410.977 250.681 411.973 249.75 413.145 248.891C414.329 248.018 415.586 247.25 416.914 246.586C418.255 245.922 419.564 245.401 420.84 245.023C422.116 244.646 423.249 244.457 424.238 244.457C424.447 244.457 424.811 244.483 425.332 244.535C425.853 244.574 426.4 244.652 426.973 244.77C427.559 244.874 428.053 245.017 428.457 245.199C428.874 245.368 429.082 245.59 429.082 245.863Z" fill="black"/>
<path d="M115.688 350.797C114.49 352.047 113.031 353.31 111.312 354.586C109.62 355.836 107.823 356.891 105.922 357.75C104.021 358.583 102.172 359 100.375 359H69.3984C71.2995 357.542 72.7188 356.044 73.6562 354.508C74.6198 352.971 75.3359 351.031 75.8047 348.688L85.0234 302.945H76.8984C77.2891 302.685 77.9271 302.242 78.8125 301.617C79.724 300.966 80.7135 300.289 81.7812 299.586C82.849 298.883 83.8255 298.284 84.7109 297.789C85.5964 297.294 86.2083 297.047 86.5469 297.047H106.195C105.232 297.333 104.151 297.958 102.953 298.922C101.755 299.885 100.583 300.797 99.4375 301.656C98.3177 302.516 97.3542 302.945 96.5469 302.945H93.3828L86.9766 334.938C86.612 336.734 86.2474 338.544 85.8828 340.367C85.5443 342.19 85.1667 344 84.75 345.797C84.4115 347.203 83.7734 348.583 82.8359 349.938C81.9245 351.292 80.8568 352.372 79.6328 353.18H107.289C108.721 353.18 110.18 352.984 111.664 352.594C113.148 352.203 114.49 351.604 115.688 350.797ZM209.375 297.047C208.333 297.359 207.109 297.997 205.703 298.961C204.323 299.924 202.956 300.836 201.602 301.695C200.273 302.529 199.167 302.945 198.281 302.945H171.367L167.07 323.844H197.422C196.667 324.026 195.807 324.404 194.844 324.977C193.906 325.549 193.099 326.057 192.422 326.5C191.901 326.839 191.224 327.255 190.391 327.75C189.583 328.245 188.763 328.688 187.93 329.078C187.096 329.469 186.38 329.664 185.781 329.664H165.898L163.125 343.648C162.943 344.56 162.643 345.693 162.227 347.047C161.81 348.375 161.276 349.625 160.625 350.797C159.974 351.969 159.206 352.763 158.32 353.18H190.43C191.784 353.18 193.359 352.906 195.156 352.359C196.979 351.812 198.555 351.318 199.883 350.875C199.258 351.396 198.164 352.099 196.602 352.984C195.065 353.87 193.372 354.781 191.523 355.719C189.674 356.63 187.956 357.411 186.367 358.062C184.779 358.688 183.62 359 182.891 359H147.812C149.818 356.891 151.263 354.82 152.148 352.789C153.06 350.758 153.802 348.336 154.375 345.523L157.539 329.664H151.562L158.555 324.977L162.969 302.945H154.961C155.352 302.659 156.029 302.203 156.992 301.578C157.982 300.953 159.049 300.289 160.195 299.586C161.341 298.883 162.383 298.284 163.32 297.789C164.284 297.294 164.948 297.047 165.312 297.047H209.375ZM312.438 297.047C311.292 297.516 310.237 298.141 309.273 298.922C308.31 299.703 307.333 300.471 306.344 301.227C305.38 301.982 304.299 302.529 303.102 302.867C301.539 311.018 299.742 318.987 297.711 326.773C295.68 334.56 293.193 342.333 290.25 350.094C289.964 350.849 289.664 351.617 289.352 352.398C289.065 353.18 288.701 353.909 288.258 354.586C287.789 355.263 287.086 355.966 286.148 356.695C285.211 357.424 284.221 358.128 283.18 358.805C282.164 359.456 281.292 360.016 280.562 360.484C280.589 358.609 280.367 357.008 279.898 355.68C279.43 354.352 278.727 352.88 277.789 351.266C276.331 348.792 274.924 346.292 273.57 343.766C272.216 341.24 270.849 338.727 269.469 336.227C266.917 331.643 264.312 327.086 261.656 322.555C259.026 317.997 256.227 313.57 253.258 309.273L248.297 333.961C247.672 337.138 246.995 340.393 246.266 343.727C245.562 347.034 244.56 350.185 243.258 353.18H257.164C256.773 353.414 256.122 353.844 255.211 354.469C254.299 355.094 253.31 355.758 252.242 356.461C251.174 357.164 250.198 357.763 249.312 358.258C248.427 358.753 247.841 359 247.555 359H233.453C236.057 356.083 237.932 352.88 239.078 349.391C240.224 345.901 241.174 342.294 241.93 338.57C243.102 332.659 244.221 326.734 245.289 320.797C246.357 314.859 247.32 308.909 248.18 302.945H238.375C238.74 302.685 239.365 302.242 240.25 301.617C241.161 300.966 242.138 300.289 243.18 299.586C244.247 298.883 245.224 298.284 246.109 297.789C246.995 297.294 247.607 297.047 247.945 297.047H264.156C263.349 297.411 262.607 297.854 261.93 298.375C261.253 298.896 260.562 299.417 259.859 299.938C265.12 307.021 270.003 314.352 274.508 321.93C279.013 329.482 283.336 337.138 287.477 344.898C288.518 341.565 289.547 338.219 290.562 334.859C291.578 331.5 292.438 328.102 293.141 324.664C293.87 321.07 294.521 317.464 295.094 313.844C295.693 310.224 296.227 306.591 296.695 302.945H286.695C287.06 302.685 287.685 302.242 288.57 301.617C289.482 300.966 290.458 300.289 291.5 299.586C292.542 298.883 293.505 298.284 294.391 297.789C295.276 297.294 295.888 297.047 296.227 297.047H312.438ZM381.477 298.727C381.477 299.221 380.969 299.898 379.953 300.758C378.964 301.591 377.766 302.451 376.359 303.336C374.953 304.221 373.625 305.016 372.375 305.719C371.125 306.396 370.253 306.852 369.758 307.086C370.174 306.852 370.617 306.487 371.086 305.992C371.555 305.471 371.789 304.964 371.789 304.469C371.789 303.948 371.398 303.518 370.617 303.18C369.836 302.841 368.898 302.581 367.805 302.398C366.737 302.19 365.708 302.047 364.719 301.969C363.755 301.865 363.091 301.812 362.727 301.812C360.305 301.812 358.117 302.164 356.164 302.867C354.237 303.544 352.688 304.677 351.516 306.266C350.37 307.828 349.797 309.951 349.797 312.633C349.797 314.951 350.357 316.799 351.477 318.18C352.622 319.56 354.081 320.68 355.852 321.539C357.648 322.372 359.536 323.128 361.516 323.805C363.521 324.482 365.409 325.263 367.18 326.148C368.977 327.008 370.435 328.154 371.555 329.586C372.701 330.992 373.273 332.867 373.273 335.211C373.273 337.997 372.596 340.641 371.242 343.141C369.888 345.641 368.078 347.919 365.812 349.977C363.547 352.034 361.021 353.818 358.234 355.328C355.474 356.839 352.661 358.01 349.797 358.844C346.958 359.651 344.302 360.055 341.828 360.055C341.073 360.055 340.057 359.951 338.781 359.742C337.505 359.56 336.203 359.247 334.875 358.805C333.547 358.362 332.427 357.802 331.516 357.125C330.604 356.448 330.148 355.615 330.148 354.625C330.148 353.714 330.604 352.789 331.516 351.852C332.453 350.888 333.586 349.977 334.914 349.117C336.268 348.258 337.583 347.49 338.859 346.812C340.161 346.135 341.177 345.615 341.906 345.25C341.385 345.693 340.917 346.227 340.5 346.852C340.109 347.477 339.914 348.154 339.914 348.883C339.914 349.924 340.331 350.784 341.164 351.461C341.997 352.138 343.026 352.672 344.25 353.062C345.474 353.427 346.698 353.688 347.922 353.844C349.146 354 350.135 354.078 350.891 354.078C354.641 354.078 357.766 352.984 360.266 350.797C362.766 348.609 364.016 345.562 364.016 341.656C364.016 339.339 363.443 337.451 362.297 335.992C361.151 334.508 359.667 333.284 357.844 332.32C356.047 331.331 354.133 330.445 352.102 329.664C350.096 328.883 348.182 328.049 346.359 327.164C344.562 326.279 343.091 325.172 341.945 323.844C340.826 322.516 340.266 320.81 340.266 318.727C340.266 317.945 340.344 317.177 340.5 316.422C340.943 314.365 341.984 312.346 343.625 310.367C345.266 308.362 347.258 306.5 349.602 304.781C351.971 303.036 354.484 301.5 357.141 300.172C359.823 298.844 362.44 297.802 364.992 297.047C367.544 296.292 369.81 295.914 371.789 295.914C372.206 295.914 372.935 295.966 373.977 296.07C375.018 296.148 376.112 296.305 377.258 296.539C378.43 296.747 379.419 297.034 380.227 297.398C381.06 297.737 381.477 298.18 381.477 298.727ZM469.109 297.047C468.068 297.359 466.844 297.997 465.438 298.961C464.057 299.924 462.69 300.836 461.336 301.695C460.008 302.529 458.901 302.945 458.016 302.945H431.102L426.805 323.844H457.156C456.401 324.026 455.542 324.404 454.578 324.977C453.641 325.549 452.833 326.057 452.156 326.5C451.635 326.839 450.958 327.255 450.125 327.75C449.318 328.245 448.497 328.688 447.664 329.078C446.831 329.469 446.115 329.664 445.516 329.664H425.633L422.859 343.648C422.677 344.56 422.378 345.693 421.961 347.047C421.544 348.375 421.01 349.625 420.359 350.797C419.708 351.969 418.94 352.763 418.055 353.18H450.164C451.518 353.18 453.094 352.906 454.891 352.359C456.714 351.812 458.289 351.318 459.617 350.875C458.992 351.396 457.898 352.099 456.336 352.984C454.799 353.87 453.107 354.781 451.258 355.719C449.409 356.63 447.69 357.411 446.102 358.062C444.513 358.688 443.354 359 442.625 359H407.547C409.552 356.891 410.997 354.82 411.883 352.789C412.794 350.758 413.536 348.336 414.109 345.523L417.273 329.664H411.297L418.289 324.977L422.703 302.945H414.695C415.086 302.659 415.763 302.203 416.727 301.578C417.716 300.953 418.784 300.289 419.93 299.586C421.076 298.883 422.117 298.284 423.055 297.789C424.018 297.294 424.682 297.047 425.047 297.047H469.109ZM534.789 298.727C534.789 299.221 534.281 299.898 533.266 300.758C532.276 301.591 531.078 302.451 529.672 303.336C528.266 304.221 526.938 305.016 525.688 305.719C524.438 306.396 523.565 306.852 523.07 307.086C523.487 306.852 523.93 306.487 524.398 305.992C524.867 305.471 525.102 304.964 525.102 304.469C525.102 303.948 524.711 303.518 523.93 303.18C523.148 302.841 522.211 302.581 521.117 302.398C520.049 302.19 519.021 302.047 518.031 301.969C517.068 301.865 516.404 301.812 516.039 301.812C513.617 301.812 511.43 302.164 509.477 302.867C507.549 303.544 506 304.677 504.828 306.266C503.682 307.828 503.109 309.951 503.109 312.633C503.109 314.951 503.669 316.799 504.789 318.18C505.935 319.56 507.393 320.68 509.164 321.539C510.961 322.372 512.849 323.128 514.828 323.805C516.833 324.482 518.721 325.263 520.492 326.148C522.289 327.008 523.747 328.154 524.867 329.586C526.013 330.992 526.586 332.867 526.586 335.211C526.586 337.997 525.909 340.641 524.555 343.141C523.201 345.641 521.391 347.919 519.125 349.977C516.859 352.034 514.333 353.818 511.547 355.328C508.786 356.839 505.974 358.01 503.109 358.844C500.271 359.651 497.615 360.055 495.141 360.055C494.385 360.055 493.37 359.951 492.094 359.742C490.818 359.56 489.516 359.247 488.188 358.805C486.859 358.362 485.74 357.802 484.828 357.125C483.917 356.448 483.461 355.615 483.461 354.625C483.461 353.714 483.917 352.789 484.828 351.852C485.766 350.888 486.898 349.977 488.227 349.117C489.581 348.258 490.896 347.49 492.172 346.812C493.474 346.135 494.49 345.615 495.219 345.25C494.698 345.693 494.229 346.227 493.812 346.852C493.422 347.477 493.227 348.154 493.227 348.883C493.227 349.924 493.643 350.784 494.477 351.461C495.31 352.138 496.339 352.672 497.562 353.062C498.786 353.427 500.01 353.688 501.234 353.844C502.458 354 503.448 354.078 504.203 354.078C507.953 354.078 511.078 352.984 513.578 350.797C516.078 348.609 517.328 345.562 517.328 341.656C517.328 339.339 516.755 337.451 515.609 335.992C514.464 334.508 512.979 333.284 511.156 332.32C509.359 331.331 507.445 330.445 505.414 329.664C503.409 328.883 501.495 328.049 499.672 327.164C497.875 326.279 496.404 325.172 495.258 323.844C494.138 322.516 493.578 320.81 493.578 318.727C493.578 317.945 493.656 317.177 493.812 316.422C494.255 314.365 495.297 312.346 496.938 310.367C498.578 308.362 500.57 306.5 502.914 304.781C505.284 303.036 507.797 301.5 510.453 300.172C513.135 298.844 515.753 297.802 518.305 297.047C520.857 296.292 523.122 295.914 525.102 295.914C525.518 295.914 526.247 295.966 527.289 296.07C528.331 296.148 529.424 296.305 530.57 296.539C531.742 296.747 532.732 297.034 533.539 297.398C534.372 297.737 534.789 298.18 534.789 298.727Z" fill="black"/>
</svg>
