<svg xmlns="http://www.w3.org/2000/svg" version="1.1" xmlns:xlink="http://www.w3.org/1999/xlink" width="1000" height="1000"><g clip-path="url(#SvgjsClipPath1192)"><rect width="1000" height="1000" fill="#ffffff"></rect><g transform="matrix(3.64374577065223,0,0,3.64374577065223,167.47176097027744,150)"><svg xmlns="http://www.w3.org/2000/svg" version="1.1" xmlns:xlink="http://www.w3.org/1999/xlink" width="182.52" height="192.11"><svg id="Layer_2" data-name="Layer 2" xmlns="http://www.w3.org/2000/svg" viewBox="0 0 182.52 192.11">
  <defs>
    <style>
      .cls-1 {
        fill: #231f20;
        stroke-width: 0px;
      }
    </style>
  <clipPath id="SvgjsClipPath1192"><rect width="1000" height="1000" x="0" y="0" rx="200" ry="200"></rect></clipPath></defs>
  <g id="Layer_2-2" data-name="Layer 2">
    <g>
      <polygon class="cls-1" points="182.48 1 170.52 1 171.64 0 181.59 0 182.48 1"></polygon>
      <polygon class="cls-1" points="182.34 190.48 181.85 191.11 170.19 191.11 91.56 129.2 91.56 119.02 182.34 190.48"></polygon>
      <polygon class="cls-1" points="181.85 191.11 181.06 192.11 171.46 192.11 170.19 191.11 181.85 191.11"></polygon>
      <polygon class="cls-1" points="170.52 1 182.48 1 182.52 1.05 179.77 3.49 91.56 81.64 91.56 70.94 170.52 1"></polygon>
      <rect class="cls-1" x="83.56" y="191.11" width="8" height=".5"></rect>
      <polygon class="cls-1" points="91.56 129.2 91.56 191.11 83.56 191.11 83.56 122.9 91.56 129.2"></polygon>
      <polygon class="cls-1" points="91.56 119.02 91.56 129.2 83.56 122.9 83.56 112.72 91.56 119.02"></polygon>
      <polygon class="cls-1" points="91.56 81.64 91.56 119.02 83.56 112.72 83.56 88.73 91.56 81.64"></polygon>
      <polygon class="cls-1" points="91.56 70.94 91.56 81.64 83.56 88.73 83.56 78.03 91.56 70.94"></polygon>
      <polygon class="cls-1" points="91.56 1 91.56 70.94 83.56 78.03 83.56 35.58 9.23 191.11 .39 191.11 .93 189.94 91.22 1 91.56 1"></polygon>
      <polygon class="cls-1" points="91.56 .28 91.56 1 91.22 1 91.56 .28"></polygon>
      <polygon class="cls-1" points="83.56 112.72 83.56 122.9 56.74 101.79 83.56 78.03 83.56 88.73 69.22 101.43 83.56 112.72"></polygon>
      <polygon class="cls-1" points="9.23 191.11 8.75 192.11 .33 192.11 0 191.96 .39 191.11 9.23 191.11"></polygon>
    </g>
  </g>
</svg></svg></g></g></svg>