<?xml version="1.0" encoding="UTF-8"?>
<svg id="Layer_2" data-name="Layer 2" xmlns="http://www.w3.org/2000/svg" viewBox="0 0 280.24 464.83">
  <defs>
    <style>
      .cls-1 {
        fill: #58595b;
      }

      .cls-1, .cls-2, .cls-3 {
        stroke-width: 0px;
      }

      .cls-2 {
        fill: #fff;
      }

      .cls-3 {
        fill: #231f20;
      }
    </style>
  </defs>
  <g id="Layer_5" data-name="Layer 5">
    <g>
      <polygon class="cls-2" points="119.89 118.18 119.89 123.14 119.26 131.36 86.24 131.36 86.24 118.18 119.89 118.18"/>
      <polygon class="cls-2" points="194.36 118.18 194.36 131.36 161.38 131.36 161.07 123.16 161.07 118.18 194.36 118.18"/>
      <polygon class="cls-3" points="280.24 325.6 140.3 464.83 0 325.6 50.49 312.46 50.56 312.72 49.58 314.46 49.94 314.66 3.9 326.65 140.3 462.01 276.36 326.64 182.36 301.83 182.36 224.64 184.36 222.82 184.36 300.29 280.24 325.6"/>
      <polygon class="cls-3" points="276.36 326.64 140.3 462.01 3.9 326.65 49.94 314.66 139.81 365.46 140.29 365.74 189.79 338.44 139 270.39 140.31 269.41 141.43 267.61 149.42 254.76 149.42 245.94 159.04 245.94 182.36 224.64 182.36 301.83 276.36 326.64"/>
      <polygon class="cls-3" points="212.51 0 255.78 80.46 255.55 80.92 229.54 132.59 229.54 183.76 204.48 198.23 204.48 204.44 184.36 222.82 184.36 222.54 182.36 222.54 182.06 222.21 202.48 203.56 202.48 197.07 227.54 182.6 227.54 132.12 227.64 131.91 253.53 80.49 211.38 2.13 140.3 9.48 140.2 9.47 68.52 2.13 27.07 81.54 51.07 128.24 51.07 132.36 50.97 132.41 24.82 81.53 25.06 81.07 67.37 0 140.3 7.47 212.51 0"/>
      <polygon class="cls-3" points="211.38 2.13 253.53 80.49 227.64 131.91 227.54 132.12 227.54 182.6 202.48 197.07 202.48 203.56 182.06 222.21 158.27 243.94 150.12 243.94 150.12 235.57 179.42 214.4 179.42 199.24 179.96 199.35 179.42 197.83 179.42 155.46 202.01 139.58 202.01 128.16 203.14 127.08 202.01 125.89 202.01 113.19 187.59 100.88 191.46 65.65 160.85 33.59 120.48 33.59 77.89 74.76 77.89 126.75 77.61 126.95 77.89 127.35 77.89 196.64 64.36 188.96 64.36 61.03 87.38 28.27 51.07 60.26 51.07 128.24 27.07 81.54 68.52 2.13 140.2 9.47 140.3 9.48 211.38 2.13"/>
      <polygon class="cls-3" points="202.01 125.89 203.14 127.08 202.01 128.16 202.01 125.89"/>
      <polygon class="cls-3" points="202.01 128.16 202.01 139.58 179.42 155.46 179.42 197.83 177.42 192.19 177.42 154.43 200.01 138.54 200.01 126.7 201.69 128.46 202.01 128.16"/>
      <polygon class="cls-3" points="202.01 125.89 202.01 128.16 201.69 128.46 200.01 126.7 200.01 123.79 202.01 125.89"/>
      <polygon class="cls-3" points="202.01 113.19 202.01 125.89 200.01 123.79 200.01 114.11 185.48 101.71 189.37 66.36 159.99 35.59 121.29 35.59 79.89 75.6 79.89 125.35 77.89 126.75 77.89 74.76 120.48 33.59 160.85 33.59 191.46 65.65 187.59 100.88 202.01 113.19"/>
      <polygon class="cls-1" points="200.01 126.7 200.01 138.54 177.42 154.43 177.42 192.19 175.31 186.25 144.37 176.77 138.82 175.07 105.28 185.91 100.66 199.35 139.95 190.91 140.72 191.07 177.42 198.81 177.42 213.38 150.12 233.11 150.12 224.21 141.48 213.74 140.33 212.35 129.76 224.2 130.44 243.94 119.57 243.94 119.18 243.94 99.42 224.36 79.89 205 79.89 198.36 79.89 197.77 79.89 127.8 84.24 124.76 84.24 133.36 121.11 133.36 121.81 124.18 131.18 124.18 131.18 168.3 143.12 168.3 143.12 166.3 133.18 166.3 133.18 124.18 159.1 124.18 159.46 133.36 196.36 133.36 196.36 122.87 200.01 126.7"/>
      <polygon class="cls-3" points="200.01 123.79 200.01 126.7 196.36 122.87 196.36 119.96 200.01 123.79"/>
      <path class="cls-1" d="M200.01,114.11v9.68l-3.65-3.83v-3.78h-37.29v6h-25.89v-1.18l-11.17-11.17h-31.12v2h30.29l10,10v.35h-9.29v-6h-37.65v6.13l-4.35,3.04v-49.75l41.4-40.01h38.7l29.38,30.77-3.89,35.35,14.53,12.4ZM190.42,111.83v-2h-31.77v2h31.77Z"/>
      <path class="cls-3" d="M196.36,122.87v10.49h-36.9l-.36-9.18h-25.92v-2h25.89v-6h37.29v3.78l-.28-.29-1.45,1.38,1.73,1.82ZM194.36,131.36v-13.18h-33.29v4.98l.31,8.2h32.98Z"/>
      <polygon class="cls-3" points="196.36 119.96 196.36 122.87 194.63 121.05 196.08 119.67 196.36 119.96"/>
      <rect class="cls-3" x="158.65" y="109.83" width="31.77" height="2"/>
      <polygon class="cls-3" points="139 270.39 189.79 338.44 140.29 365.74 139.81 365.46 49.94 314.66 52.72 313.94 140.31 363.45 186.81 337.8 118.01 245.59 118.36 245.94 120.76 245.94 139 270.39"/>
      <polygon class="cls-1" points="118.01 245.59 186.81 337.8 140.31 363.45 52.72 313.94 97.21 302.36 97.21 320.47 99.21 320.47 99.21 226.96 117.97 245.55 118.01 245.59"/>
      <polygon class="cls-3" points="184.36 222.54 184.36 222.82 182.36 224.64 182.36 222.54 184.36 222.54"/>
      <polygon class="cls-3" points="182.36 222.54 182.36 224.64 159.04 245.94 149.42 245.94 149.42 254.76 141.43 267.61 141.3 267.53 141.3 264.04 147.42 254.19 147.42 243.94 148.12 243.94 148.12 244.94 150.12 244.94 150.12 243.94 158.27 243.94 182.06 222.21 182.36 222.54"/>
      <polygon class="cls-3" points="179.42 197.83 179.96 199.35 179.42 199.24 179.42 197.83"/>
      <polygon class="cls-3" points="179.42 199.24 179.42 214.4 150.12 235.57 150.12 233.11 177.42 213.38 177.42 198.81 179.42 199.24"/>
      <polygon class="cls-3" points="179.42 197.83 179.42 199.24 177.42 198.81 177.42 196.66 177.42 192.19 179.42 197.83"/>
      <polygon class="cls-3" points="177.42 196.66 177.42 198.81 140.72 191.07 140.92 190.13 141.18 189.12 176.88 196.66 177.42 196.66"/>
      <polygon class="cls-3" points="177.42 192.19 177.42 196.66 176.88 196.66 173.76 187.87 143.83 178.7 144.09 177.68 144.37 176.77 175.31 186.25 177.42 192.19"/>
      <polygon class="cls-3" points="173.76 187.87 176.88 196.66 141.18 189.12 143.83 178.7 173.76 187.87"/>
      <rect class="cls-3" x="148.12" y="243.94" width="2" height="1"/>
      <polygon class="cls-3" points="150.12 235.57 150.12 243.94 148.12 243.94 148.12 224.93 141.3 216.67 141.3 213.89 141.48 213.74 150.12 224.21 150.12 233.11 148.54 234.25 149.71 235.87 150.12 235.57"/>
      <polygon class="cls-3" points="150.12 233.11 150.12 235.57 149.71 235.87 148.54 234.25 150.12 233.11"/>
      <polygon class="cls-3" points="148.12 224.93 148.12 243.94 147.42 243.94 147.42 254.19 141.3 264.04 141.3 216.67 148.12 224.93"/>
      <polygon class="cls-3" points="144.37 176.77 144.09 177.68 142.16 177.19 141.92 178.11 138.84 177.17 106.85 187.51 103.7 196.65 139.13 189.04 138.98 189.64 140.92 190.13 140.72 191.07 139.95 190.91 100.66 199.35 105.28 185.91 138.82 175.07 144.37 176.77"/>
      <polygon class="cls-3" points="144.09 177.68 143.83 178.7 141.92 178.11 142.16 177.19 144.09 177.68"/>
      <polygon class="cls-3" points="143.83 178.7 141.18 189.12 139.95 188.86 139.13 189.04 141.92 178.11 143.83 178.7"/>
      <polygon class="cls-3" points="143.12 166.3 143.12 168.3 131.18 168.3 131.18 124.18 133.18 124.18 133.18 166.3 143.12 166.3"/>
      <polygon class="cls-1" points="141.92 178.11 139.13 189.04 103.7 196.65 106.85 187.51 138.84 177.17 141.92 178.11"/>
      <polygon class="cls-3" points="140.33 212.35 141.48 213.74 141.3 213.89 139.3 213.89 139.3 216.51 131.78 224.93 132.45 243.94 130.44 243.94 129.76 224.2 140.33 212.35"/>
      <polygon class="cls-3" points="141.43 267.61 140.31 269.41 130.48 254.06 130.48 245.94 120.76 245.94 119.57 244.35 119.57 243.94 130.44 243.94 130.48 244.98 132.48 244.91 132.48 253.47 139.3 264.11 139.3 267.53 141.3 267.53 141.43 267.61"/>
      <polygon class="cls-3" points="141.3 264.04 141.3 267.53 139.3 267.53 139.3 264.11 140.29 265.66 141.3 264.04"/>
      <polygon class="cls-3" points="141.3 216.67 141.3 264.04 140.29 265.66 139.3 264.11 139.3 216.51 140.27 215.42 141.3 216.67"/>
      <polygon class="cls-3" points="141.3 213.89 141.3 216.67 140.27 215.42 139.3 216.51 139.3 213.89 141.3 213.89"/>
      <polygon class="cls-3" points="141.18 189.12 140.92 190.13 138.98 189.64 139.13 189.04 139.95 188.86 141.18 189.12"/>
      <polygon class="cls-3" points="130.48 254.06 140.31 269.41 139 270.39 120.76 245.94 130.48 245.94 130.48 254.06"/>
      <polygon class="cls-1" points="139.3 216.51 139.3 264.11 132.48 253.47 132.48 244.91 132.48 243.94 132.45 243.94 131.78 224.93 139.3 216.51"/>
      <rect class="cls-3" x="131.18" y="122.18" width="2" height="2"/>
      <polygon class="cls-3" points="133.18 121 133.18 122.18 131.18 122.18 131.18 121.83 121.18 111.83 90.89 111.83 90.89 109.83 122.01 109.83 133.18 121"/>
      <polygon class="cls-3" points="132.48 243.94 132.48 244.91 132.45 243.94 132.48 243.94"/>
      <polygon class="cls-3" points="132.45 243.94 132.48 244.91 130.48 244.98 130.44 243.94 132.45 243.94"/>
      <path class="cls-3" d="M131.18,122.18v2h-9.37l-.7,9.18h-36.87v-8.6l1.58-1.11-1.15-1.64-.43.3v-6.13h37.65v6h9.29ZM119.89,123.14v-4.96h-33.65v13.18h33.02l.63-8.22Z"/>
      <polygon class="cls-3" points="119.57 244.35 120.76 245.94 118.36 245.94 118.01 245.59 117.97 245.55 117.97 245.54 119.57 244.35"/>
      <polygon class="cls-3" points="119.57 243.94 119.57 244.35 117.97 245.54 117.97 245.55 99.21 226.96 99.21 224.57 99.42 224.36 119.18 243.94 119.57 243.94"/>
      <polygon class="cls-3" points="99.42 224.36 99.21 224.57 97.21 224.57 97.21 224.98 77.89 205.83 77.89 198.94 77.64 198.8 77.89 198.36 79.89 198.36 79.89 205 99.42 224.36"/>
      <polygon class="cls-3" points="99.21 226.96 99.21 320.47 97.21 320.47 97.21 302.36 98.46 302.03 97.96 300.1 97.21 300.3 97.21 224.98 99.21 226.96"/>
      <polygon class="cls-3" points="99.21 224.57 99.21 226.96 97.21 224.98 97.21 224.57 99.21 224.57"/>
      <polygon class="cls-3" points="97.96 300.1 98.46 302.03 97.21 302.36 97.21 300.3 97.96 300.1"/>
      <polygon class="cls-3" points="97.21 300.3 97.21 302.36 52.72 313.94 50.56 312.72 50.49 312.46 97.21 300.3"/>
      <polygon class="cls-3" points="87.38 28.27 64.36 61.03 64.36 188.96 62.36 187.83 62.36 60.39 76.05 40.92 53.07 61.16 53.07 132.36 53.06 132.36 53.06 132.11 51.07 128.24 51.07 60.26 87.38 28.27"/>
      <polygon class="cls-3" points="84.67 122.01 85.82 123.65 84.24 124.76 84.24 122.31 84.67 122.01"/>
      <polygon class="cls-3" points="84.24 122.31 84.24 124.76 79.89 127.8 79.89 125.35 84.24 122.31"/>
      <polygon class="cls-3" points="79.89 197.77 79.89 198.36 77.89 198.36 77.89 196.64 79.89 197.77"/>
      <polygon class="cls-3" points="79.89 127.8 79.89 197.77 77.89 196.64 77.89 127.35 78.76 128.59 79.89 127.8"/>
      <polygon class="cls-3" points="79.89 125.35 79.89 127.8 78.76 128.59 77.89 127.35 77.89 126.75 79.89 125.35"/>
      <polygon class="cls-3" points="77.89 196.64 77.89 198.36 77.64 198.8 62.26 190.07 62.36 189.89 64.36 189.89 64.36 188.96 77.89 196.64"/>
      <polygon class="cls-3" points="77.89 126.75 77.89 127.35 77.61 126.95 77.89 126.75"/>
      <polygon class="cls-1" points="76.05 40.92 62.36 60.39 62.36 187.83 53.76 182.95 53.06 132.36 53.07 132.36 53.07 61.16 76.05 40.92"/>
      <polygon class="cls-3" points="64.36 188.96 64.36 189.89 62.36 189.89 62.36 187.83 64.36 188.96"/>
      <polygon class="cls-3" points="62.36 187.83 62.36 189.89 62.26 190.07 51.78 184.12 51.07 132.6 50.97 132.41 51.07 132.36 53.06 132.36 53.76 182.95 62.36 187.83"/>
      <polygon class="cls-3" points="53.06 132.11 53.06 132.36 51.07 132.36 51.07 128.24 53.06 132.11"/>
      <polygon class="cls-3" points="52.72 313.94 49.94 314.66 49.58 314.46 50.56 312.72 52.72 313.94"/>
    </g>
    <rect class="cls-2" x="133.12" y="124.18" width="2" height="42.12"/>
  </g>
</svg>