<?xml version="1.0" encoding="UTF-8"?>
<svg id="Layer_2" data-name="Layer 2" xmlns="http://www.w3.org/2000/svg" viewBox="0 0 184.01 194.11">
  <defs>
    <style>
      .cls-1 {
        fill: #231f20;
        stroke-width: 0px;
      }
    </style>
  </defs>
  <g id="Layer_4" data-name="Layer 4">
    <polygon class="cls-1" points="184.01 1.95 184.01 5.76 182.01 7.87 182.01 2 176.56 2 178.45 0 181.96 0 184.01 1.95"/>
    <polygon class="cls-1" points="182.01 192.11 182.01 186.24 184.01 188.35 184.01 192.16 181.96 194.11 178.45 194.11 176.56 192.11 182.01 192.11"/>
    <polygon class="cls-1" points="182.01 186.24 182.01 192.11 176.56 192.11 92.01 102.87 97.51 97.06 182.01 186.24"/>
    <polygon class="cls-1" points="182.01 2 182.01 7.87 97.51 97.06 92.01 91.24 176.56 2 182.01 2"/>
    <polygon class="cls-1" points="92.01 91.24 97.51 97.06 92.01 102.87 86.5 97.06 92.01 91.24"/>
    <polygon class="cls-1" points="92.01 91.24 86.5 97.06 2 7.87 2 2 7.45 2 92.01 91.24"/>
    <polygon class="cls-1" points="92.01 102.87 7.45 192.11 2 192.11 2 186.24 86.5 97.06 92.01 102.87"/>
    <polygon class="cls-1" points="2 192.11 7.45 192.11 5.56 194.11 2.05 194.11 0 192.16 0 188.35 2 186.24 2 192.11"/>
    <polygon class="cls-1" points="2 2 2 7.87 0 5.76 0 1.95 2.05 0 5.56 0 7.45 2 2 2"/>
  </g>
</svg>