<svg width="151" height="214" viewBox="0 0 151 214" fill="none" xmlns="http://www.w3.org/2000/svg">
<g clip-path="url(#clip0_79_335)">
<path d="M151 0H0V214H151V0Z" fill="white"/>
<path d="M73.0892 20.3325H10.1514V30.4988H73.0892V20.3325Z" fill="#A6A6A6"/>
<path d="M141.103 20.3325H78.165V30.4988H141.103V20.3325Z" fill="#A6A6A6"/>
<path d="M73.0892 107H10.1514V117.166H73.0892V107Z" fill="#A6A6A6"/>
<path d="M141.103 107H78.165V117.166H141.103V107Z" fill="#A6A6A6"/>
<path d="M73.0892 38.1235H10.1514V43.2067H73.0892V38.1235Z" fill="#A6A6A6"/>
<path d="M73.0892 124.791H10.1514V188.584H73.0892V124.791Z" fill="#A6A6A6"/>
<path d="M73.0892 45.7482H10.1514V50.8313H73.0892V45.7482Z" fill="#A6A6A6"/>
<path d="M141.103 38.1235H78.165V43.2067H141.103V38.1235Z" fill="#A6A6A6"/>
<path d="M95.9297 45.7482H78.165V50.8313H95.9297V45.7482Z" fill="#A6A6A6"/>
<path d="M141.103 53.3729H78.165V58.4561H141.103V53.3729Z" fill="#A6A6A6"/>
<path d="M141.103 60.9977H78.165V66.0808H141.103V60.9977Z" fill="#A6A6A6"/>
<path d="M140.849 68.6223H78.165V73.7055H140.849V68.6223Z" fill="#A6A6A6"/>
<path d="M129.429 83.8717H78.165V88.9548H129.429V83.8717Z" fill="#A6A6A6"/>
<path d="M140.849 76.2471H78.165V81.3302H140.849V76.2471Z" fill="#A6A6A6"/>
<path d="M141.103 124.791H78.165V129.874H141.103V124.791Z" fill="#A6A6A6"/>
<path d="M140.849 132.416H78.165V137.499H140.849V132.416Z" fill="#A6A6A6"/>
<path d="M129.429 147.665H78.165V152.748H129.429V147.665Z" fill="#A6A6A6"/>
<path d="M95.676 175.622H78.165V180.705H95.676V175.622Z" fill="#A6A6A6"/>
<path d="M95.676 183.247H78.165V188.33H95.676V183.247Z" fill="#A6A6A6"/>
<path d="M140.849 140.04H78.165V145.124H140.849V140.04Z" fill="#A6A6A6"/>
<path d="M50.2488 53.3729H10.1514V58.4561H50.2488V53.3729Z" fill="#A6A6A6"/>
<path d="M73.0892 68.6223H10.1514V73.7055H73.0892V68.6223Z" fill="#A6A6A6"/>
<path d="M73.0892 76.2471H10.1514V81.3302H73.0892V76.2471Z" fill="#A6A6A6"/>
<path d="M73.0892 83.8717H10.1514V88.9548H73.0892V83.8717Z" fill="#A6A6A6"/>
<path d="M140.849 201.292H133.235V208.917H140.849V201.292Z" fill="#A6A6A6"/>
<path d="M39.0825 91.4965H10.1514V96.5796H39.0825V91.4965Z" fill="#A6A6A6"/>
</g>
<defs>
<clipPath id="clip0_79_335">
<rect width="151" height="214" fill="white"/>
</clipPath>
</defs>
</svg>
