<svg width="177" height="224" viewBox="0 0 177 224" fill="none" xmlns="http://www.w3.org/2000/svg">
<g clip-path="url(#clip0_79_363)">
<path d="M127.506 98.1206L176.725 168.917L142.079 223.771H45.999V80.4054L55.6272 83.5701L64.26 80.6161V80.6207V108.462L112.612 202.108L131.07 186.376L114.231 171.72L127.506 98.1206Z" fill="#A6A6A6"/>
<path d="M55.1963 69.3448L58.6503 65.0351H52.1734L55.1963 69.3448ZM109.81 65.0351L64.2603 80.6161L55.6275 83.5701L45.9993 80.4054L0.583008 65.4656L18.0688 56.2004L16.5551 1.24121L35.9858 46.9306H75.0536L94.0485 1.24121L92.3237 56.4157L109.81 65.0351ZM87.7918 54.689L92.1082 11.798L79.8011 49.303L87.7918 54.689ZM31.8804 49.303L18.9312 11.798L23.6787 53.3975L31.8804 49.303Z" fill="#A6A6A6"/>
<path d="M92.1078 11.798L87.7914 54.6891L79.8008 49.3031L92.1078 11.798Z" fill="#A6A6A6"/>
<path d="M58.6507 65.0352L55.1967 69.3449L52.1738 65.0352H58.6507Z" fill="#A6A6A6"/>
<path d="M18.9316 11.798L31.8808 49.3031L23.6792 53.3975L18.9316 11.798Z" fill="#A6A6A6"/>
<path d="M64.2603 80.616L109.81 65.0351L92.3237 56.4157L94.0485 1.24121L75.0535 46.9306H35.9858L16.5551 1.24121L18.0688 56.2004L0.583008 65.4656L45.9993 80.4054L55.6275 83.5701L64.2603 80.616Z" stroke="#A6A6A6" stroke-miterlimit="10"/>
<path d="M18.9316 11.798L23.6792 53.3975L31.8808 49.3031L18.9316 11.798Z" stroke="#A6A6A6" stroke-miterlimit="10"/>
<path d="M79.8008 49.3031L92.1078 11.798L87.7914 54.6891L79.8008 49.3031Z" stroke="#A6A6A6" stroke-miterlimit="10"/>
<path d="M52.1738 65.0352L55.1967 69.3449L58.6507 65.0352H52.1738Z" stroke="#A6A6A6" stroke-miterlimit="10"/>
<path d="M64.6914 65.0351L79.8011 60.9407" stroke="#A6A6A6" stroke-miterlimit="10"/>
<path d="M30.3711 60.9407L45.2652 64.1741" stroke="#A6A6A6" stroke-miterlimit="10"/>
<path d="M34.041 68.0532L55.1964 76.4574L63.898 73.224L76.3518 68.5891" stroke="#A6A6A6" stroke-miterlimit="10"/>
<path d="M55.1963 69.3448V76.4575" stroke="#A6A6A6" stroke-miterlimit="10"/>
<path d="M45.999 80.4054V223.771H142.079L176.725 168.917L127.506 98.1206L114.231 171.72L131.07 186.376L112.612 202.108L64.26 108.462V80.6207" stroke="#A6A6A6" stroke-miterlimit="10"/>
<path d="M84.3237 147.318L58.9712 223.771H45.999V131.527L54.8704 146.182L63.1821 128.696L51.6319 93.9161L64.26 108.467" fill="#A6A6A6"/>
<path d="M127.506 98.1206L131.07 186.376L114.231 171.72" fill="#A6A6A6"/>
<path d="M16.5547 1.24121L18.9308 11.8025L23.6784 53.3975L18.0684 56.2004" fill="#A6A6A6"/>
<path d="M34.0409 48.7626L26.7016 63.6336L37.8206 77.7123L0.583008 65.4656" fill="#A6A6A6"/>
<path d="M94.0486 1.24121L92.1083 11.8025L79.8013 49.303L75.0537 46.9306" fill="#A6A6A6"/>
<path d="M94.0486 1.24121L92.1083 11.8025L79.8013 49.303L75.0537 46.9306" stroke="#A6A6A6" stroke-miterlimit="10"/>
<path d="M127.644 98.1206L152.575 175.709L126.131 214.396L94.4799 213.856L86.2783 223.771H137.034L163.799 179.483L142.323 119.243L127.644 98.1206Z" fill="#A6A6A6"/>
<path d="M51.6319 93.9161L45.999 131.527L54.8704 146.182L63.1821 128.696L51.6319 93.9161Z" fill="#A6A6A6"/>
<path d="M55.6276 83.5701L64.1824 73.2286L55.1964 76.4575L46.2471 72.9034L55.6276 83.5701Z" fill="#A6A6A6"/>
<path d="M58.4764 65.2504L55.1967 69.3448L52.1738 65.2504H58.4764Z" fill="#A6A6A6"/>
</g>
<defs>
<clipPath id="clip0_79_363">
<rect width="177" height="224" fill="white"/>
</clipPath>
</defs>
</svg>
