<?xml version="1.0" encoding="UTF-8"?>
<svg id="b" data-name="Layer 2" xmlns="http://www.w3.org/2000/svg" viewBox="0 0 390.35 397.53">
  <defs>
    <style>
      .d, .e {
        fill: #231f20;
      }

      .e, .f, .g {
        stroke-miterlimit: 10;
      }

      .e, .g {
        stroke: #231f20;
        stroke-width: 2px;
      }

      .f {
        fill: none;
        stroke: #fff;
        stroke-width: 4px;
      }

      .g {
        fill: #fff;
      }
    </style>
  </defs>
  <g id="c" data-name="Layer 6">
    <g>
      <path class="e" d="M345.97,140.83l26.28-7.14c-1.67-13.74-1.19-9.84-2.86-23.58l-27.23-.64c-3.82-10.07-4.07-10.72-7.88-20.79l19.96-18.53c-7.86-11.39-5.63-8.15-13.49-19.55l-24.41,12.09c-8.06-7.14-8.58-7.6-16.64-14.74l9.06-25.68c-12.26-6.43-8.77-4.6-21.03-11.04l-15.99,22.04c-10.46-2.58-11.13-2.74-21.59-5.32l-3.92-26.95h-23.75l-3.92,26.95c-10.46,2.58-11.13,2.74-21.59,5.32l-15.99-22.04c-12.26,6.43-8.77,4.6-21.03,11.04l9.06,25.68c-8.06,7.14-8.58,7.6-16.64,14.74l-24.41-12.09c-7.86,11.39-5.63,8.15-13.49,19.55l19.96,18.53c-3.82,10.07-4.07,10.72-7.88,20.79l-27.23.64c-1.67,13.74-1.19,9.84-2.86,23.58l26.28,7.14c1.3,10.69,1.38,11.38,2.68,22.07l-23.81,13.22c4.91,12.94,3.51,9.26,8.42,22.21l26.59-5.9c6.12,8.86,6.51,9.44,12.63,18.3l-14.94,22.77c10.36,9.18,7.42,6.57,17.78,15.75l20.8-17.58c9.54,5,10.15,5.33,19.69,10.33l-2.65,27.11c13.44,3.31,9.62,2.37,23.06,5.68l10.25-25.23h22.23l10.25,25.23c13.44-3.31,9.62-2.37,23.06-5.68l-2.65-27.11c9.54-5,10.15-5.33,19.69-10.33l20.8,17.58c10.36-9.18,7.42-6.57,17.78-15.75l-14.94-22.77c6.12-8.86,6.51-9.44,12.63-18.3l26.59,5.9c4.91-12.94,3.51-9.26,8.42-22.21l-23.81-13.22c1.3-10.69,1.38-11.38,2.68-22.07ZM231.53,234.47c-52.24,0-94.59-42.35-94.59-94.59s42.35-94.59,94.59-94.59,94.59,42.35,94.59,94.59-42.35,94.59-94.59,94.59Z"/>
      <polygon class="d" points="0 319.18 121.41 264.12 224.47 298.71 288 311.42 357.88 254.24 390.35 263.42 343.06 335.42 257.65 394 117.18 367.18 29.65 397.53 0 319.18"/>
      <path class="f" d="M176.47,330.47l28.24-5.65c.56-.14,57.18,14.12,69.88,8.47l13.41-21.88"/>
      <circle class="g" cx="234.24" cy="140.59" r="95.29"/>
    </g>
  </g>
</svg>