<?xml version="1.0" encoding="UTF-8"?>
<svg xmlns="http://www.w3.org/2000/svg" viewBox="0 0 223.41 226.59">
  <defs>
    <style>
      .cls-1, .cls-2 {
        stroke-width: 0px;
      }

      .cls-1, .cls-3 {
        fill: #705941;
      }

      .cls-4 {
        fill: #070509;
      }

      .cls-4, .cls-5, .cls-3, .cls-6 {
        stroke-miterlimit: 10;
      }

      .cls-4, .cls-3, .cls-6 {
        stroke: #231f20;
      }

      .cls-5 {
        fill: none;
        stroke: #070509;
      }

      .cls-2 {
        fill: #ecdcc2;
      }

      .cls-6 {
        fill: #cfc485;
      }
    </style>
  </defs>
  <g id="Layer_2" data-name="Layer 2">
    <g id="Cat1">
      <polyline class="cls-3" points="112.22 52.43 139.04 54.19 178.57 13.25 194.1 70.07 165.51 91.6 164.1 109.6 136.93 141.37 122.46 147.72 115.4 155.84 110.1 155.84"/>
      <polygon class="cls-3" points="140.81 136.07 147.16 155.13 124.22 208.43 112.22 208.43 112.22 155.84 115.4 155.84 122.46 147.72 140.81 136.07"/>
      <rect class="cls-1" x="109.97" y="156.32" width="5.47" height="51.62"/>
      <polygon class="cls-6" points="127.04 105.37 135.16 90.54 148.22 88.43 145.04 105.01 127.04 105.37"/>
      <polygon class="cls-4" points="177.51 25.96 184.93 64.07 166.22 85.96 151.04 61.25 165.51 49.25 177.51 25.96"/>
      <polygon class="cls-2" points="118.22 113.49 124.93 118.78 128.1 115.25 121.4 111.01 122.46 104.66 124.57 110.31 138.69 120.9 155.63 102.9 148.57 86.31 159.51 102.9 137.28 125.49 130.93 116.31 118.57 125.84 118.22 130.78 113.15 134.71 113.32 126.06 119.63 118.78 118.22 113.49"/>
      <path class="cls-2" d="M101.54,62.27c-1.82,3.51-3.5,7.61-5.77,10.64.05-.04.2-.05.2-.04-.26.02-.61.07-.83.12-5.04,1.03-9.91,2.45-14.37,5.11,0,0,.06.19.06.19,2.43-.21,4.77-.73,7.07-1.31,2.9-.72,5.6-2.03,8.48-2.74.12-.06.14-.09.22-.14,1.33-1.47,1.82-3.29,2.64-5.02.88-2.23,1.72-4.46,2.48-6.73l-.19-.08h0Z"/>
      <path class="cls-2" d="M97.96,149.08c-2.33,5.28-4.53,10.61-6.72,15.95,2.75,6.38,5.5,12.84,10.26,18.05,0,0,.27-.14.27-.14-.35-1.71-.87-3.34-1.44-4.94-1.6-4.84-4.34-9.12-6.88-13.5,0,0,.06.88.06.88,1.64-5.39,3.25-10.78,4.73-16.21,0,0-.28-.1-.28-.1h0Z"/>
      <path class="cls-2" d="M131.89,145.94c-.76,2.43-1.45,4.86-2.11,7.31,2.53,2.32,5.08,4.9,8.5,5.84,0,0,.12-.16.12-.16-1.34-2.15-3.18-3.86-5.34-5.13,0,0-2.05-1.35-2.05-1.35l.26.7c.32-2.38.59-4.78.82-7.18l-.2-.04h0Z"/>
      <path class="cls-2" d="M128.67,119.89c1.67,5.86,3.76,12.23,5.57,18.05,0,0,.82-1.77.82-1.77-3.39.81-6.61,2.15-9.66,3.85-1.02.58-2.03,1.18-3,1.91l.1.28c2.38-.1,4.67-.56,6.95-1.14,2.74-.63,5.33-1.79,7.88-2.94-.85-1.8-1.69-3.65-2.47-5.47-.95-2.15-2.9-6.47-3.9-8.6-.66-1.43-1.32-2.86-2.01-4.28l-.28.11h0Z"/>
      <polygon class="cls-4" points="133.4 94.78 137.28 100.78 141.51 100.78 143.63 91.6 140.81 89.84 135.51 90.54 133.4 94.78"/>
      <polyline class="cls-5" points="114.56 140 122.46 147.72 115.4 155.84 112.22 155.84"/>
    </g>
    <g id="Cat1-2" data-name="Cat1">
      <polyline class="cls-3" points="112.34 52.43 85.51 54.19 45.99 13.25 30.46 70.07 59.04 91.6 60.46 109.6 87.63 141.37 102.1 147.72 109.16 155.84 114.46 155.84"/>
      <polygon class="cls-3" points="83.75 136.07 77.4 155.13 100.34 208.43 112.34 208.43 112.34 155.84 109.16 155.84 102.1 147.72 83.75 136.07"/>
      <rect class="cls-1" x="109.12" y="156.32" width="5.47" height="51.62"/>
      <polygon class="cls-6" points="97.51 105.37 89.4 90.54 76.34 88.43 79.51 105.01 97.51 105.37"/>
      <polygon class="cls-4" points="47.04 25.96 39.63 64.07 58.34 85.96 73.51 61.25 59.04 49.25 47.04 25.96"/>
      <polygon class="cls-2" points="106.34 113.49 99.63 118.78 96.46 115.25 103.16 111.01 102.1 104.66 99.99 110.31 85.87 120.9 68.93 102.9 75.99 86.31 65.04 102.9 87.28 125.49 93.63 116.31 105.99 125.84 106.34 130.78 111.41 134.71 111.24 126.06 104.93 118.78 106.34 113.49"/>
      <path class="cls-2" d="M123.02,62.27c1.82,3.51,3.5,7.61,5.77,10.64-.05-.04-.2-.05-.2-.04.26.02.61.07.83.12,5.04,1.03,9.91,2.45,14.37,5.11,0,0-.06.19-.06.19-2.43-.21-4.77-.73-7.07-1.31-2.9-.72-5.6-2.03-8.48-2.74-.12-.06-.14-.09-.22-.14-1.33-1.47-1.82-3.29-2.64-5.02-.88-2.23-1.72-4.46-2.48-6.73l.19-.08h0Z"/>
      <path class="cls-2" d="M126.6,149.08c2.33,5.28,4.53,10.61,6.72,15.95-2.75,6.38-5.5,12.84-10.26,18.05,0,0-.27-.14-.27-.14.35-1.71.87-3.34,1.44-4.94,1.6-4.84,4.34-9.12,6.88-13.5,0,0-.06.88-.06.88-1.64-5.39-3.25-10.78-4.73-16.21,0,0,.28-.1.28-.1h0Z"/>
      <path class="cls-2" d="M92.67,145.94c.76,2.43,1.45,4.86,2.11,7.31-2.53,2.32-5.08,4.9-8.5,5.84,0,0-.12-.16-.12-.16,1.34-2.15,3.18-3.86,5.34-5.13,0,0,2.05-1.35,2.05-1.35l-.26.7c-.32-2.38-.59-4.78-.82-7.18l.2-.04h0Z"/>
      <path class="cls-2" d="M95.89,119.89c-1.67,5.86-3.76,12.23-5.57,18.05,0,0-.82-1.77-.82-1.77,3.39.81,6.61,2.15,9.66,3.85,1.02.58,2.03,1.18,3,1.91l-.1.28c-2.38-.1-4.67-.56-6.95-1.14-2.74-.63-5.33-1.79-7.88-2.94.85-1.8,1.69-3.65,2.47-5.47.95-2.15,2.9-6.47,3.9-8.6.66-1.43,1.32-2.86,2.01-4.28l.28.11h0Z"/>
      <polygon class="cls-4" points="91.16 94.78 87.28 100.78 83.04 100.78 80.93 91.6 83.75 89.84 89.04 90.54 91.16 94.78"/>
      <polyline class="cls-5" points="110 140 102.1 147.72 109.16 155.84 112.34 155.84"/>
    </g>
  </g>
  <g id="Layer_4" data-name="Layer 4">
    <g id="cat1">
      <polygon class="cls-2" points="112.65 79.82 108.76 78.06 99.24 89 105.59 104.53 106.65 115.12 108.76 115.82 111.94 112.65 114.76 115.47 117.94 114.06 117.94 105.24 125.35 88.65 116.18 77.71 112.65 79.82"/>
    </g>
    <path class="cls-2" d="M105.44,70.69c-2.86,2.56-5.66,5.25-8.58,7.72-4.79,1.55-9.76,3.16-14.73,3.94,0,0-.03-.1-.03-.1,1.18-.51,2.37-.94,3.57-1.38,3.46-1.25,7.42-2.22,10.99-3.15,2.25-1.97,5.96-4.85,8.71-7.11,0,0,.07.08.07.08h0Z"/>
    <path class="cls-2" d="M98.75,65.91c-1.24,1.97-2.47,3.95-3.73,5.9,0,0-.14.03-.14.03l-6.23,1.26c-1.62.22-4.97.81-6.36.5,2.03-.68,4.1-1.17,6.19-1.52l6.3-.85-.2.13c1.34-1.85,2.73-3.67,4.1-5.5l.08.06h0Z"/>
    <path class="cls-2" d="M114.81,163.66c-.9,4.65-2.74,13.98-3.68,18.61-2.43,3.11-5.22,6.02-7.99,8.86-3.55,3.58-3.73,3.61-.49-.43,2.25-2.74,5.6-6.78,7.62-8.61,1.08-4.6,3.31-13.86,4.44-18.45,0,0,.1.02.1.02h0Z"/>
  </g>
</svg>