<?xml version="1.0" encoding="UTF-8"?>
<svg xmlns="http://www.w3.org/2000/svg" viewBox="0 0 223.41 226.59">
  <defs>
    <style>
      .cls-1 {
        fill: #231f20;
      }

      .cls-1, .cls-2, .cls-3, .cls-4, .cls-5 {
        stroke: #070509;
      }

      .cls-1, .cls-2, .cls-3, .cls-4, .cls-5, .cls-6 {
        stroke-miterlimit: 10;
      }

      .cls-2 {
        fill: none;
      }

      .cls-3 {
        fill: #cfc485;
      }

      .cls-4 {
        fill: #705941;
      }

      .cls-5 {
        fill: #070509;
      }

      .cls-6 {
        fill: #ecdcc2;
        stroke: #ecdcc2;
      }
    </style>
  </defs>
  <g id="mirror_mirror_on_the_wall" data-name="mirror mirror on the wall">
    <g>
      <polyline class="cls-4" points="112.21 82.21 129.51 83.84 157.04 65.84 155.99 113.84 180.69 125.84 156.34 130.07 175.04 137.13 153.87 141.37 160.93 166.78 148.93 196.07 111.87 196.07"/>
      <polyline class="cls-2" points="153.87 141.37 142.93 149.84 119.63 146.66 111.87 153.01"/>
      <polyline class="cls-2" points="119.63 146.66 123.51 143.13 112.32 137.88 112.22 130.43"/>
      <path class="cls-3" d="M138.34,102.54c.35,1.06-3.53,7.41-3.53,7.41l-13.76,1.41,6-5.29,11.29-3.53Z"/>
      <polygon class="cls-5" points="135.87 85.25 154.93 69.72 151.4 96.9 135.87 85.25"/>
      <polygon class="cls-5" points="156.34 178.07 147.87 157.6 133.75 196.07 148.93 196.07 156.34 178.07"/>
      <polygon class="cls-5" points="130.22 148.07 139.04 169.25 129.87 164.66 133.56 187.12 119.74 147.59 130.22 148.07"/>
      <polygon class="cls-5" points="131.99 104.66 133.4 107.13 131.32 109.82 129.16 109.96 127.04 106.07 131.99 104.66"/>
    </g>
    <g>
      <polyline class="cls-4" points="112.35 82.21 95.04 83.84 67.51 65.84 68.57 113.84 43.87 125.84 68.22 130.07 49.51 137.13 70.69 141.37 63.63 166.78 75.63 196.07 112.69 196.07"/>
      <polyline class="cls-2" points="70.69 141.37 81.63 149.84 104.93 146.66 112.69 153.01"/>
      <polyline class="cls-2" points="104.93 146.66 101.04 143.13 112.24 137.88 112.34 130.43"/>
      <path class="cls-3" d="M86.22,102.54c-.35,1.06,3.53,7.41,3.53,7.41l13.76,1.41-6-5.29-11.29-3.53Z"/>
      <polygon class="cls-5" points="88.69 85.25 69.63 69.72 73.16 96.9 88.69 85.25"/>
      <polygon class="cls-5" points="68.22 178.07 76.69 157.6 90.81 196.07 75.63 196.07 68.22 178.07"/>
      <polygon class="cls-5" points="94.34 148.07 85.51 169.25 94.69 164.66 91 187.12 104.82 147.59 94.34 148.07"/>
      <polygon class="cls-5" points="92.57 104.66 91.16 107.13 93.24 109.82 95.4 109.96 97.51 106.07 92.57 104.66"/>
    </g>
  </g>
  <g id="single">
    <g id="cat2">
      <polygon class="cls-5" points="88.47 102.53 101.35 102.76 108.06 110.18 104.88 123.59 87.24 127.82 70.65 125.71 81.94 118.29 74.18 113.35 79.12 109.12 85.12 113.35 104.18 116.88 103.47 111.59 97.47 106.29 88.47 102.53"/>
      <polygon class="cls-5" points="91.12 139.47 70.65 125.71 74.18 113.35 79.12 109.12 79.12 93.24 73.12 97.12 68.29 66.53 68.53 114.06 45.18 125.82 69.35 130.18 49.94 137.24 68 140.71 91.12 139.47"/>
      <polygon class="cls-6" points="88.29 99.94 101 96.76 110.88 91.12 114.41 91.12 117.24 100.29 108.76 101.71 108.06 110.18 101.35 102.76 88.29 99.94"/>
      <path class="cls-6" d="M121.29,84.24c.35,1.41,7.59,13.24,7.59,13.24l-12.29,13.29,3,.59,7-6.24,13.24-3.59-4.24,9.24-14.82,1.59,16.24,14.76-2.47,1.41-11.65-6.71-9.59,9.06-.12,6.06,14.12,7.47,15.18,4.59,10.76-8.47,18.29-3.76-18.65-6.94,24.65-4.47-22.41-10.82.12-15.59-20.47-13.18-13.47-1.53Z"/>
      <polygon class="cls-5" points="149 117.94 122.88 143.35 120.76 147.59 127.12 147.24 146.88 130.29 149 117.94"/>
      <polygon class="cls-6" points="104.71 124.59 88.18 128.59 100.41 142.29 111.47 136.82 111.47 130.82 104.71 124.59"/>
      <polygon class="cls-6" points="103.71 195.24 103.82 166.29 128.18 190.29 135 192.29 142.88 170.65 144.35 150 153.41 143 159.94 166.53 147.71 195.24 103.71 195.24"/>
      <polygon class="cls-1" points="122.88 121.82 105.35 121.82 105 124.06 112.29 131.24 122.88 121.82"/>
    </g>
  </g>
</svg>