<?xml version="1.0" encoding="UTF-8"?>
<svg xmlns="http://www.w3.org/2000/svg" viewBox="0 0 223.41 226.59">
  <defs>
    <style>
      .cls-1 {
        stroke-width: 0px;
      }

      .cls-1, .cls-2 {
        fill: #705941;
      }

      .cls-3, .cls-4, .cls-2, .cls-5, .cls-6, .cls-7 {
        stroke-miterlimit: 10;
      }

      .cls-3, .cls-4, .cls-2, .cls-6 {
        stroke: #231f20;
      }

      .cls-3, .cls-7 {
        fill: #ecdcc2;
      }

      .cls-4, .cls-5 {
        fill: #070509;
      }

      .cls-5 {
        stroke: #070509;
      }

      .cls-6 {
        fill: #cfc485;
      }

      .cls-7 {
        stroke: #ecdcc2;
      }
    </style>
  </defs>
  <g id="mirror_mirror_on_the_wall" data-name="mirror mirror on the wall">
    <g>
      <polyline class="cls-2" points="112.22 133.6 174.51 113.49 174.51 81.72 170.63 78.9 181.57 31.6 142.57 55.96 112.23 54.28"/>
      <polygon class="cls-2" points="150.69 124.96 158.63 141.19 170.1 204.9 112.22 204.9 112.22 133.6 149.81 122.49 150.69 124.96"/>
      <polygon class="cls-4" points="174.69 43.25 166.04 77.84 147.34 62.49 174.69 43.25"/>
      <polygon class="cls-4" points="144.51 132.9 150.51 148.78 152.1 163.96 153.34 144.54 144.51 132.9"/>
      <polygon class="cls-4" points="128.81 174.19 142.22 174.37 147.75 200.19 140.28 186.54 128.81 174.19"/>
      <polygon class="cls-6" points="131.1 89.49 136.93 83.84 147.69 82.43 138.51 89.49 131.1 89.49"/>
      <polygon class="cls-4" points="122.99 93.72 123.51 105.37 148.99 121.96 127.22 129.19 134.81 119.13 119.99 106.78 119.81 90.37 122.99 93.72"/>
      <polygon class="cls-4" points="162.81 82.25 170.46 95.66 174.1 113.13 168.46 115.19 158.63 96.54 162.81 82.25"/>
      <polygon class="cls-7" points="161.4 103.84 154.4 110.84 143.28 116.9 133.57 110.72 152.81 101.49 154.57 97.25 158.81 97.13 161.4 103.84"/>
      <circle class="cls-4" cx="138.25" cy="86.22" r="2.56"/>
    </g>
    <g>
      <polyline class="cls-2" points="112.34 133.6 50.04 113.49 50.04 81.72 53.93 78.9 42.99 31.6 81.99 55.96 112.33 54.28"/>
      <polygon class="cls-2" points="73.87 124.96 65.93 141.19 54.46 204.9 112.34 204.9 112.34 133.6 74.75 122.49 73.87 124.96"/>
      <polygon class="cls-4" points="49.87 43.25 58.51 77.84 77.22 62.49 49.87 43.25"/>
      <polygon class="cls-4" points="80.04 132.9 74.04 148.78 72.46 163.96 71.22 144.54 80.04 132.9"/>
      <polygon class="cls-4" points="95.75 174.19 82.34 174.37 76.81 200.19 84.28 186.54 95.75 174.19"/>
      <polygon class="cls-6" points="93.46 89.49 87.63 83.84 76.87 82.43 86.04 89.49 93.46 89.49"/>
      <polygon class="cls-4" points="101.57 93.72 101.04 105.37 75.57 121.96 97.34 129.19 89.75 119.13 104.57 106.78 104.75 90.37 101.57 93.72"/>
      <polygon class="cls-4" points="61.75 82.25 54.1 95.66 50.46 113.13 56.1 115.19 65.93 96.54 61.75 82.25"/>
      <polygon class="cls-7" points="63.16 103.84 70.16 110.84 81.28 116.9 90.99 110.72 71.75 101.49 69.99 97.25 65.75 97.13 63.16 103.84"/>
      <circle class="cls-4" cx="86.31" cy="86.22" r="2.56"/>
    </g>
  </g>
  <g id="single">
    <g id="cat3">
      <polygon class="cls-7" points="116.35 60.59 105.76 81.41 109.82 107.35 119.35 83.88 116.35 60.59"/>
      <polygon class="cls-7" points="118.12 73.65 126.06 89.53 131.53 81.76 144.76 77 150.41 81.24 138.94 90.41 126.06 90.24 124.82 95 133.12 99.06 158.88 96.41 162.24 81.76 135.41 63.06 118.12 73.65"/>
      <polygon class="cls-7" points="124.82 95 116.94 91.41 118.12 73.65 126.06 90.24 124.82 95"/>
      <polygon class="cls-5" points="127.12 89.53 130.41 89.41 136.29 83.53 147.06 82.82 149.35 81.06 144.76 77 131.53 81.76 127.12 89.53"/>
      <polygon class="cls-5" points="96.76 89 101 93.62 105.85 89.22 104.97 81.37 108.24 74.35 89.53 63.24 62.35 81.38 65.71 96.5 89.88 98.88 100.12 94.12 93.41 89.71 86.76 90.12 76.12 83.09 74.74 81.74 81.06 77.71 93.06 82.29 96.76 89"/>
      <polygon class="cls-7" points="95.41 129.88 84.41 155 69.59 173.88 100.29 165.94 105.59 184.29 118.12 203.18 117.24 133.12 112.12 134.53 95.41 129.88"/>
      <polygon class="cls-5" points="99.06 133.12 97.12 144.94 89.88 163.65 101.18 153.06 99.06 133.12"/>
      <path class="cls-5" d="M148.59,123.66l-13,16.16s0,0,0,.01l-10.41,48.87s0,0,0,0l-6.48,16.1s-.05.02-.05-.01l-.53-67.44s0-.01,0-.01l3.52-5.87s0-.01.02-.01l26.9-7.85s.05.02.03.04Z"/>
      <path class="cls-5" d="M139.34,154.06l10,13.11s0,.01,0,.02l4.28,16.25c.01.05.09.04.09-.02l-1.72-19.22s0-.02-.02-.03l-12.58-10.17s-.1.02-.06.06Z"/>
      <polygon class="cls-5" points="114.24 72.06 110.35 91.12 116 83.18 114.24 72.06"/>
      <polygon class="cls-1" points="111.47 194.03 112.91 196.32 113.29 204.38 111.47 204.41 111.47 194.03"/>
      <polygon class="cls-3" points="121.03 110.26 103.21 110.26 112.38 117.76 121.03 110.26"/>
    </g>
  </g>
</svg>