<?xml version="1.0" encoding="UTF-8"?>
<svg xmlns="http://www.w3.org/2000/svg" viewBox="0 0 223.41 226.59">
  <defs>
    <style>
      .cls-1 {
        fill: #cfc485;
      }

      .cls-1, .cls-2, .cls-3, .cls-4, .cls-5, .cls-6, .cls-7, .cls-8 {
        stroke-miterlimit: 10;
      }

      .cls-1, .cls-2, .cls-4, .cls-5, .cls-7, .cls-8 {
        stroke: #231f20;
      }

      .cls-1, .cls-3, .cls-5, .cls-7, .cls-8 {
        stroke-width: .5px;
      }

      .cls-2, .cls-8 {
        fill: #070509;
      }

      .cls-3 {
        stroke: #ecdcc2;
      }

      .cls-3, .cls-5 {
        fill: #ecdcc2;
      }

      .cls-4, .cls-6 {
        fill: #705941;
      }

      .cls-6 {
        stroke: #705941;
      }

      .cls-7 {
        fill: none;
      }
    </style>
  </defs>
  <g id="mirror_mirror_on_the_wall" data-name="mirror mirror on the wall">
    <g>
      <path class="cls-4" d="M112.22,113.84l15.06,1.65,28.47-13.65-8.47,32.24,7.53,14.12s-.02,18.72-31.53,23.29c-7.71,1.12-11.15.76-11.15.76"/>
      <path class="cls-4" d="M128.9,170.4s6.62,18.26-5.65,39.18l-10.85.79-.09-37.5,16.59-2.47Z"/>
      <polygon class="cls-2" points="143.9 128.57 133.75 117.28 152.76 105.72 143.9 128.57"/>
      <polygon class="cls-2" points="119.46 119.93 123.25 124.16 117.96 130.43 119.46 119.93"/>
      <polygon class="cls-2" points="129.51 127.43 120.25 134.13 121.66 128.57 129.51 127.43"/>
      <polyline class="cls-8" points="112.04 156.15 118.22 156.1 112.13 161.93 113.41 168.15 119.99 172.16 114.16 177.72 112.04 177.1 111.74 168.94"/>
      <polyline class="cls-7" points="128.9 161.31 122.9 171.46 119.99 172.16"/>
      <path class="cls-1" d="M119.37,137.57c.49-.28.98-.55,1.47-.83,4.18-2.34,8.37-4.68,12.55-7.03,1.59,2.14,4.59,7.22,4.15,13.41-.71,9.88-10.15,6-10.15,6l-8.03-11.56Z"/>
      <path class="cls-8" d="M132.43,130.34s4.68,5.65,0,11.21c-4.68,5.56-10.85-1.68-10.85-1.68,0,0-1.29-1.12-.73-3.12l11.58-6.41Z"/>
      <path class="cls-5" d="M129.69,132.46s3.13,4.99-1.81,6.57-3.84-3.84-3.84-3.84l5.65-2.74Z"/>
      <path class="cls-3" d="M146.68,134.44l-2.25-1.46,6,15.09-6,6.35-13.15,6.18-7.41-6.79-2.56.44,8.03,7.41-5.29,8.69s27.09-2.34,30.09-21.84l-7.46-14.07Z"/>
      <polygon class="cls-3" points="122.85 172.07 114.87 195.81 112.09 196.74 112.04 177.68 114.74 177.76 120.29 172.56 122.85 172.07"/>
      <polygon class="cls-8" points="128.1 181.16 123.69 190.38 122.37 197.66 117.47 197.66 122.72 187.51 128.1 181.16"/>
      <polygon class="cls-8" points="117.07 138.28 123.87 153.81 117.47 153.81 117.07 138.28"/>
      <polygon class="cls-8" points="142.75 136.99 139.84 148.07 131.99 152.84 127.22 151.69 135.43 148.16 142.75 136.99"/>
      <polygon class="cls-8" points="112.13 132.46 115.93 132.46 113.72 137.13 113.72 149.88 112.31 149.88 112.13 132.46"/>
      <polyline class="cls-6" points="111.28 197.13 114.1 196.78 114.1 209.25 109.75 209.01"/>
    </g>
    <g>
      <path class="cls-4" d="M112.34,113.84l-15.06,1.65-28.47-13.65,8.47,32.24-7.53,14.12s.02,18.72,31.53,23.29c7.71,1.12,11.15.76,11.15.76"/>
      <path class="cls-4" d="M95.66,170.4s-6.62,18.26,5.65,39.18l10.85.79.09-37.5-16.59-2.47Z"/>
      <polygon class="cls-2" points="80.66 128.57 90.81 117.28 71.79 105.72 80.66 128.57"/>
      <polygon class="cls-2" points="105.1 119.93 101.31 124.16 106.6 130.43 105.1 119.93"/>
      <polygon class="cls-2" points="95.04 127.43 104.31 134.13 102.9 128.57 95.04 127.43"/>
      <polyline class="cls-8" points="112.51 156.15 106.34 156.1 112.43 161.93 111.15 168.15 104.57 172.16 110.4 177.72 112.51 177.1 112.82 168.94"/>
      <polyline class="cls-7" points="95.66 161.31 101.66 171.46 104.57 172.16"/>
      <path class="cls-1" d="M105.19,137.57c-.49-.28-.98-.55-1.47-.83-4.18-2.34-8.37-4.68-12.55-7.03-1.59,2.14-4.59,7.22-4.15,13.41.71,9.88,10.15,6,10.15,6l8.03-11.56Z"/>
      <path class="cls-8" d="M92.13,130.34s-4.68,5.65,0,11.21,10.85-1.68,10.85-1.68c0,0,1.29-1.12.73-3.12l-11.58-6.41Z"/>
      <path class="cls-5" d="M94.87,132.46s-3.13,4.99,1.81,6.57,3.84-3.84,3.84-3.84l-5.65-2.74Z"/>
      <path class="cls-3" d="M77.88,134.44l2.25-1.46-6,15.09,6,6.35,13.15,6.18,7.41-6.79,2.56.44-8.03,7.41,5.29,8.69s-27.09-2.34-30.09-21.84l7.46-14.07Z"/>
      <polygon class="cls-3" points="101.71 172.07 109.69 195.81 112.47 196.74 112.51 177.68 109.82 177.76 104.26 172.56 101.71 172.07"/>
      <polygon class="cls-8" points="96.46 181.16 100.87 190.38 102.19 197.66 107.09 197.66 101.84 187.51 96.46 181.16"/>
      <polygon class="cls-8" points="107.49 138.28 100.69 153.81 107.09 153.81 107.49 138.28"/>
      <polygon class="cls-8" points="81.81 136.99 84.72 148.07 92.57 152.84 97.34 151.69 89.13 148.16 81.81 136.99"/>
      <polygon class="cls-8" points="112.43 132.46 108.63 132.46 110.84 137.13 110.84 149.88 112.25 149.88 112.43 132.46"/>
      <polyline class="cls-6" points="113.28 197.13 110.46 196.78 110.46 209.25 114.81 209.01"/>
    </g>
  </g>
  <g id="single">
    <g id="cat4">
      <polygon class="cls-2" points="112.78 117.46 110.62 122.13 113.57 131.44 113.22 124.07 114.5 122.4 112.78 117.46"/>
    </g>
  </g>
</svg>