<?xml version="1.0" encoding="UTF-8"?>
<svg xmlns="http://www.w3.org/2000/svg" viewBox="0 0 223.41 226.59">
  <defs>
    <style>
      .cls-1, .cls-2, .cls-3, .cls-4, .cls-5 {
        stroke: #070509;
      }

      .cls-1, .cls-2, .cls-3, .cls-4, .cls-5, .cls-6 {
        stroke-miterlimit: 10;
      }

      .cls-1, .cls-7 {
        fill: #231f20;
      }

      .cls-2 {
        fill: none;
      }

      .cls-3 {
        fill: #cfc485;
      }

      .cls-7, .cls-8 {
        stroke-width: 0px;
      }

      .cls-4 {
        fill: #705941;
      }

      .cls-5, .cls-8 {
        fill: #070509;
      }

      .cls-6 {
        fill: #ecdcc2;
        stroke: #ecdcc2;
      }
    </style>
  </defs>
  <g id="mirror_mirror_on_the_wall" data-name="mirror mirror on the wall">
    <g>
      <polyline class="cls-4" points="111.76 52.38 134.88 53.26 169.47 23.97 187.47 19.03 188.53 53.97 166.65 120.32 165.94 142.91 157.29 152.62 160.12 178.03 148.12 206.09 112.12 206.44"/>
      <polygon class="cls-5" points="170.99 74.66 147.51 55.25 170.81 30.9 181.04 26.66 182.63 50.31 170.99 74.66"/>
      <polyline class="cls-2" points="166.09 142.76 140.63 167.49 122.28 177.54 119.46 183.72 112.04 183.19"/>
      <polyline class="cls-2" points="161.15 121.65 152.1 134.49 132.34 146.49 139.75 159.54 133.22 170.31 113.1 162.9 112.26 151.71"/>
      <line class="cls-2" x1="129.12" y1="168.94" x2="119.46" y2="183.72"/>
      <path class="cls-8" d="M124.57,118.96c-1.41,2.5-1.9,6.57-2.63,9.34.31,1.87,1.04,6.08,1.33,7.91.3.84.59,1.68.95,2.52.06-.9.06-1.8.06-2.69-.32-1.73-1.02-6.01-1.33-7.81,0,0,0,.19,0,.19l1.06-4.68c.42-1.57.65-3.15.57-4.79h0Z"/>
      <polygon class="cls-3" points="129.34 112.43 138.69 102.01 151.4 97.07 145.75 110.31 129.34 112.43"/>
      <circle class="cls-5" cx="140.99" cy="104.22" r="2.21"/>
      <polygon class="cls-1" points="112.44 166.06 113.38 171.71 118.5 183.18 112.32 182.94 112.44 166.06"/>
    </g>
    <g>
      <polyline class="cls-4" points="112.79 52.38 89.68 53.26 55.09 23.97 37.09 19.03 36.03 53.97 57.91 120.32 58.62 142.91 67.26 152.62 64.44 178.03 76.44 206.09 112.44 206.44"/>
      <polygon class="cls-5" points="53.57 74.66 77.04 55.25 53.75 30.9 43.51 26.66 41.93 50.31 53.57 74.66"/>
      <polyline class="cls-2" points="58.47 142.76 83.93 167.49 102.28 177.54 105.1 183.72 112.51 183.19"/>
      <polyline class="cls-2" points="63.41 121.65 72.46 134.49 92.22 146.49 84.81 159.54 91.34 170.31 111.46 162.9 112.29 151.71"/>
      <line class="cls-2" x1="95.44" y1="168.94" x2="105.1" y2="183.72"/>
      <path class="cls-8" d="M99.99,118.96c1.41,2.5,1.9,6.57,2.63,9.34-.31,1.87-1.04,6.08-1.33,7.91-.3.84-.59,1.68-.95,2.52-.06-.9-.06-1.8-.06-2.69.32-1.73,1.02-6.01,1.33-7.81,0,0,0,.19,0,.19l-1.06-4.68c-.42-1.57-.65-3.15-.57-4.79h0Z"/>
      <polygon class="cls-3" points="95.22 112.43 85.87 102.01 73.16 97.07 78.81 110.31 95.22 112.43"/>
      <circle class="cls-5" cx="83.57" cy="104.22" r="2.21"/>
      <polygon class="cls-1" points="112.12 166.06 111.18 171.71 106.06 183.18 112.24 182.94 112.12 166.06"/>
    </g>
  </g>
  <g id="single">
    <g id="cat8">
      <polygon class="cls-6" points="68.09 153.06 67.82 177.94 91.47 200.65 89.35 205.24 77.06 205.06 65.18 178.09 68.09 153.06"/>
      <polygon class="cls-6" points="40.12 20.94 43.12 25.82 54.06 30.53 77.94 55.71 72.85 60.03 78.97 66.85 91.71 66.29 101.12 86.18 99.47 75.24 92.88 59.82 100.88 64.29 109.94 75.82 109.71 100.18 100.85 119 103 128.06 101.26 139.34 112.25 139.43 112.74 53.26 88.72 53.78 54.65 24.85 40.12 20.94"/>
      <polygon class="cls-6" points="108.76 147.82 93.47 135.35 72.29 133.71 93.24 146.18 85.82 159.71 91.78 169.07 110.41 162.18 108.76 147.82"/>
      <polygon class="cls-6" points="151.59 98.29 146.24 120 134.88 125.71 134.41 137.47 136.47 135.94 136.88 131.35 151.53 121.06 150.29 118.41 157.82 92.29 171.1 85.6 158.76 108.41 162.06 113.94 151.34 133.78 127 145.24 123.24 107.35 141.12 90.29 150.53 86.18 174.18 83 152.76 95.35 150.53 96.76 138 101.29 127.35 113.47 146.41 111.18 151.06 99.47 151.59 98.29"/>
      <polygon class="cls-6" points="150.53 86.18 154.65 62.53 171.35 75.82 183.47 50.76 181.99 26.12 186.54 21.04 187.56 53.84 176.06 82.18 150.53 86.18"/>
      <polygon class="cls-6" points="113.09 164 113.15 166.15 114.24 171.26 115.76 174.47 119.15 182.32 127.88 169.32 113.09 164"/>
      <g>
        <polygon class="cls-8" points="118.06 92.88 118.41 82.88 122.53 77.71 123.59 60.12 125.59 78.41 121.35 84.76 118.06 92.88"/>
        <path class="cls-8" d="M118.06,92.88c.13-3.26-.3-6.66-.15-10.02.01-.17,0-.16.11-.29,0,0,4.12-5.18,4.12-5.18l-.11.28,1.06-17.59,1-.02,2,18.29.02.18c-1.27,1.89-3.08,4.63-4.33,6.51-.97,2.18-2.69,5.35-3.71,7.84h0ZM118.06,92.88c1.14-2.8,1.88-5.65,2.87-8.4,1.2-1.8,3.02-4.52,4.24-6.35,0,0-.08.33-.08.33l-2-18.29,1-.02-1.06,17.59v.16s-.11.12-.11.12l-4.12,5.18.11-.29c-.12,3.3-.77,6.57-.85,9.98h0Z"/>
      </g>
      <polygon class="cls-5" points="134.71 53.65 136.88 75.12 132.06 78.29 125.47 91 131.12 76.53 134.65 73.35 134.71 53.65"/>
      <polyline class="cls-5" points="147.41 55.41 145.35 82.18 150.06 74.06 148.65 67.12 154.65 60.65"/>
      <polygon class="cls-5" points="99.71 109.47 101.82 103.24 89.12 91.35 79.82 87.35 98.06 105.24 97 108.41 99.71 109.47"/>
      <polygon class="cls-5" points="67.12 78.53 61.47 97.71 73.12 97.29 67.12 78.53"/>
      <path class="cls-8" d="M73.24,61.12c1.03.65,2.07,1.43,3.01,2.19.33.24.63.49.78.88,0,0,2.53,3.88,2.53,3.88l-1.35-.68,11.88-.71.91-.05.47.79c.53.87,3.02,5.17,3.55,5.94.34,1.44.61,2.86.8,4.35-1.21-.88-2.34-1.8-3.43-2.79-.41-.8-3-5.1-3.51-5.97,0,0,1.38.73,1.38.73l-11.88.71-.87.05-.48-.73c-.16-.25-2.79-4.26-2.86-4.36-.37-1.37-.73-2.81-.94-4.23h0Z"/>
      <polygon class="cls-1" points="70.88 133.24 68.18 153.12 67.59 139.82 60.76 117.35 70.88 133.24"/>
      <polygon class="cls-1" points="94.06 114 96.88 129.24 93.47 134.41 87.12 133.88 92.76 127 94.06 114"/>
      <polygon class="cls-1" points="132.53 87.24 131.12 95.12 117.24 106.29 120.18 116.53 122.53 110.18 122.71 106.65 134.93 94.87 132.53 87.24"/>
      <polygon class="cls-1" points="174.06 98.29 161.09 106.69 176.44 83.4 177.94 86.18 174.06 98.29"/>
      <polygon class="cls-1" points="159.82 131.47 160.06 142.65 139.47 159.59 138.32 156.63 142.53 149.35 157 139.12 159.82 131.47"/>
      <polygon class="cls-1" points="151.47 160.82 153.41 172.12 143.53 191.71 143.53 196.29 156.59 172.47 151.47 160.82"/>
      <polygon class="cls-1" points="139.12 168.76 142.12 166.82 142.47 179.71 137.71 184.12 136.29 206 135.24 182.35 139.82 178.65 139.12 168.76"/>
      <g>
        <line class="cls-7" x1="134.18" y1="204.41" x2="121.65" y2="181.29"/>
        <polygon class="cls-8" points="132.86 205.13 121.65 181.29 135.5 203.7 132.86 205.13 132.86 205.13"/>
      </g>
      <g>
        <polyline class="cls-7" points="118.65 206.53 119.18 194 115.82 184.12"/>
        <path class="cls-8" d="M118.65,206.53c-.17-1.05-.33-2.11-.38-3.15l.14-3.13.26-6.26.03.18-1.68-4.94c-.64-1.64-1.01-3.34-1.2-5.1.45.76.85,1.55,1.27,2.32.66,1.6,1.94,5.7,2.56,7.4.03.06.03.12.03.18,0,0-.26,6.26-.26,6.26l-.12,3.13c-.13,1.04-.39,2.08-.64,3.11h0Z"/>
      </g>
      <g>
        <polygon class="cls-7" points="110.88 185 109.65 197 103.82 197.53 103.65 206.35 113.18 206.18 110.88 185"/>
        <path class="cls-8" d="M110.88,185c-.42,4.09-.22,8.04-.74,12.05,0,0-.04.41-.04.41l-.41.04-5.82.53.45-.49-.18,8.82-.51-.51,9.53-.18-.49.55c-.87-7.11-1.16-14.05-1.8-21.23h0ZM110.88,185c.99,7.11,2.17,14.48,2.85,21.67,0,0-.55.01-.55.01l-9.53.18h-.52s.01-.51.01-.51l.18-8.82v-.45s.45-.04.45-.04l5.82-.53-.45.45c.11-1.04.41-3.73.54-4.74.45-2.41.96-4.91,1.19-7.2h0Z"/>
      </g>
      <polyline class="cls-1" points="100.65 206.35 100.82 189.24 77.88 170.88 76.65 160.12 75.94 175.12 98 191 95.71 206.71"/>
      <polygon class="cls-1" points="88.91 147.1 79.12 147.59 76.47 161.35 80.18 150.06 88.91 147.1"/>
      <polygon class="cls-1" points="151.88 97.18 156.53 93.82 150.41 120.94 136.65 130.29 135.41 136.47 135.76 125.71 147.06 120.41 151.88 97.18"/>
      <polygon class="cls-5" points="124.53 140.41 100.16 140.31 112.16 149.31 124.53 140.41"/>
    </g>
  </g>
</svg>