<svg width="1124" height="169" viewBox="0 0 1124 169" fill="none" xmlns="http://www.w3.org/2000/svg">
<g clip-path="url(#clip0_4_502)">
<rect width="1124" height="169" fill="#3B3D56"/>
<path d="M76.8066 73.2373L92.773 74.2859L116.306 49.8942L125.551 83.747L108.531 96.5744L107.692 107.299L91.5169 126.227L82.9026 130.01L78.6997 134.848H75.5445" fill="#323232"/>
<path d="M76.8066 73.2373L92.773 74.2859L116.306 49.8942L125.551 83.747L108.531 96.5744L107.692 107.299L91.5169 126.227L82.9026 130.01L78.6997 134.848H75.5445" stroke="black" stroke-miterlimit="10"/>
<path d="M93.8267 123.069L97.607 134.425L83.9504 166.18H76.8066V134.848H78.6997L82.9026 130.01L93.8267 123.069Z" fill="#323232" stroke="black" stroke-miterlimit="10"/>
<path d="M78.7235 135.134H75.4671V165.889H78.7235V135.134Z" fill="#323232"/>
<path d="M85.6292 104.778L90.4632 95.9428L98.238 94.6857L96.3449 104.564L85.6292 104.778Z" fill="#59B6FF" fill-opacity="0.92" stroke="black" stroke-miterlimit="10"/>
<path d="M115.675 57.4667L120.092 80.1723L108.954 93.2141L99.9168 78.4921L108.531 71.3427L115.675 57.4667Z" fill="black" stroke="black" stroke-miterlimit="10"/>
<path d="M80.3785 109.616L84.3731 112.768L86.2602 110.665L82.2716 108.139L82.9026 104.355L84.1588 107.722L92.5647 114.031L102.649 103.307L98.4464 93.4226L104.959 103.307L91.7253 116.766L87.945 111.296L80.5869 116.974L80.3785 119.917L77.3602 122.259L77.4614 117.105L81.2179 112.768L80.3785 109.616Z" fill="#7D7D7D"/>
<path d="M70.4486 79.0999C69.3651 81.1911 68.365 83.6338 67.0136 85.4391C67.0434 85.4152 67.1327 85.4093 67.1327 85.4152C66.9779 85.4271 66.7695 85.4569 66.6386 85.4867C63.6382 86.1004 60.739 86.9464 58.0838 88.5312L58.1196 88.6444C59.5662 88.5193 60.9592 88.2095 62.3285 87.8639C64.0549 87.435 65.6622 86.6545 67.3767 86.2315C67.4482 86.1957 67.4601 86.1778 67.5077 86.148C68.2995 85.2722 68.5912 84.1879 69.0794 83.1572C69.6032 81.8286 70.1033 80.5 70.5557 79.1475L70.4426 79.0999H70.4486Z" fill="#7D7D7D"/>
<path d="M68.3173 130.82C66.9303 133.966 65.6206 137.142 64.3168 140.323C65.9539 144.124 67.5911 147.973 70.4248 151.077L70.5855 150.994C70.3771 149.975 70.0676 149.004 69.7283 148.051C68.7757 145.167 67.1446 142.617 65.6325 140.007L65.6682 140.532C66.6445 137.32 67.603 134.109 68.484 130.874L68.3173 130.814V130.82Z" fill="#7D7D7D"/>
<path d="M88.5165 128.95C88.064 130.397 87.6533 131.845 87.2604 133.305C88.7665 134.687 90.2846 136.224 92.3206 136.784L92.392 136.689C91.5943 135.408 90.4989 134.389 89.213 133.632L87.9926 132.828L88.1474 133.245C88.3379 131.827 88.4986 130.397 88.6356 128.967L88.5165 128.944V128.95Z" fill="#7D7D7D"/>
<path d="M86.5996 113.429C87.5938 116.921 88.838 120.716 89.9155 124.183L90.4037 123.129C88.3855 123.611 86.4686 124.41 84.6529 125.422C84.0457 125.768 83.4444 126.126 82.8669 126.56L82.9265 126.727C84.3433 126.668 85.7066 126.394 87.0639 126.048C88.6951 125.673 90.237 124.982 91.755 124.296C91.249 123.224 90.7489 122.122 90.2846 121.037C89.719 119.757 88.5582 117.183 87.9629 115.914C87.5699 115.062 87.177 114.21 86.7663 113.364L86.5996 113.429Z" fill="#7D7D7D"/>
<path d="M89.4154 98.469L91.7253 102.044H94.2435L95.5055 96.5743L93.8267 95.5258L90.6715 95.9428L89.4154 98.469Z" fill="black" stroke="black" stroke-miterlimit="10"/>
<path d="M78.1996 125.411L82.9026 130.01L78.6997 134.848H76.8066" stroke="black" stroke-miterlimit="10"/>
<path d="M76.878 73.2373L60.9056 74.2859L37.3787 49.8942L28.1334 83.747L45.1476 96.5744L45.9929 107.299L62.1677 126.227L70.782 130.01L74.9849 134.848H78.1401" fill="#323232"/>
<path d="M76.878 73.2373L60.9056 74.2859L37.3787 49.8942L28.1334 83.747L45.1476 96.5744L45.9929 107.299L62.1677 126.227L70.782 130.01L74.9849 134.848H78.1401" stroke="black" stroke-miterlimit="10"/>
<path d="M59.8579 123.069L56.0776 134.425L69.7342 166.18H76.878V134.848H74.9849L70.782 130.01L59.8579 123.069Z" fill="#323232" stroke="black" stroke-miterlimit="10"/>
<path d="M78.2175 135.134H74.9611V165.889H78.2175V135.134Z" fill="#323232"/>
<path d="M68.0495 104.778L63.2214 95.9428L55.4466 94.6857L57.3337 104.564L68.0495 104.778Z" fill="#59B6FF" fill-opacity="0.92" stroke="black" stroke-miterlimit="10"/>
<path d="M38.0038 57.4667L33.5925 80.1723L44.7309 93.2141L53.7618 78.4921L45.1476 71.3427L38.0038 57.4667Z" fill="black" stroke="black" stroke-miterlimit="10"/>
<path d="M73.3061 109.616L69.3115 112.768L67.4244 110.665L71.413 108.139L70.782 104.355L69.5258 107.722L61.12 114.031L51.0353 103.307L55.2382 93.4226L48.7195 103.307L61.9594 116.766L65.7396 111.296L73.0978 116.974L73.3061 119.917L76.3244 122.259L76.2232 117.105L72.4667 112.768L73.3061 109.616Z" fill="#7D7D7D"/>
<path d="M83.236 79.0999C84.3195 81.1911 85.3196 83.6338 86.671 85.4391C86.6412 85.4152 86.5519 85.4093 86.5519 85.4152C86.7067 85.4271 86.9151 85.4569 87.0461 85.4867C90.0465 86.1004 92.9457 86.9464 95.6008 88.5312L95.5651 88.6444C94.1184 88.5193 92.7254 88.2095 91.3562 87.8639C89.6297 87.435 88.0224 86.6545 86.3079 86.2315C86.2364 86.1957 86.2245 86.1778 86.1769 86.148C85.3851 85.2722 85.0934 84.1879 84.6053 83.1572C84.0814 81.8286 83.5813 80.5 83.1289 79.1475L83.242 79.0999H83.236Z" fill="#7D7D7D"/>
<path d="M85.3673 130.82C86.7543 133.966 88.0641 137.142 89.3678 140.323C87.7307 144.124 86.0935 147.973 83.2598 151.077L83.0991 150.994C83.3075 149.975 83.617 149.004 83.9564 148.051C84.9089 145.167 86.54 142.617 88.0521 140.007L88.0164 140.532C87.0401 137.32 86.0816 134.109 85.2006 130.874L85.3673 130.814V130.82Z" fill="#7D7D7D"/>
<path d="M65.1681 128.95C65.6206 130.397 66.0313 131.845 66.4242 133.305C64.9181 134.687 63.4 136.224 61.364 136.784L61.2926 136.689C62.0903 135.408 63.1857 134.389 64.4716 133.632L65.692 132.828L65.5372 133.245C65.3467 131.827 65.186 130.397 65.0491 128.967L65.1681 128.944V128.95Z" fill="#7D7D7D"/>
<path d="M67.085 113.429C66.0909 116.921 64.8467 120.716 63.7691 124.183L63.281 123.129C65.2991 123.611 67.216 124.41 69.0317 125.422C69.639 125.768 70.2402 126.126 70.8177 126.56L70.7582 126.727C69.3413 126.668 67.978 126.394 66.6207 126.048C64.9895 125.673 63.4477 124.982 61.9296 124.296C62.4356 123.224 62.9357 122.122 63.4 121.037C63.9656 119.757 65.1265 117.183 65.7218 115.914C66.1147 115.062 66.5076 114.21 66.9184 113.364L67.085 113.429Z" fill="#7D7D7D"/>
<path d="M64.2692 98.469L61.9594 102.044H59.4352L58.1791 96.5743L59.8579 95.5258L63.0071 95.9428L64.2692 98.469Z" fill="black" stroke="black" stroke-miterlimit="10"/>
<path d="M75.485 125.411L70.782 130.01L74.9849 134.848H76.878" stroke="black" stroke-miterlimit="10"/>
<path d="M77.0626 89.5559L74.7468 88.5074L69.0794 95.0253L72.8596 104.278L73.4907 110.587L74.7468 111.004L76.6399 109.116L78.3187 110.796L80.2118 109.956V104.701L84.6231 94.8168L79.1641 88.2988L77.0626 89.5559Z" fill="#7D7D7D"/>
<path d="M72.7703 84.1164C71.0677 85.6416 69.4008 87.2443 67.6625 88.7159C64.8109 89.6394 61.8522 90.5986 58.8935 91.0633L58.8756 91.0037C59.5781 90.6999 60.2865 90.4437 61.0009 90.1815C63.0607 89.4368 65.4181 88.8589 67.5434 88.3048C68.8829 87.1311 71.0915 85.4152 72.7286 84.0687L72.7703 84.1164Z" fill="#7D7D7D"/>
<path d="M68.7877 81.2685C68.0495 82.4422 67.3172 83.6219 66.5671 84.7837L66.4838 84.8015L62.7749 85.5522C61.8105 85.6833 59.8162 86.0348 58.9887 85.8501C60.1972 85.445 61.4295 85.153 62.6737 84.9445L66.4242 84.4381L66.3052 84.5156C67.1029 83.4133 67.9304 82.329 68.746 81.2387L68.7936 81.2745L68.7877 81.2685Z" fill="#7D7D7D"/>
<path d="M78.3484 139.507C77.8126 142.277 76.7173 147.836 76.1577 150.595C74.711 152.447 73.0501 154.181 71.4011 155.873C69.2877 158.006 69.1805 158.024 71.1094 155.617C72.4488 153.985 74.4431 151.578 75.6457 150.487C76.2886 147.747 77.6162 142.23 78.2889 139.495L78.3484 139.507Z" fill="#7D7D7D"/>
<path d="M182.28 102.715L191.882 103.621L207.162 93.6117L206.58 120.303L220.289 126.976L206.774 129.328L217.153 133.254L205.403 135.612L209.321 149.741L202.661 166.029H182.092" fill="#323232"/>
<path d="M182.28 102.715L191.882 103.621L207.162 93.6117L206.58 120.303L220.289 126.976L206.774 129.328L217.153 133.254L205.403 135.612L209.321 149.741L202.661 166.029H182.092" stroke="black" stroke-miterlimit="10"/>
<path d="M205.403 135.612L199.331 140.322L186.399 138.553L182.092 142.084" stroke="black" stroke-miterlimit="10"/>
<path d="M186.399 138.553L188.552 136.59L182.341 133.671L182.286 129.528" stroke="black" stroke-miterlimit="10"/>
<path d="M196.783 114.019C196.978 114.609 194.824 118.14 194.824 118.14L187.187 118.924L190.517 115.982L196.783 114.019Z" fill="#59B6FF" stroke="black" stroke-miterlimit="10"/>
<path d="M195.412 104.405L205.991 95.7692L204.032 110.883L195.412 104.405Z" fill="black" stroke="black" stroke-miterlimit="10"/>
<path d="M206.774 156.019L202.073 144.637L194.236 166.029H202.661L206.774 156.019Z" fill="black" stroke="black" stroke-miterlimit="10"/>
<path d="M192.276 139.337L197.172 151.115L192.082 148.563L194.13 161.052L186.46 139.07L192.276 139.337Z" fill="black" stroke="black" stroke-miterlimit="10"/>
<path d="M193.259 115.198L194.041 116.572L192.887 118.068L191.688 118.146L190.511 115.982L193.259 115.198Z" fill="black" stroke="black" stroke-miterlimit="10"/>
<path d="M182.358 102.715L172.75 103.621L157.47 93.6117L158.059 120.303L144.349 126.976L157.864 129.328L147.48 133.254L159.235 135.612L155.317 149.741L161.977 166.029H182.547" fill="#323232"/>
<path d="M182.358 102.715L172.75 103.621L157.47 93.6117L158.059 120.303L144.349 126.976L157.864 129.328L147.48 133.254L159.235 135.612L155.317 149.741L161.977 166.029H182.547" stroke="black" stroke-miterlimit="10"/>
<path d="M159.235 135.612L165.307 140.322L178.24 138.553L182.547 142.084" stroke="black" stroke-miterlimit="10"/>
<path d="M178.24 138.553L176.081 136.59L182.297 133.671L182.352 129.528" stroke="black" stroke-miterlimit="10"/>
<path d="M167.855 114.019C167.661 114.609 169.814 118.14 169.814 118.14L177.451 118.924L174.121 115.982L167.855 114.019Z" fill="#59B6FF" stroke="black" stroke-miterlimit="10"/>
<path d="M169.226 104.405L158.647 95.7692L160.606 110.883L169.226 104.405Z" fill="black" stroke="black" stroke-miterlimit="10"/>
<path d="M157.864 156.019L162.565 144.637L170.403 166.029H161.977L157.864 156.019Z" fill="black" stroke="black" stroke-miterlimit="10"/>
<path d="M172.362 139.337L167.461 151.115L172.556 148.563L170.508 161.052L178.179 139.07L172.362 139.337Z" fill="black" stroke="black" stroke-miterlimit="10"/>
<path d="M171.379 115.198L170.597 116.572L171.751 118.068L172.95 118.146L174.121 115.982L171.379 115.198Z" fill="black" stroke="black" stroke-miterlimit="10"/>
<path d="M169.104 114.014L176.253 114.142L179.977 118.268L178.212 125.725L168.421 128.077L159.213 126.904L165.479 122.778L161.172 120.031L163.914 117.678L167.244 120.031L177.823 121.993L177.429 119.052L174.099 116.105L169.104 114.014Z" fill="black" stroke="black" stroke-miterlimit="10"/>
<path d="M170.575 134.555L159.213 126.904L161.172 120.031L163.914 117.678V108.848L160.584 111.006L157.903 93.9954L158.036 120.425L145.076 126.965L158.492 129.389L147.718 133.315L157.742 135.245L170.575 134.555Z" fill="black" stroke="black" stroke-miterlimit="10"/>
<path d="M169.004 112.574L176.058 110.805L181.542 107.669H183.501L185.072 112.768L180.365 113.558L179.977 118.268L176.253 114.142L169.004 112.574Z" fill="#7D7D7D" stroke="#7D7D7D" stroke-miterlimit="10"/>
<path d="M187.32 103.843C187.514 104.627 191.533 111.206 191.533 111.206L184.711 118.596L186.376 118.924L190.262 115.454L197.61 113.458L195.257 118.596L187.031 119.48L196.045 127.688L194.674 128.472L188.208 124.741L182.885 129.779L182.819 133.148L190.656 137.302L199.081 139.855L205.053 135.145L215.205 133.054L204.853 129.195L218.535 126.709L206.097 120.692L206.163 112.023L194.802 104.694L187.326 103.843H187.32Z" fill="#7D7D7D" stroke="#7D7D7D" stroke-miterlimit="10"/>
<path d="M202.7 122.583L188.202 136.713L187.026 139.07L190.556 138.876L201.523 129.45L202.7 122.583Z" fill="black" stroke="black" stroke-miterlimit="10"/>
<path d="M178.118 126.281L168.943 128.505L175.731 136.123L181.87 133.082V129.745L178.118 126.281Z" fill="#7D7D7D" stroke="#7D7D7D" stroke-miterlimit="10"/>
<path d="M177.562 165.567L177.624 149.469L191.144 162.815L194.929 163.927L199.303 151.893L200.119 140.411L205.148 136.518L208.772 149.602L201.984 165.567H177.562Z" fill="#7D7D7D" stroke="#7D7D7D" stroke-miterlimit="10"/>
<path d="M188.202 124.741H178.473L178.279 125.986L182.325 129.979L188.202 124.741Z" fill="black" stroke="black" stroke-miterlimit="10"/>
<path d="M292.807 125.598L329.889 113.616V94.6879L327.579 93.0078L334.092 64.827L310.874 79.3404L292.813 78.3395" fill="#323232"/>
<path d="M292.807 125.598L329.889 113.616V94.6879L327.579 93.0078L334.092 64.827L310.874 79.3404L292.813 78.3395" stroke="black" stroke-miterlimit="10"/>
<path d="M315.708 120.45L320.435 130.12L327.264 168.077H292.807V125.598L315.185 118.978L315.708 120.45Z" fill="#323232" stroke="black" stroke-miterlimit="10"/>
<path d="M329.996 71.7679L324.847 92.3763L313.714 83.2309L329.996 71.7679Z" fill="black" stroke="black" stroke-miterlimit="10"/>
<path d="M312.029 125.18L315.601 134.642L316.548 143.686L317.286 132.115L312.029 125.18Z" fill="black" stroke="black" stroke-miterlimit="10"/>
<path d="M302.683 149.781L310.666 149.888L313.958 165.271L309.511 157.139L302.683 149.781Z" fill="black" stroke="black" stroke-miterlimit="10"/>
<path d="M304.046 99.3172L307.517 95.951L313.922 95.111L308.457 99.3172H304.046Z" fill="#59B6FF" stroke="black" stroke-miterlimit="10"/>
<path d="M299.218 101.837L299.528 108.778L314.696 118.663L301.736 122.97L306.255 116.976L297.432 109.618L297.325 99.8415L299.218 101.837Z" fill="black" stroke="black" stroke-miterlimit="10"/>
<path d="M322.924 95.0037L327.478 102.993L329.645 113.402L326.287 114.629L320.435 103.518L322.924 95.0037Z" fill="black" stroke="black" stroke-miterlimit="10"/>
<path d="M322.084 107.867L317.917 112.037L311.297 115.648L305.517 111.966L316.971 106.467L318.018 103.941L320.542 103.869L322.084 107.867Z" fill="#7D7D7D" stroke="#7D7D7D" stroke-miterlimit="10"/>
<path d="M308.303 98.8942C309.144 98.8942 309.827 98.2114 309.827 97.369C309.827 96.5266 309.144 95.8438 308.303 95.8438C307.461 95.8438 306.779 96.5266 306.779 97.369C306.779 98.2114 307.461 98.8942 308.303 98.8942Z" fill="black" stroke="black" stroke-miterlimit="10"/>
<path d="M292.878 125.598L255.79 113.616V94.6879L258.105 93.0078L251.593 64.827L274.81 79.3404L292.872 78.3395" fill="#323232"/>
<path d="M292.878 125.598L255.79 113.616V94.6879L258.105 93.0078L251.593 64.827L274.81 79.3404L292.872 78.3395" stroke="black" stroke-miterlimit="10"/>
<path d="M269.976 120.45L265.249 130.12L258.421 168.077H292.878V125.598L270.5 118.978L269.976 120.45Z" fill="#323232" stroke="black" stroke-miterlimit="10"/>
<path d="M255.689 71.7679L260.832 92.3763L271.97 83.2309L255.689 71.7679Z" fill="black" stroke="black" stroke-miterlimit="10"/>
<path d="M273.649 125.18L270.077 134.642L269.137 143.686L268.399 132.115L273.649 125.18Z" fill="black" stroke="black" stroke-miterlimit="10"/>
<path d="M283.002 149.781L275.018 149.888L271.726 165.271L276.173 157.139L283.002 149.781Z" fill="black" stroke="black" stroke-miterlimit="10"/>
<path d="M281.638 99.3172L278.168 95.951L271.762 95.111L277.221 99.3172H281.638Z" fill="#59B6FF" stroke="black" stroke-miterlimit="10"/>
<path d="M286.466 101.837L286.151 108.778L270.988 118.663L283.948 122.97L279.43 116.976L288.252 109.618L288.36 99.8415L286.466 101.837Z" fill="black" stroke="black" stroke-miterlimit="10"/>
<path d="M262.761 95.0037L258.207 102.993L256.04 113.402L259.397 114.629L265.249 103.518L262.761 95.0037Z" fill="black" stroke="black" stroke-miterlimit="10"/>
<path d="M263.6 107.867L267.768 112.037L274.387 115.648L280.168 111.966L268.714 106.467L267.666 103.941L265.142 103.869L263.6 107.867Z" fill="#7D7D7D" stroke="#7D7D7D" stroke-miterlimit="10"/>
<path d="M277.382 98.8942C278.224 98.8942 278.906 98.2114 278.906 97.369C278.906 96.5266 278.224 95.8438 277.382 95.8438C276.54 95.8438 275.858 96.5266 275.858 97.369C275.858 98.2114 276.54 98.8942 277.382 98.8942Z" fill="black" stroke="black" stroke-miterlimit="10"/>
<path d="M295.265 82.0989L288.961 94.5033L291.378 109.958L297.051 95.9748L295.265 82.0989Z" fill="#7D7D7D" stroke="#7D7D7D" stroke-miterlimit="10"/>
<path d="M296.319 89.8799L301.046 99.3411L304.302 94.7118L312.178 91.8758L315.542 94.402L308.713 99.8653L301.046 99.7641L300.308 102.6L305.249 105.019L320.584 103.44L322.584 94.7118L306.612 83.5705L296.319 89.8799Z" fill="#7D7D7D" stroke="#7D7D7D" stroke-miterlimit="10"/>
<path d="M300.308 102.6L295.616 100.461L296.319 89.8799L301.046 99.7641L300.308 102.6Z" fill="#7D7D7D" stroke="#7D7D7D" stroke-miterlimit="10"/>
<path d="M301.677 99.3411L303.635 99.2696L307.136 95.7663L313.547 95.3433L314.911 94.2947L312.178 91.8758L304.302 94.7118L301.677 99.3411Z" fill="black" stroke="black" stroke-miterlimit="10"/>
<path d="M283.603 99.0253L286.127 101.778L289.014 99.1564L288.491 94.4794L290.437 90.297L279.299 83.6777L263.118 94.4854L265.118 103.494L279.507 104.912L285.603 102.076L281.609 99.4483L277.65 99.6926L271.316 95.5042L270.494 94.6998L274.256 92.2988L281.4 95.0275L283.603 99.0253Z" fill="black" stroke="black" stroke-miterlimit="10"/>
<path d="M282.799 123.381L276.251 138.347L267.428 149.596L285.704 144.865L288.86 155.798L296.319 167.053L295.795 125.312L292.747 126.152L282.799 123.381Z" fill="#7D7D7D" stroke="#7D7D7D" stroke-miterlimit="10"/>
<path d="M284.972 125.312L283.817 132.354L279.507 143.501L286.234 137.192L284.972 125.312Z" fill="black" stroke="black" stroke-miterlimit="10"/>
<path d="M314.458 119.675L306.719 129.303C306.719 129.303 306.719 129.303 306.719 129.309L300.522 158.426L296.664 168.018C296.664 168.018 296.634 168.03 296.634 168.012L296.319 127.832V127.826L298.414 124.328C298.414 124.328 298.414 124.323 298.426 124.323L314.44 119.646C314.44 119.646 314.47 119.657 314.458 119.669V119.675Z" fill="black" stroke="black" stroke-miterlimit="10"/>
<path d="M308.952 137.787L314.905 145.598C314.905 145.598 314.905 145.604 314.905 145.61L317.453 155.292C317.459 155.321 317.506 155.315 317.506 155.28L316.482 143.829C316.482 143.829 316.482 143.817 316.47 143.811L308.981 137.752C308.981 137.752 308.922 137.764 308.946 137.787H308.952Z" fill="black" stroke="black" stroke-miterlimit="10"/>
<path d="M294.009 88.9326L291.693 100.288L295.057 95.5578L294.009 88.9326Z" fill="black" stroke="black" stroke-miterlimit="10"/>
<path d="M292.36 161.601L293.217 162.965L293.444 167.768L292.36 167.785V161.601Z" fill="#323232"/>
<path d="M298.051 111.692H287.443L292.902 116.16L298.051 111.692Z" fill="#7D7D7D" stroke="black" stroke-miterlimit="10"/>
<path d="M391.784 113.801L400.075 114.711L415.749 107.181L411.086 124.966L415.232 132.756C415.232 132.756 415.221 143.083 397.873 145.604C393.628 146.222 391.734 146.023 391.734 146.023" fill="#323232"/>
<path d="M391.784 113.801L400.075 114.711L415.749 107.181L411.086 124.966L415.232 132.756C415.232 132.756 415.221 143.083 397.873 145.604C393.628 146.222 391.734 146.023 391.734 146.023" stroke="black" stroke-miterlimit="10"/>
<path d="M400.967 145.002C400.967 145.002 404.612 155.076 397.856 166.616L391.883 167.052L391.833 146.365L400.967 145.002Z" fill="#323232" stroke="black" stroke-miterlimit="10"/>
<path d="M409.225 121.927L403.637 115.698L414.103 109.321L409.225 121.927Z" fill="black" stroke="black" stroke-miterlimit="10"/>
<path d="M395.77 117.16L397.856 119.494L394.944 122.953L395.77 117.16Z" fill="black" stroke="black" stroke-miterlimit="10"/>
<path d="M401.303 121.298L396.205 124.994L396.981 121.927L401.303 121.298Z" fill="black" stroke="black" stroke-miterlimit="10"/>
<path d="M391.684 137.141L395.087 137.114L391.734 140.33L392.439 143.761L396.061 145.973L392.852 149.041L391.684 148.698L391.519 144.197" fill="black"/>
<path d="M391.684 137.141L395.087 137.114L391.734 140.33L392.439 143.761L396.061 145.973L392.852 149.041L391.684 148.698L391.519 144.197" stroke="black" stroke-width="0.5" stroke-miterlimit="10"/>
<path d="M400.967 139.988L397.663 145.587L396.061 145.973" stroke="black" stroke-width="0.5" stroke-miterlimit="10"/>
<path d="M395.72 126.891C395.99 126.737 396.26 126.588 396.529 126.434C398.831 125.143 401.138 123.852 403.439 122.555C404.314 123.736 405.966 126.538 405.724 129.953C405.333 135.404 400.136 133.263 400.136 133.263L395.715 126.886L395.72 126.891Z" fill="#59B6FF" stroke="black" stroke-width="0.5" stroke-miterlimit="10"/>
<path d="M402.91 122.903C402.91 122.903 405.487 126.02 402.91 129.087C400.334 132.154 396.937 128.16 396.937 128.16C396.937 128.16 396.227 127.542 396.535 126.439L402.91 122.903Z" fill="black" stroke="black" stroke-width="0.5" stroke-miterlimit="10"/>
<path d="M401.402 124.073C401.402 124.073 403.125 126.825 400.405 127.697C397.686 128.569 398.291 125.579 398.291 125.579L401.402 124.067V124.073Z" fill="#7D7D7D" stroke="black" stroke-width="0.5" stroke-miterlimit="10"/>
<path d="M410.756 125.165L409.517 124.359L412.82 132.684L409.517 136.187L402.277 139.596L398.198 135.85L396.788 136.093L401.209 140.181L398.297 144.975C398.297 144.975 413.211 143.684 414.863 132.927L410.756 125.165Z" fill="#7D7D7D" stroke="#7D7D7D" stroke-width="0.5" stroke-miterlimit="10"/>
<path d="M397.636 145.924L393.243 159.02L391.712 159.533L391.684 149.018L393.171 149.063L396.227 146.194L397.636 145.924Z" fill="#7D7D7D" stroke="#7D7D7D" stroke-width="0.5" stroke-miterlimit="10"/>
<path d="M400.526 150.938L398.098 156.024L397.372 160.041H394.674L397.564 154.441L400.526 150.938Z" fill="black" stroke="black" stroke-width="0.5" stroke-miterlimit="10"/>
<path d="M394.454 127.283L398.198 135.85H394.674L394.454 127.283Z" fill="black" stroke="black" stroke-width="0.5" stroke-miterlimit="10"/>
<path d="M408.592 126.572L406.99 132.684L402.668 135.315L400.042 134.681L404.562 132.734L408.592 126.572Z" fill="black" stroke="black" stroke-width="0.5" stroke-miterlimit="10"/>
<path d="M391.734 124.073H393.826L392.609 126.649V133.682H391.833L391.734 124.073Z" fill="black" stroke="black" stroke-width="0.5" stroke-miterlimit="10"/>
<path d="M391.266 159.748L392.819 159.555V166.434L390.424 166.302" fill="#323232"/>
<path d="M391.266 159.748L392.819 159.555V166.434L390.424 166.302" stroke="#323232" stroke-miterlimit="10"/>
<path d="M391.85 113.801L383.558 114.711L367.884 107.181L372.547 124.966L368.401 132.756C368.401 132.756 368.412 143.083 385.76 145.604C390.005 146.222 391.899 146.023 391.899 146.023" fill="#323232"/>
<path d="M391.85 113.801L383.558 114.711L367.884 107.181L372.547 124.966L368.401 132.756C368.401 132.756 368.412 143.083 385.76 145.604C390.005 146.222 391.899 146.023 391.899 146.023" stroke="black" stroke-miterlimit="10"/>
<path d="M382.666 145.002C382.666 145.002 379.022 155.076 385.777 166.616L391.751 167.052L391.8 146.365L382.666 145.002Z" fill="#323232" stroke="black" stroke-miterlimit="10"/>
<path d="M374.408 121.927L379.996 115.698L369.525 109.321L374.408 121.927Z" fill="black" stroke="black" stroke-miterlimit="10"/>
<path d="M387.864 117.16L385.777 119.494L388.689 122.953L387.864 117.16Z" fill="black" stroke="black" stroke-miterlimit="10"/>
<path d="M382.325 121.298L387.429 124.994L386.652 121.927L382.325 121.298Z" fill="black" stroke="black" stroke-miterlimit="10"/>
<path d="M391.943 137.141L388.546 137.114L391.899 140.33L391.194 143.761L387.572 145.973L390.782 149.041L391.943 148.698L392.114 144.197" fill="black"/>
<path d="M391.943 137.141L388.546 137.114L391.899 140.33L391.194 143.761L387.572 145.973L390.782 149.041L391.943 148.698L392.114 144.197" stroke="black" stroke-width="0.5" stroke-miterlimit="10"/>
<path d="M382.666 139.988L385.97 145.587L387.572 145.973" stroke="black" stroke-width="0.5" stroke-miterlimit="10"/>
<path d="M387.913 126.891C387.643 126.737 387.374 126.588 387.104 126.434C384.802 125.143 382.496 123.852 380.194 122.555C379.319 123.736 377.667 126.538 377.909 129.953C378.3 135.404 383.498 133.263 383.498 133.263L387.919 126.886L387.913 126.891Z" fill="#59B6FF" stroke="black" stroke-width="0.5" stroke-miterlimit="10"/>
<path d="M380.723 122.903C380.723 122.903 378.146 126.02 380.723 129.087C383.299 132.154 386.696 128.16 386.696 128.16C386.696 128.16 387.407 127.542 387.098 126.439L380.723 122.903Z" fill="black" stroke="black" stroke-width="0.5" stroke-miterlimit="10"/>
<path d="M382.231 124.073C382.231 124.073 380.508 126.825 383.228 127.697C385.948 128.569 385.342 125.579 385.342 125.579L382.231 124.067V124.073Z" fill="#7D7D7D" stroke="black" stroke-width="0.5" stroke-miterlimit="10"/>
<path d="M372.877 125.165L374.116 124.359L370.813 132.684L374.116 136.187L381.356 139.596L385.436 135.85L386.845 136.093L382.424 140.181L385.337 144.975C385.337 144.975 370.422 143.684 368.77 132.927L372.877 125.165Z" fill="#7D7D7D" stroke="#7D7D7D" stroke-width="0.5" stroke-miterlimit="10"/>
<path d="M385.997 145.924L390.391 159.02L391.921 159.533L391.943 149.018L390.462 149.063L387.401 146.194L385.997 145.924Z" fill="#7D7D7D" stroke="#7D7D7D" stroke-width="0.5" stroke-miterlimit="10"/>
<path d="M383.107 150.938L385.535 156.024L386.261 160.041H388.959L386.069 154.441L383.107 150.938Z" fill="black" stroke="black" stroke-width="0.5" stroke-miterlimit="10"/>
<path d="M389.179 127.283L385.436 135.85H388.959L389.179 127.283Z" fill="black" stroke="black" stroke-width="0.5" stroke-miterlimit="10"/>
<path d="M375.041 126.572L376.643 132.684L380.965 135.315L383.591 134.681L379.071 132.734L375.041 126.572Z" fill="black" stroke="black" stroke-width="0.5" stroke-miterlimit="10"/>
<path d="M391.899 124.073H389.807L391.024 126.649V133.682H391.8L391.899 124.073Z" fill="black" stroke="black" stroke-width="0.5" stroke-miterlimit="10"/>
<path d="M392.367 159.748L390.815 159.555V166.434L393.209 166.302" fill="#323232"/>
<path d="M392.367 159.748L390.815 159.555V166.434L393.209 166.302" stroke="#323232" stroke-miterlimit="10"/>
<path d="M392.092 115.798L390.903 118.374L392.527 123.51L392.334 119.444L393.039 118.523L392.092 115.798Z" fill="black" stroke="black" stroke-miterlimit="10"/>
<path d="M490.238 85.7303L499.731 85.4033L508.898 91.0717L529.392 72.4429L526.963 106.465L547.457 119.419L527.502 114.83L544.22 134.273L525.886 136.7L536.399 168.289L490.026 169.431" fill="#323232"/>
<path d="M490.238 85.7303L499.731 85.4033L508.898 91.0717L529.392 72.4429L526.963 106.465L547.457 119.419L527.502 114.83L544.22 134.273L525.886 136.7L536.399 168.289L490.026 169.431" stroke="black" stroke-miterlimit="10"/>
<path d="M500.608 119.184L520.225 107.945L515.573 98.1285L522.38 103.223L528.573 76.2295L526.442 106.809L544.489 118.174L526.086 113.923L543.074 133.866L525.617 136.166L519.412 131.032L502.734 138.117L501.015 137.308L505.358 129.614L500.608 119.184Z" fill="#7D7D7D" stroke="#7D7D7D" stroke-miterlimit="10"/>
<path d="M522.38 103.223L511.597 93.7739L528.04 76.763L522.38 103.223Z" fill="black" stroke="black" stroke-miterlimit="10"/>
<path d="M496.718 85.9254L496.563 92.1503L493.028 95.4951L493.733 86.0803L496.718 85.9254Z" fill="black" stroke="black" stroke-miterlimit="10"/>
<path d="M501.57 86.9868L501.318 96.5049L496.867 98.9375L499.697 95.4951V85.9254L501.57 86.9868Z" fill="black" stroke="black" stroke-miterlimit="10"/>
<path d="M505.764 89.6202L505.867 96.5049L510.617 101.972L503.742 99.2415L503.438 87.899L505.764 89.6202Z" fill="black" stroke="black" stroke-miterlimit="10"/>
<path d="M512.754 104.319C510.044 103.688 505.908 102.879 503.14 102.334L502.888 102.282C500.551 103.648 498.419 105.363 496.815 107.572L496.918 107.71C498.769 107.073 500.465 106.103 502.023 104.939C502.527 104.548 503.003 104.112 503.49 103.694L502.934 103.837C504.55 103.958 508.709 104.273 510.279 104.353C511.098 104.405 511.912 104.451 512.731 104.485L512.754 104.313V104.319Z" fill="black"/>
<path d="M493.624 109.471C493.532 110.997 493.337 112.558 493.452 114.067C493.567 114.566 493.727 115.065 494.082 115.547H494.197C494.73 114.514 494.649 113.516 494.369 112.472C494.197 111.462 493.985 110.458 493.744 109.465L493.63 109.471H493.624Z" fill="black"/>
<path d="M491.149 127.033C491.011 128.874 490.811 131.439 490.713 133.252L490.702 133.395L490.816 133.527C492.329 135.231 493.853 137.228 495.623 138.656C496.225 139.161 496.844 139.655 497.525 140.079L497.606 139.999C496.403 137.951 494.833 136.184 493.068 134.606L491.372 132.982L491.481 133.258C491.447 132.219 491.435 131.181 491.384 130.142L491.252 127.027H491.137L491.149 127.033Z" fill="black"/>
<path d="M500.201 119.391C500.39 121.267 501.095 122.919 501.903 124.589L504.126 129.551L504.137 129.058L502.04 133.183L501.513 134.216C501.376 134.52 501.089 134.933 501.026 135.266C500.82 136.023 500.614 136.786 500.447 137.572C501.209 136.671 502.063 135.828 502.533 134.738C502.865 134.084 504.779 130.32 505.157 129.58L505.283 129.333L505.168 129.081L502.945 124.118C502.235 122.408 501.473 120.779 500.201 119.391Z" fill="black"/>
<path d="M520.071 130.98C518.455 131.049 516.948 131.456 515.47 132.087L511.07 133.734C511.058 133.734 511.03 133.751 511.018 133.757L506.67 135.908C505.151 136.585 503.753 137.365 502.573 138.576C504.246 138.369 505.718 137.738 507.174 136.941C507.145 136.952 511.711 134.703 511.471 134.812L515.871 133.166C517.401 132.678 518.799 131.99 520.071 130.986V130.98Z" fill="black"/>
<path d="M517.934 111.84C516.988 112.776 515.648 114.17 514.702 115.139L514.863 115.013C511.368 116.516 507.552 117.497 504.819 120.32L504.894 120.475C508.847 120.068 512.009 117.629 515.395 115.793L515.436 115.742L516.759 113.854C517.2 113.223 517.641 112.592 518.065 111.949L517.934 111.84Z" fill="black"/>
<path d="M519.652 114.772C518.65 115.639 517.229 116.941 516.232 117.842L516.398 117.727C512.943 118.989 509.208 119.729 506.44 122.345L506.509 122.506C510.354 122.351 513.539 120.159 516.897 118.553L516.937 118.501L518.369 116.706C518.845 116.103 519.32 115.507 519.784 114.893L519.658 114.772H519.652Z" fill="black"/>
<path d="M493.028 143.585L495.148 148.14L498.184 152.598L494.139 149.356L495.451 158.369L490.599 150.573V158.163L493.532 161.909L490.295 161.812" fill="black"/>
<path d="M493.028 143.585L495.148 148.14L498.184 152.598L494.139 149.356L495.451 158.369L490.599 150.573V158.163L493.532 161.909L490.295 161.812" stroke="black" stroke-miterlimit="10"/>
<path d="M501.519 152.902L515.069 145.409L511.224 158.266L520.225 150.469L517.796 155.834L523.256 159.482L530.727 152.994L535.655 167.721L490.169 168.84L490.095 162.517L495.108 164.973L501.507 163.963L503.238 160.188L501.519 152.902Z" fill="#7D7D7D" stroke="#7D7D7D" stroke-miterlimit="10"/>
<path d="M490.06 133.04L496.832 140.194L492.214 142.776L492.822 145.409H490.094L490.06 133.04Z" fill="#7D7D7D" stroke="#7D7D7D" stroke-miterlimit="10"/>
<path d="M490.421 85.7303L480.928 85.4033L471.761 91.0717L451.267 72.4429L453.696 106.465L433.202 119.419L453.157 114.83L436.439 134.273L454.773 136.7L444.26 168.289L490.633 169.431" fill="#323232"/>
<path d="M490.421 85.7303L480.928 85.4033L471.761 91.0717L451.267 72.4429L453.696 106.465L433.202 119.419L453.157 114.83L436.439 134.273L454.773 136.7L444.26 168.289L490.633 169.431" stroke="black" stroke-miterlimit="10"/>
<path d="M480.051 119.184L460.434 107.945L465.086 98.1285L458.279 103.223L452.086 76.2295L454.217 106.809L436.17 118.174L454.572 113.923L437.585 133.866L455.042 136.166L461.241 131.032L477.925 138.117L479.644 137.308L475.296 129.614L480.051 119.184Z" fill="#7D7D7D" stroke="#7D7D7D" stroke-miterlimit="10"/>
<path d="M458.279 103.223L469.062 93.7739L452.619 76.763L458.279 103.223Z" fill="black" stroke="black" stroke-miterlimit="10"/>
<path d="M483.941 85.9254L484.096 92.1503L487.631 95.4951L486.926 86.0803L483.941 85.9254Z" fill="black" stroke="black" stroke-miterlimit="10"/>
<path d="M479.088 86.9868L479.34 96.5049L483.792 98.9375L480.962 95.4951V85.9254L479.088 86.9868Z" fill="black" stroke="black" stroke-miterlimit="10"/>
<path d="M474.894 89.6202L474.791 96.5049L470.042 101.972L476.917 99.2415L477.221 87.899L474.894 89.6202Z" fill="black" stroke="black" stroke-miterlimit="10"/>
<path d="M467.905 104.319C470.615 103.688 474.751 102.879 477.519 102.334L477.771 102.282C480.108 103.648 482.24 105.363 483.844 107.572L483.741 107.71C481.89 107.073 480.194 106.103 478.636 104.939C478.132 104.548 477.656 104.112 477.169 103.694L477.725 103.837C476.109 103.958 471.95 104.273 470.38 104.353C469.56 104.405 468.747 104.451 467.928 104.485L467.905 104.313V104.319Z" fill="black"/>
<path d="M487.035 109.471C487.127 110.997 487.322 112.558 487.207 114.067C487.092 114.566 486.932 115.065 486.577 115.547H486.462C485.929 114.514 486.009 113.516 486.29 112.472C486.462 111.462 486.674 110.458 486.915 109.465L487.029 109.471H487.035Z" fill="black"/>
<path d="M489.51 127.033C489.648 128.874 489.848 131.439 489.946 133.252L489.957 133.395L489.842 133.527C488.33 135.231 486.806 137.228 485.035 138.656C484.434 139.161 483.815 139.655 483.133 140.079L483.053 139.999C484.256 137.951 485.826 136.184 487.591 134.606L489.287 132.982L489.178 133.258C489.212 132.219 489.224 131.181 489.275 130.142L489.407 127.027H489.522L489.51 127.033Z" fill="black"/>
<path d="M480.452 119.391C480.263 121.267 479.558 122.919 478.75 124.589L476.527 129.551L476.516 129.058L478.613 133.183L479.14 134.216C479.277 134.52 479.564 134.933 479.627 135.266C479.833 136.023 480.039 136.786 480.206 137.572C479.444 136.671 478.59 135.828 478.12 134.738C477.788 134.084 475.874 130.32 475.496 129.58L475.37 129.333L475.485 129.081L477.708 124.118C478.418 122.408 479.18 120.779 480.452 119.391Z" fill="black"/>
<path d="M460.588 130.98C462.204 131.049 463.711 131.456 465.189 132.087L469.589 133.734C469.601 133.734 469.629 133.751 469.641 133.757L473.989 135.908C475.508 136.585 476.905 137.365 478.086 138.576C476.413 138.369 474.94 137.738 473.485 136.941C473.514 136.952 468.947 134.703 469.188 134.812L464.788 133.166C463.258 132.678 461.86 131.99 460.588 130.986V130.98Z" fill="black"/>
<path d="M462.725 111.84C463.671 112.776 465.011 114.17 465.957 115.139L465.796 115.013C469.291 116.516 473.107 117.497 475.84 120.32L475.765 120.475C471.812 120.068 468.649 117.629 465.263 115.793L465.223 115.742L463.9 113.854C463.459 113.223 463.017 112.592 462.594 111.949L462.725 111.84Z" fill="black"/>
<path d="M461.001 114.772C462.003 115.639 463.424 116.941 464.421 117.842L464.255 117.727C467.71 118.989 471.445 119.729 474.213 122.345L474.144 122.506C470.3 122.351 467.114 120.159 463.757 118.553L463.716 118.501L462.284 116.706C461.809 116.103 461.333 115.507 460.869 114.893L460.995 114.772H461.001Z" fill="black"/>
<path d="M487.631 143.585L485.511 148.14L482.474 152.598L486.519 149.356L485.207 158.369L490.06 150.573V158.163L487.127 161.909L490.364 161.812" fill="black"/>
<path d="M487.631 143.585L485.511 148.14L482.474 152.598L486.519 149.356L485.207 158.369L490.06 150.573V158.163L487.127 161.909L490.364 161.812" stroke="black" stroke-miterlimit="10"/>
<path d="M479.14 152.902L465.59 145.409L469.434 158.266L460.434 150.469L462.863 155.834L457.403 159.482L449.926 152.994L445.004 167.721L490.49 168.84L490.564 162.517L485.551 164.973L479.146 163.963L477.421 160.188L479.14 152.902Z" fill="#7D7D7D" stroke="#7D7D7D" stroke-miterlimit="10"/>
<path d="M490.599 133.04L483.827 140.194L488.444 142.776L487.837 145.409H490.564L490.599 133.04Z" fill="#7D7D7D" stroke="#7D7D7D" stroke-miterlimit="10"/>
<path d="M493.876 103.516L494.18 117.589L487.809 117.388L486.296 119.31L491.452 121.743L495.394 119.31L499.84 119.821L493.876 103.516Z" fill="black" stroke="black" stroke-miterlimit="10"/>
<path d="M490.003 133.286L483.328 140.102L488.181 142.971L487.574 145.604L493.034 145.639L492.461 142.971L497.279 140.234L490.879 133.453L490.003 133.286Z" fill="#7D7D7D" stroke="#7D7D7D" stroke-miterlimit="10"/>
<path d="M487.917 145.902L492.741 145.925L491.853 152.586L490.776 158.157L491.229 162.116L489.986 162.076L489.865 159.104L488.823 151.915L487.917 145.902Z" fill="black"/>
<path d="M622.255 140.452L627.583 137.216L649.198 137.339L659.559 124.651L651.346 116.609L653.242 87.0786L638.074 103.163L622.277 101.908" fill="#323232"/>
<path d="M622.255 140.452L627.583 137.216L649.198 137.339L659.559 124.651L651.346 116.609L653.242 87.0786L638.074 103.163L622.277 101.908" stroke="black" stroke-miterlimit="10"/>
<path d="M644.772 137.467L657.158 156.942L649.45 152.168L657.539 169.507L622.406 169.379L622.153 140.858L628.722 136.458L644.772 137.467Z" fill="#323232" stroke="black" stroke-miterlimit="10"/>
<path d="M650.084 93.3638L649.198 114.222L639.341 104.797L650.084 93.3638Z" fill="black" stroke="black" stroke-miterlimit="10"/>
<path d="M630.146 121.196L634.786 116.764L642.94 119.968L635.64 119.498L631.284 123.076L630.146 121.196Z" fill="#59B6FF" stroke="black" stroke-miterlimit="10"/>
<path d="M633.556 120.769C634.262 120.769 634.835 120.2 634.835 119.498C634.835 118.796 634.262 118.227 633.556 118.227C632.85 118.227 632.278 118.796 632.278 119.498C632.278 120.2 632.85 120.769 633.556 120.769Z" fill="black" stroke="black" stroke-miterlimit="10"/>
<path d="M622.465 134.012C622.9 134.365 623.399 134.712 623.861 135.027C624.012 135.16 624.205 135.15 624.377 135.224C625.698 135.673 629.265 136.88 630.634 137.344L630.892 137.43C630.994 137.366 633.127 135.876 633.293 135.769C633.648 135.507 634.05 135.315 634.314 134.915C634.609 134.568 634.894 134.199 635.168 133.82C634.287 134.066 633.379 134.301 632.681 134.888L630.5 136.394L630.978 136.324L626.81 134.909L624.726 134.204C624.549 134.162 624.398 134.034 624.194 134.05C623.636 134.012 623.029 133.985 622.465 134.002V134.012Z" fill="black"/>
<path d="M622.771 140.783H621.793V169.091H622.771V140.783Z" fill="#323232"/>
<path d="M622.363 140.452L617.034 137.216L595.42 137.339L585.059 124.651L593.272 116.609L591.376 87.0786L606.544 103.163L622.341 101.908" fill="#323232"/>
<path d="M622.363 140.452L617.034 137.216L595.42 137.339L585.059 124.651L593.272 116.609L591.376 87.0786L606.544 103.163L622.341 101.908" stroke="black" stroke-miterlimit="10"/>
<path d="M599.846 137.467L587.46 156.942L595.168 152.168L587.079 169.507L622.212 169.379L622.465 140.858L615.896 136.458L599.846 137.467Z" fill="#323232" stroke="black" stroke-miterlimit="10"/>
<path d="M594.534 93.3638L595.42 114.222L605.277 104.797L594.534 93.3638Z" fill="black" stroke="black" stroke-miterlimit="10"/>
<path d="M614.472 121.196L609.826 116.764L601.678 119.968L608.977 119.498L613.333 123.076L614.472 121.196Z" fill="#59B6FF" stroke="black" stroke-miterlimit="10"/>
<path d="M611.061 120.769C611.767 120.769 612.34 120.2 612.34 119.498C612.34 118.796 611.767 118.227 611.061 118.227C610.355 118.227 609.783 118.796 609.783 119.498C609.783 120.2 610.355 120.769 611.061 120.769Z" fill="black" stroke="black" stroke-miterlimit="10"/>
<path d="M622.153 134.012C621.718 134.365 621.219 134.712 620.757 135.027C620.606 135.16 620.413 135.15 620.241 135.224C618.92 135.673 615.353 136.88 613.983 137.344L613.726 137.43C613.624 137.366 611.491 135.876 611.325 135.769C610.97 135.507 610.567 135.315 610.304 134.915C610.009 134.568 609.724 134.199 609.45 133.82C610.331 134.066 611.239 134.301 611.937 134.888L614.118 136.394L613.64 136.324L617.808 134.909L619.892 134.204C620.069 134.162 620.219 134.034 620.424 134.05C620.982 134.012 621.589 133.985 622.153 134.002V134.012Z" fill="black"/>
<path d="M622.819 140.783H621.842V169.091H622.819V140.783Z" fill="#323232"/>
<path d="M622.046 102.415C622.046 102.415 619.473 117.73 614.354 118.387C610.562 119.049 610.406 115.76 610.406 115.76C610.406 115.76 602.312 120.272 597.671 119.423C593.03 118.574 593.691 117.02 593.691 117.02L606.533 103.782L622.046 102.415Z" fill="#7D7D7D" stroke="#7D7D7D" stroke-miterlimit="10"/>
<path d="M585.886 124.827C585.886 124.827 600.609 121.185 604.304 129.382C608 137.579 598.777 136.778 598.777 136.778L595.651 136.794L585.886 124.827Z" fill="#7D7D7D" stroke="#7D7D7D" stroke-miterlimit="10"/>
<path d="M623.587 168.84C623.587 168.84 622.411 145.296 628.19 147.651C633.97 150.006 631.048 168.877 631.048 168.877L623.582 168.84H623.587Z" fill="#7D7D7D" stroke="#7D7D7D" stroke-miterlimit="10"/>
<path d="M639.094 168.947C639.094 168.947 640.518 142.134 643.928 143.266C647.339 144.399 655.38 155.298 655.38 155.298L648.537 151.058L656.707 168.979L639.094 168.947Z" fill="#7D7D7D" stroke="#7D7D7D" stroke-miterlimit="10"/>
<path d="M619.333 135.758C619.333 135.758 620.139 137.328 622.508 137.611C624.876 137.894 625.601 135.881 625.601 135.881L622.126 134.124L619.328 135.758H619.333Z" fill="#7D7D7D" stroke="#7D7D7D" stroke-miterlimit="10"/>
<path d="M627.342 134.824C627.342 134.824 632.632 137.27 630.645 128.224C628.658 119.178 622.889 133.094 622.889 133.094L619.618 132.859L619.236 134.178L622.744 133.74L627.342 134.829V134.824Z" fill="#7D7D7D" stroke="#7D7D7D" stroke-miterlimit="10"/>
<path d="M655.869 129.324C655.869 129.324 646.2 122.536 641.081 126.59C635.963 130.643 633.782 134.6 633.782 134.6L631.413 137.19L648.95 137.328L655.869 129.318V129.324Z" fill="black" stroke="black" stroke-miterlimit="10"/>
<path d="M613.785 136.955C613.785 136.955 622.346 137.366 612.173 159.762C608.193 168.525 592.171 165.7 592.171 165.7L587.052 169.625L595.012 151.939L588.615 155.992L600.276 137.521L613.785 136.955Z" fill="black" stroke="black" stroke-miterlimit="10"/>
<path d="M613.076 123.386C613.076 123.386 607.248 127.342 602.79 124.988C598.331 122.633 600.372 120.561 600.372 120.561L608.95 119.621L613.076 123.391V123.386Z" fill="black" stroke="black" stroke-miterlimit="10"/>
<path d="M630.135 121.073C630.135 121.073 628.572 112.545 634.545 113.015C640.518 113.485 644.165 120.085 644.165 120.085L634.829 117.068L630.135 121.073Z" fill="black" stroke="black" stroke-miterlimit="10"/>
<path d="M599.379 140.442C599.379 140.442 606.866 141.574 605.921 147.133C604.976 152.692 595.023 151.939 595.023 151.939L589.05 155.805L599.384 140.447L599.379 140.442Z" fill="#7D7D7D" stroke="black" stroke-miterlimit="10"/>
<path d="M610.089 116.833C613.676 116.833 616.583 115.863 616.583 114.665C616.583 113.468 613.676 112.497 610.089 112.497C606.503 112.497 603.595 113.468 603.595 114.665C603.595 115.863 606.503 116.833 610.089 116.833Z" fill="black" stroke="black" stroke-miterlimit="10"/>
<path d="M628.507 123.887H616.094L622.287 127.909L628.507 123.887Z" fill="black" stroke="black" stroke-miterlimit="10"/>
<path d="M739.672 95.2599L752.299 95.4458L773.013 67.3769L768.653 105.649L780.827 116.219L758.662 130.981L755.388 131.709L759.207 147.386L750.482 171.623L739.281 171.824" fill="#323232"/>
<path d="M739.672 95.2599L752.299 95.4458L773.013 67.3769L768.653 105.649L780.827 116.219L758.662 130.981L755.388 131.709L759.207 147.386L750.482 171.623L739.281 171.824" stroke="black" stroke-miterlimit="10"/>
<path d="M770.83 72.4836L765.837 103.738L755.115 96.2668L770.83 72.4836Z" fill="black" stroke="black" stroke-miterlimit="10"/>
<path d="M739.219 153.122L745.669 135.262L747.214 140.095L744.125 157.222L743.492 164.694L741.675 165.06L739.4 162.236L739.219 153.122Z" fill="#7D7D7D" stroke="#7D7D7D" stroke-miterlimit="10"/>
<path d="M779.21 116.632L775.01 115.583L747.455 128.492L739.652 123.83L739.492 132.897L745.206 129.138L745.283 129.339L742.174 131.983L755.048 131.234L758.471 130.46L779.21 116.632Z" fill="#7D7D7D" stroke="#7D7D7D" stroke-miterlimit="10"/>
<path d="M746.395 116.312L745.216 119.503L744.943 122.688" fill="#7D7D7D"/>
<path d="M746.374 116.301C745.911 117.36 745.427 118.408 745.005 119.482C744.882 120.324 744.66 121.966 744.969 122.694C745.309 121.749 745.458 120.349 745.412 119.575C745.757 118.496 746.097 117.411 746.421 116.322L746.374 116.306V116.301Z" fill="#7D7D7D"/>
<path d="M750.009 117.845C749.473 118.63 748.953 119.42 748.444 120.215C747.893 121 747.414 121.811 747.193 122.766L747.239 122.792C747.95 122.12 748.403 121.294 748.804 120.422C749.231 119.58 749.653 118.728 750.055 117.871L750.009 117.845Z" fill="#7D7D7D"/>
<path d="M760.19 115.103C758.77 115.966 757.359 116.843 755.959 117.731C754.585 118.604 752.984 119.513 751.954 120.706C753.483 120.014 754.852 119.079 756.186 118.077C757.483 117.091 759.042 116.141 760.19 115.103Z" fill="#7D7D7D"/>
<path d="M761.477 112.847L762.023 108.659L768.653 113.487L761.477 112.847Z" fill="#7D7D7D" stroke="#7D7D7D" stroke-miterlimit="10"/>
<path d="M744.943 155.585L747.121 165.241L749.942 171.37L739.446 171.417L739.4 162.236L741.675 165.06L743.492 164.694L744.943 155.585Z" fill="black" stroke="black" stroke-miterlimit="10"/>
<path d="M756.026 154.945L754.029 150.391L754.935 142.826L753.03 139.728L749.031 149.874L747.579 139.909L745.396 134.807L739.492 152.301L739.132 132.597L755.388 131.709L759.207 147.386L756.026 154.945Z" fill="black" stroke="black" stroke-miterlimit="10"/>
<path d="M780.055 116.446L775.01 115.583L747.939 128.157L771.921 114.396L764.566 107.198L744.218 113.487L743.579 109.568L749.031 106.563L749.123 96.8089L755.048 94.0981L780.827 116.219" fill="black"/>
<path d="M780.096 116.193L775.051 115.336L774.974 115.32C774.964 115.372 747.888 127.924 747.857 127.971L748.037 128.327L771.994 114.53L772.169 114.427L772.024 114.287L764.653 107.1L764.597 107.043C764.576 107.048 744.223 113.379 744.182 113.389L744.31 113.466L743.667 109.547L743.621 109.645L749.067 106.63C749.123 106.604 749.108 106.609 749.108 106.558C749.123 106.645 749.216 96.5249 749.144 96.8657L755.069 94.1446C754.791 94.0051 780.888 116.25 780.821 116.213C780.76 116.203 755.089 93.9742 755.022 94.0413L749.092 96.7418L749.051 96.7573V96.7986C749.108 96.7934 748.856 106.816 748.984 106.475L743.528 109.475L743.471 109.506L743.482 109.573L744.11 113.492L744.13 113.606L744.238 113.57C744.177 113.523 765.075 107.301 764.463 107.286L771.808 114.494L771.839 114.251L747.836 127.971L748.017 128.327L775.108 115.795L774.964 115.816L780.003 116.688L780.091 116.177L780.096 116.193Z" fill="black"/>
<path d="M739.312 98.2702L740.856 100.821L739.4 108.659L739.312 98.2702Z" fill="black" stroke="black" stroke-miterlimit="10"/>
<path d="M745.036 98.8175L742.854 102.277L742.308 108.473L745.036 98.8175Z" fill="black" stroke="black" stroke-miterlimit="10"/>
<path d="M748.125 105.014L746.215 104.466L742.581 108.928L748.125 105.014Z" fill="black" stroke="black" stroke-miterlimit="10"/>
<path d="M743.492 108.386L744.218 113.487L744.058 119.157L741.217 119.136V107.652L743.492 108.386Z" fill="black" stroke="black" stroke-miterlimit="10"/>
<path d="M753.936 110.477L753.298 115.945L747.121 112.759L753.936 110.477Z" fill="#59B6FF" stroke="black" stroke-miterlimit="10"/>
<path d="M750.755 114.308C751.255 114.308 751.661 113.615 751.661 112.759C751.661 111.903 751.255 111.21 750.755 111.21C750.255 111.21 749.849 111.903 749.849 112.759C749.849 113.615 750.255 114.308 750.755 114.308Z" fill="black" stroke="black" stroke-miterlimit="10"/>
<path d="M745.777 128.787C744.681 129.293 743.6 129.824 742.534 130.387C741.397 130.888 740.378 131.508 739.672 132.602L739.729 132.69C741.021 132.54 742.025 131.89 742.972 131.089C743.945 130.377 744.902 129.639 745.834 128.874L745.777 128.787Z" fill="black"/>
<path d="M739.914 95.2599L727.293 95.4458L706.579 67.3769L710.939 105.649L698.765 116.219L720.93 130.981L724.204 131.709L720.385 147.386L729.105 171.623L740.311 171.824" fill="#323232"/>
<path d="M739.914 95.2599L727.293 95.4458L706.579 67.3769L710.939 105.649L698.765 116.219L720.93 130.981L724.204 131.709L720.385 147.386L729.105 171.623L740.311 171.824" stroke="black" stroke-miterlimit="10"/>
<path d="M708.762 72.4836L713.755 103.738L724.472 96.2668L708.762 72.4836Z" fill="black" stroke="black" stroke-miterlimit="10"/>
<path d="M740.373 153.122L733.923 135.262L732.378 140.095L735.467 157.222L736.1 164.694L737.917 165.06L740.187 162.236L740.373 153.122Z" fill="#7D7D7D" stroke="#7D7D7D" stroke-miterlimit="10"/>
<path d="M700.382 116.632L704.582 115.583L732.137 128.492L739.94 123.83L740.1 132.897L734.386 129.138L734.309 129.339L737.418 131.983L724.544 131.234L721.121 130.46L700.382 116.632Z" fill="#7D7D7D" stroke="#7D7D7D" stroke-miterlimit="10"/>
<path d="M733.197 116.312L734.376 119.503L734.649 122.688" fill="#7D7D7D"/>
<path d="M733.218 116.301C733.681 117.36 734.165 118.408 734.587 119.482C734.71 120.324 734.932 121.966 734.623 122.694C734.283 121.749 734.134 120.349 734.18 119.575C733.835 118.496 733.495 117.411 733.171 116.322L733.218 116.306V116.301Z" fill="#7D7D7D"/>
<path d="M729.583 117.845C730.119 118.63 730.639 119.42 731.148 120.215C731.699 121 732.178 121.811 732.399 122.766L732.353 122.792C731.642 122.12 731.189 121.294 730.788 120.422C730.361 119.58 729.939 118.728 729.537 117.871L729.583 117.845Z" fill="#7D7D7D"/>
<path d="M719.402 115.103C720.822 115.966 722.233 116.843 723.633 117.731C725.007 118.604 726.608 119.513 727.638 120.706C726.109 120.014 724.74 119.079 723.406 118.077C722.109 117.091 720.55 116.141 719.402 115.103Z" fill="#7D7D7D"/>
<path d="M718.115 112.847L717.569 108.659L710.939 113.487L718.115 112.847Z" fill="#7D7D7D" stroke="#7D7D7D" stroke-miterlimit="10"/>
<path d="M734.648 155.585L732.466 165.241L729.65 171.37L740.146 171.417L740.187 162.236L737.917 165.06L736.1 164.694L734.648 155.585Z" fill="black" stroke="black" stroke-miterlimit="10"/>
<path d="M723.566 154.945L725.563 150.391L724.657 142.826L726.562 139.728L730.561 149.874L732.013 139.909L734.196 134.807L740.1 152.301L740.46 132.597L724.204 131.709L720.385 147.386L723.566 154.945Z" fill="black" stroke="black" stroke-miterlimit="10"/>
<path d="M699.538 116.446L704.582 115.583L731.653 128.157L707.671 114.396L715.026 107.198L735.374 113.487L736.013 109.568L730.561 106.563L730.469 96.8089L724.544 94.0981L698.765 116.219" fill="black"/>
<path d="M699.497 116.193L704.541 115.336L704.618 115.32C704.629 115.372 731.704 127.924 731.735 127.971L731.555 128.327L707.599 114.53L707.424 114.427L707.568 114.287L714.939 107.1L714.996 107.043C715.016 107.048 735.369 113.379 735.411 113.389L735.282 113.466L735.925 109.547L735.972 109.645L730.526 106.63C730.469 106.604 730.484 106.609 730.484 106.558C730.469 106.645 730.376 96.5249 730.448 96.8657L724.524 94.1446C724.802 94.0051 698.704 116.25 698.771 116.213C698.833 116.203 724.503 93.9742 724.57 94.0413L730.5 96.7418L730.541 96.7573V96.7986C730.484 96.7934 730.737 106.816 730.608 106.475L736.064 109.475L736.121 109.506L736.111 109.573L735.483 113.492L735.462 113.606L735.354 113.57C735.416 113.523 714.517 107.301 715.129 107.286L707.784 114.494L707.753 114.251L731.756 127.971L731.576 128.327L704.484 115.795L704.629 115.816L699.589 116.688L699.502 116.177L699.497 116.193Z" fill="black"/>
<path d="M740.28 98.2702L738.736 100.821L740.187 108.659L740.28 98.2702Z" fill="black" stroke="black" stroke-miterlimit="10"/>
<path d="M734.556 98.8175L736.738 102.277L737.284 108.473L734.556 98.8175Z" fill="black" stroke="black" stroke-miterlimit="10"/>
<path d="M731.467 105.014L733.377 104.466L737.011 108.928L731.467 105.014Z" fill="black" stroke="black" stroke-miterlimit="10"/>
<path d="M736.1 108.386L735.374 113.487L735.534 119.157L738.37 119.136V107.652L736.1 108.386Z" fill="black" stroke="black" stroke-miterlimit="10"/>
<path d="M725.656 110.477L726.289 115.945L732.466 112.759L725.656 110.477Z" fill="#59B6FF" stroke="black" stroke-miterlimit="10"/>
<path d="M728.837 114.308C729.337 114.308 729.743 113.615 729.743 112.759C729.743 111.903 729.337 111.21 728.837 111.21C728.337 111.21 727.931 111.903 727.931 112.759C727.931 113.615 728.337 114.308 728.837 114.308Z" fill="black" stroke="black" stroke-miterlimit="10"/>
<path d="M733.815 128.787C734.911 129.293 735.992 129.824 737.058 130.387C738.195 130.888 739.214 131.508 739.92 132.602L739.863 132.69C738.571 132.54 737.567 131.89 736.62 131.089C735.647 130.377 734.69 129.639 733.758 128.874L733.815 128.787Z" fill="black"/>
<path d="M735.868 119.642L743.754 119.616L739.94 123.83L735.868 119.642Z" fill="black" stroke="black" stroke-miterlimit="10"/>
<path d="M872.54 64.3736L889.408 65.0183L914.645 43.5605L927.778 39.9414L928.552 65.5385L912.588 114.147L912.07 130.696L905.759 137.81L907.824 156.425L899.068 176.982L872.803 177.238" fill="#323232"/>
<path d="M872.54 64.3736L889.408 65.0183L914.645 43.5605L927.778 39.9414L928.552 65.5385L912.588 114.147L912.07 130.696L905.759 137.81L907.824 156.425L899.068 176.982L872.803 177.238" stroke="black" stroke-miterlimit="10"/>
<path d="M915.754 80.696L898.623 66.4762L915.623 48.6374L923.087 45.5312L924.247 62.8572L915.754 80.696Z" fill="black" stroke="black" stroke-miterlimit="10"/>
<path d="M912.179 130.586L893.604 148.703L880.215 156.066L878.158 160.593L872.744 160.205" stroke="black" stroke-miterlimit="10"/>
<path d="M908.575 115.121L901.972 124.528L887.555 133.319L892.962 142.879L888.197 150.769L873.518 145.341L872.905 137.143" stroke="black" stroke-miterlimit="10"/>
<path d="M885.206 149.766L878.158 160.593" stroke="black" stroke-miterlimit="10"/>
<path d="M881.886 113.15C880.858 114.982 880.5 117.963 879.967 119.993C880.194 121.363 880.726 124.447 880.938 125.788C881.157 126.403 881.368 127.018 881.631 127.634C881.675 126.974 881.675 126.315 881.675 125.663C881.441 124.396 880.93 121.26 880.704 119.941V120.081L881.478 116.652C881.784 115.502 881.952 114.344 881.894 113.143L881.886 113.15Z" fill="black"/>
<path d="M885.366 108.366L892.188 100.733L901.461 97.1136L897.339 106.813L885.366 108.366Z" fill="#59B6FF" stroke="black" stroke-miterlimit="10"/>
<path d="M893.866 103.971C894.757 103.971 895.479 103.246 895.479 102.352C895.479 101.457 894.757 100.733 893.866 100.733C892.976 100.733 892.254 101.457 892.254 102.352C892.254 103.246 892.976 103.971 893.866 103.971Z" fill="black" stroke="black" stroke-miterlimit="10"/>
<path d="M873.036 147.656L873.722 151.795L877.458 160.198L872.949 160.022L873.036 147.656Z" fill="black" stroke="black" stroke-miterlimit="10"/>
<path d="M873.292 64.3736L856.431 65.0183L831.194 43.5605L818.061 39.9414L817.287 65.5385L833.251 114.147L833.769 130.696L840.073 137.81L838.015 156.425L846.771 176.982L873.036 177.238" fill="#323232"/>
<path d="M873.292 64.3736L856.431 65.0183L831.194 43.5605L818.061 39.9414L817.287 65.5385L833.251 114.147L833.769 130.696L840.073 137.81L838.015 156.425L846.771 176.982L873.036 177.238" stroke="black" stroke-miterlimit="10"/>
<path d="M830.085 80.696L847.208 66.4762L830.216 48.6374L822.745 45.5312L821.592 62.8572L830.085 80.696Z" fill="black" stroke="black" stroke-miterlimit="10"/>
<path d="M833.66 130.586L852.235 148.703L865.624 156.066L867.681 160.593L873.087 160.205" stroke="black" stroke-miterlimit="10"/>
<path d="M837.264 115.121L843.867 124.528L858.284 133.319L852.877 142.879L857.642 150.769L872.321 145.341L872.927 137.143" stroke="black" stroke-miterlimit="10"/>
<path d="M860.633 149.766L867.681 160.593" stroke="black" stroke-miterlimit="10"/>
<path d="M863.953 113.15C864.981 114.982 865.339 117.963 865.872 119.993C865.645 121.363 865.113 124.447 864.901 125.788C864.682 126.403 864.471 127.018 864.208 127.634C864.164 126.974 864.164 126.315 864.164 125.663C864.398 124.396 864.908 121.26 865.135 119.941V120.081L864.361 116.652C864.055 115.502 863.887 114.344 863.945 113.143L863.953 113.15Z" fill="black"/>
<path d="M860.473 108.366L853.651 100.733L844.378 97.1136L848.5 106.813L860.473 108.366Z" fill="#59B6FF" stroke="black" stroke-miterlimit="10"/>
<path d="M851.973 103.971C852.863 103.971 853.585 103.246 853.585 102.352C853.585 101.457 852.863 100.733 851.973 100.733C851.082 100.733 850.36 101.457 850.36 102.352C850.36 103.246 851.082 103.971 851.973 103.971Z" fill="black" stroke="black" stroke-miterlimit="10"/>
<path d="M872.803 147.656L872.117 151.795L868.381 160.198L872.89 160.022L872.803 147.656Z" fill="black" stroke="black" stroke-miterlimit="10"/>
<path d="M840.678 138.132L840.481 156.359L857.736 172.996L856.19 176.359L847.223 176.227L838.555 156.469L840.678 138.132Z" fill="#7D7D7D" stroke="#7D7D7D" stroke-miterlimit="10"/>
<path d="M820.272 41.3407L822.46 44.9158L830.442 48.3663L847.865 66.8132L844.151 69.978L848.617 74.9744L857.912 74.5641L864.777 89.1355L863.573 81.1209L858.765 69.8242L864.602 73.0989L871.212 81.5458L871.044 99.3919L864.58 113.179L866.149 119.817L864.879 128.081L872.898 128.147L873.255 65.0183L855.73 65.3993L830.873 44.2051L820.272 41.3407Z" fill="#7D7D7D" stroke="#7D7D7D" stroke-miterlimit="10"/>
<path d="M870.351 134.293L859.196 125.158L843.743 123.956L859.028 133.092L853.614 143.004L857.963 149.861L871.555 144.813L870.351 134.293Z" fill="#7D7D7D" stroke="#7D7D7D" stroke-miterlimit="10"/>
<path d="M901.6 98.0073L897.697 113.912L889.408 118.095L889.066 126.711L890.569 125.59L890.868 122.227L901.556 114.689L900.652 112.747L906.145 93.6117L915.835 88.7106L906.831 105.421L909.239 109.473L901.418 124.007L883.659 132.403L880.916 104.645L893.961 92.1465L900.827 89.1355L918.082 86.8059L902.454 95.8535L900.827 96.8865L891.685 100.205L883.915 109.128L897.821 107.451L901.213 98.8718L901.6 98.0073Z" fill="#7D7D7D" stroke="#7D7D7D" stroke-miterlimit="10"/>
<path d="M900.827 89.1356L903.833 71.8095L916.017 81.5458L924.86 63.1868L923.78 45.1356L927.1 41.4139L927.844 65.4432L919.453 86.2052L900.827 89.1356Z" fill="#7D7D7D" stroke="#7D7D7D" stroke-miterlimit="10"/>
<path d="M873.51 146.147L873.554 147.722L874.35 151.465L875.459 153.817L877.932 159.568L884.301 150.044L873.51 146.147Z" fill="#7D7D7D" stroke="#7D7D7D" stroke-miterlimit="10"/>
<path d="M877.137 94.0439L877.392 86.7179L880.398 82.9304L881.171 70.0439L882.63 83.4432L879.537 88.0952L877.137 94.0439Z" fill="black"/>
<path d="M877.137 94.044C877.231 91.6557 876.918 89.1648 877.027 86.7033C877.034 86.5788 877.027 86.5861 877.107 86.4908L880.113 82.696L880.033 82.9011L880.806 70.0147L881.536 70L882.995 83.3993L883.01 83.5311C882.083 84.9157 880.763 86.9231 879.851 88.3004C879.143 89.8974 877.888 92.2198 877.144 94.044H877.137ZM877.137 94.044C877.968 91.9927 878.508 89.9048 879.231 87.8901C880.106 86.5714 881.434 84.5788 882.324 83.2381L882.266 83.4799L880.806 70.0806L881.536 70.0659L880.763 82.9524V83.0696L880.682 83.1575L877.677 86.9524L877.757 86.7399C877.669 89.1575 877.195 91.5531 877.137 94.0513V94.044Z" fill="black"/>
<path d="M889.284 65.304L890.868 81.033L887.351 83.3553L882.543 92.6667L886.665 82.066L889.241 79.7363L889.284 65.304Z" fill="black" stroke="black" stroke-miterlimit="10"/>
<path d="M898.55 66.5934L897.047 86.2051L900.484 80.2564L899.455 75.1722L903.833 70.4322" fill="black"/>
<path d="M898.55 66.5934L897.047 86.2051L900.484 80.2564L899.455 75.1722L903.833 70.4322" stroke="black" stroke-miterlimit="10"/>
<path d="M863.748 106.198L865.288 101.634L856.022 92.9231L849.237 89.9927L862.545 103.099L861.771 105.421L863.748 106.198Z" fill="black" stroke="black" stroke-miterlimit="10"/>
<path d="M839.971 83.5311L835.849 97.5824L844.348 97.2747L839.971 83.5311Z" fill="black" stroke="black" stroke-miterlimit="10"/>
<path d="M844.436 70.7766C845.187 71.2527 845.946 71.8242 846.632 72.3809C846.873 72.5568 847.092 72.7399 847.201 73.0256L849.047 75.8681L848.062 75.37L856.73 74.8498L857.394 74.8132L857.736 75.3919C858.123 76.0293 859.94 79.1795 860.327 79.7436C860.575 80.7985 860.772 81.8388 860.91 82.9304C860.027 82.2857 859.203 81.6117 858.408 80.8864C858.109 80.3004 856.219 77.1502 855.847 76.5128L856.854 77.0476L848.186 77.5678L847.551 77.6044L847.201 77.0696C847.084 76.8864 845.165 73.9487 845.114 73.8755C844.844 72.8718 844.582 71.8168 844.429 70.7766H844.436Z" fill="black"/>
<path d="M842.714 123.612L840.744 138.176L840.314 128.432L835.331 111.971L842.714 123.612Z" fill="black" stroke="black" stroke-miterlimit="10"/>
<path d="M859.626 109.516L861.684 120.681L859.196 124.469L854.563 124.081L858.678 119.04L859.626 109.516Z" fill="black" stroke="black" stroke-miterlimit="10"/>
<path d="M887.694 89.9121L886.665 95.685L876.538 103.868L878.683 111.37L880.398 106.718L880.529 104.132L889.445 95.5019L887.694 89.9121Z" fill="black" stroke="black" stroke-miterlimit="10"/>
<path d="M917.994 98.0073L908.531 104.161L919.731 87.0989L920.825 89.1355L917.994 98.0073Z" fill="black" stroke="black" stroke-miterlimit="10"/>
<path d="M907.605 122.315L907.78 130.506L892.757 142.916L891.918 140.747L894.99 135.414L905.547 127.919L907.605 122.315Z" fill="black" stroke="black" stroke-miterlimit="10"/>
<path d="M901.513 143.817L902.928 152.095L895.719 166.447V169.802L905.248 152.352L901.513 143.817Z" fill="black" stroke="black" stroke-miterlimit="10"/>
<path d="M892.502 149.634L894.691 148.212L894.946 157.656L891.473 160.886L890.437 176.916L889.671 159.59L893.013 156.879L892.502 149.634Z" fill="black" stroke="black" stroke-miterlimit="10"/>
<path d="M887.935 176.278L879.756 158.813L889.861 175.231L887.935 176.278Z" fill="black"/>
<path d="M877.567 177.304L877.954 168.125L875.502 160.886" fill="black"/>
<path d="M877.567 177.304C877.443 176.535 877.326 175.758 877.29 174.997L877.392 172.703L877.582 168.117L877.604 168.249L876.378 164.63C875.911 163.429 875.641 162.183 875.502 160.894C875.831 161.451 876.122 162.029 876.429 162.594C876.91 163.766 877.844 166.769 878.297 168.015C878.319 168.059 878.319 168.103 878.319 168.147L878.129 172.733L878.041 175.026C877.946 175.788 877.757 176.55 877.574 177.304H877.567Z" fill="black"/>
<path d="M871.898 161.531L871.001 170.322L866.747 170.711L866.623 177.172L873.576 177.048L871.898 161.531Z" fill="black"/>
<path d="M871.898 161.531C871.592 164.527 871.738 167.421 871.358 170.359L871.329 170.659L871.03 170.689L866.784 171.077L867.112 170.718L866.981 177.18L866.608 176.806L873.562 176.674L873.204 177.077C872.569 171.868 872.358 166.784 871.891 161.524L871.898 161.531ZM871.898 161.531C872.62 166.74 873.481 172.139 873.977 177.407L873.576 177.414L866.623 177.546H866.244L866.251 177.172L866.382 170.711V170.381L866.711 170.352L870.957 169.963L870.629 170.293C870.709 169.531 870.928 167.56 871.023 166.821C871.351 165.055 871.723 163.223 871.891 161.546L871.898 161.531Z" fill="black"/>
<path d="M864.434 177.172L864.558 164.637L847.821 151.187L846.924 143.304L846.406 154.293L862.501 165.927L860.83 177.436" fill="black"/>
<path d="M864.434 177.172L864.558 164.637L847.821 151.187L846.924 143.304L846.406 154.293L862.501 165.927L860.83 177.436" stroke="black" stroke-miterlimit="10"/>
<path d="M855.869 133.766L848.726 134.125L846.793 144.205L849.499 135.934L855.869 133.766Z" fill="black" stroke="black" stroke-miterlimit="10"/>
<path d="M901.812 97.1941L905.204 94.7326L900.739 114.601L890.7 121.451L889.795 125.978L890.051 118.095L898.295 114.212L901.812 97.1941Z" fill="black" stroke="black" stroke-miterlimit="10"/>
<path d="M881.857 128.864L864.077 128.791L872.832 135.385L881.857 128.864Z" fill="black" stroke="black" stroke-miterlimit="10"/>
<path d="M1034.62 56.2088L1055.02 56.9157L1077.82 54.1847C1079.13 54.0241 1080.29 55.0522 1080.29 56.3775V79.2129L1088.2 108.506L1046.35 159.157H1034.47" fill="#323232"/>
<path d="M1034.62 56.2088L1055.02 56.9157L1077.82 54.1847C1079.13 54.0241 1080.29 55.0522 1080.29 56.3775V79.2129L1088.2 108.506L1046.35 159.157H1034.47" stroke="black" stroke-miterlimit="10"/>
<path d="M1074.63 124.956L1087.07 161.237L1084.81 177.871H1034.66L1034.86 159.92L1046.35 159.157L1074.63 124.956Z" fill="#323232" stroke="black" stroke-miterlimit="10"/>
<path d="M1075.77 70.5221L1064.83 59.751L1074.34 56.7229C1075.48 56.3614 1076.62 57.261 1076.55 58.4578L1075.77 70.5221Z" fill="black" stroke="black" stroke-miterlimit="10"/>
<path d="M1041.92 58.5703L1041.64 67.502L1050.88 76.5703V83.751L1053.89 82.6185L1054.27 73.3574L1044.28 66.5542L1041.92 58.5703Z" fill="black" stroke="black" stroke-miterlimit="10"/>
<path d="M1061.1 82.5703L1056.16 91.1245L1052.57 92.6345L1046.33 105.253L1047.48 86.2088L1061.1 82.5703Z" fill="#7D7D7D" stroke="#7D7D7D" stroke-miterlimit="10"/>
<path d="M1061.88 80.0241L1072.37 82.996L1079.35 100.386L1068.98 85.4538L1059.77 82.3615L1061.88 80.0241Z" fill="black" stroke="black" stroke-miterlimit="10"/>
<path d="M1055.02 88.2892L1046.55 84.8835L1061.06 80.3534L1055.02 88.2892Z" fill="#59B6FF" stroke="black" stroke-miterlimit="10"/>
<path d="M1071.62 130.056L1071.05 144.233L1056.51 177.189L1034.38 177.116L1034.59 159.96L1046.75 159.896L1071.62 130.056Z" fill="#7D7D7D" stroke="#7D7D7D" stroke-miterlimit="10"/>
<path d="M1048.1 115.952L1053.14 120.225L1077.27 109.647L1082.67 114.112L1046 158.378L1034.59 158.402L1034.66 121.695L1048.1 115.952Z" fill="#7D7D7D" stroke="#7D7D7D" stroke-miterlimit="10"/>
<path d="M1059.37 73.9277C1060.93 73.9277 1062.19 72.6583 1062.19 71.0924C1062.19 69.5265 1060.93 68.257 1059.37 68.257C1057.8 68.257 1056.54 69.5265 1056.54 71.0924C1056.54 72.6583 1057.8 73.9277 1059.37 73.9277Z" fill="black" stroke="black" stroke-miterlimit="10"/>
<path d="M1057.95 65.992C1059.35 65.992 1060.5 64.8484 1060.5 63.4378C1060.5 62.0271 1059.35 60.8835 1057.95 60.8835C1056.54 60.8835 1055.4 62.0271 1055.4 63.4378C1055.4 64.8484 1056.54 65.992 1057.95 65.992Z" fill="black" stroke="black" stroke-miterlimit="10"/>
<path d="M1071.14 79.0281C1072.44 79.0281 1073.5 77.9709 1073.5 76.6667C1073.5 75.3625 1072.44 74.3052 1071.14 74.3052C1069.84 74.3052 1068.79 75.3625 1068.79 76.6667C1068.79 77.9709 1069.84 79.0281 1071.14 79.0281Z" fill="black" stroke="black" stroke-miterlimit="10"/>
<path d="M1045.22 66.739C1046.26 66.739 1047.11 65.8939 1047.11 64.8514C1047.11 63.809 1046.26 62.9639 1045.22 62.9639C1044.18 62.9639 1043.34 63.809 1043.34 64.8514C1043.34 65.8939 1044.18 66.739 1045.22 66.739Z" fill="black" stroke="black" stroke-miterlimit="10"/>
<path d="M1074.92 91.502C1076.12 91.502 1077.09 90.5275 1077.09 89.3253C1077.09 88.1232 1076.12 87.1486 1074.92 87.1486C1073.72 87.1486 1072.75 88.1232 1072.75 89.3253C1072.75 90.5275 1073.72 91.502 1074.92 91.502Z" fill="black" stroke="black" stroke-miterlimit="10"/>
<path d="M1062.95 95.2771C1064.4 95.2771 1065.58 94.094 1065.58 92.6345C1065.58 91.1751 1064.4 89.992 1062.95 89.992C1061.49 89.992 1060.31 91.1751 1060.31 92.6345C1060.31 94.094 1061.49 95.2771 1062.95 95.2771Z" fill="black" stroke="black" stroke-miterlimit="10"/>
<path d="M1052.76 102.08C1054.01 102.08 1055.02 101.066 1055.02 99.8153C1055.02 98.5643 1054.01 97.5502 1052.76 97.5502C1051.52 97.5502 1050.5 98.5643 1050.5 99.8153C1050.5 101.066 1051.52 102.08 1052.76 102.08Z" fill="black" stroke="black" stroke-miterlimit="10"/>
<path d="M1060.5 106.241C1061.95 106.241 1063.13 105.058 1063.13 103.598C1063.13 102.139 1061.95 100.956 1060.5 100.956C1059.04 100.956 1057.86 102.139 1057.86 103.598C1057.86 105.058 1059.04 106.241 1060.5 106.241Z" fill="black" stroke="black" stroke-miterlimit="10"/>
<path d="M1055.4 112.482C1056.75 112.482 1057.85 111.382 1057.85 110.024C1057.85 108.667 1056.75 107.566 1055.4 107.566C1054.05 107.566 1052.95 108.667 1052.95 110.024C1052.95 111.382 1054.05 112.482 1055.4 112.482Z" fill="black" stroke="black" stroke-miterlimit="10"/>
<path d="M1065.39 114.554C1066.64 114.554 1067.65 113.54 1067.65 112.289C1067.65 111.038 1066.64 110.024 1065.39 110.024C1064.14 110.024 1063.13 111.038 1063.13 112.289C1063.13 113.54 1064.14 114.554 1065.39 114.554Z" fill="black" stroke="black" stroke-miterlimit="10"/>
<path d="M1076.42 108.321C1078.14 108.321 1079.53 106.926 1079.53 105.205C1079.53 103.484 1078.14 102.088 1076.42 102.088C1074.71 102.088 1073.31 103.484 1073.31 105.205C1073.31 106.926 1074.71 108.321 1076.42 108.321Z" fill="black" stroke="black" stroke-miterlimit="10"/>
<path d="M1070.39 99.4378C1071.17 99.4378 1071.8 98.8048 1071.8 98.0241C1071.8 97.2434 1071.17 96.6104 1070.39 96.6104C1069.61 96.6104 1068.98 97.2434 1068.98 98.0241C1068.98 98.8048 1069.61 99.4378 1070.39 99.4378Z" fill="black" stroke="black" stroke-miterlimit="10"/>
<path d="M1075.95 144.418C1077.51 144.418 1078.78 143.148 1078.78 141.582C1078.78 140.016 1077.51 138.747 1075.95 138.747C1074.39 138.747 1073.12 140.016 1073.12 141.582C1073.12 143.148 1074.39 144.418 1075.95 144.418Z" fill="black" stroke="black" stroke-miterlimit="10"/>
<path d="M1075.77 157.269C1077.43 157.269 1078.78 155.917 1078.78 154.249C1078.78 152.581 1077.43 151.229 1075.77 151.229C1074.1 151.229 1072.75 152.581 1072.75 154.249C1072.75 155.917 1074.1 157.269 1075.77 157.269Z" fill="black" stroke="black" stroke-miterlimit="10"/>
<path d="M1078.68 171.631C1080.61 171.631 1082.17 170.066 1082.17 168.137C1082.17 166.207 1080.61 164.643 1078.68 164.643C1076.76 164.643 1075.2 166.207 1075.2 168.137C1075.2 170.066 1076.76 171.631 1078.68 171.631Z" fill="black" stroke="black" stroke-miterlimit="10"/>
<path d="M1067.38 175.036C1068.99 175.036 1070.3 173.724 1070.3 172.104C1070.3 170.485 1068.99 169.173 1067.38 169.173C1065.76 169.173 1064.45 170.485 1064.45 172.104C1064.45 173.724 1065.76 175.036 1067.38 175.036Z" fill="black" stroke="black" stroke-miterlimit="10"/>
<path d="M1059.27 165.02C1060.88 165.02 1062.19 163.707 1062.19 162.088C1062.19 160.469 1060.88 159.157 1059.27 159.157C1057.65 159.157 1056.35 160.469 1056.35 162.088C1056.35 163.707 1057.65 165.02 1059.27 165.02Z" fill="black" stroke="black" stroke-miterlimit="10"/>
<path d="M1062.1 153.679C1064.02 153.679 1065.58 152.114 1065.58 150.185C1065.58 148.255 1064.02 146.691 1062.1 146.691C1060.17 146.691 1058.61 148.255 1058.61 150.185C1058.61 152.114 1060.17 153.679 1062.1 153.679Z" fill="black" stroke="black" stroke-miterlimit="10"/>
<path d="M1048.71 169.936C1050.32 169.936 1051.63 168.623 1051.63 167.004C1051.63 165.385 1050.32 164.072 1048.71 164.072C1047.09 164.072 1045.79 165.385 1045.79 167.004C1045.79 168.623 1047.09 169.936 1048.71 169.936Z" fill="black" stroke="black" stroke-miterlimit="10"/>
<path d="M1037.98 123.052C1037.22 127.341 1036.15 134.12 1035.45 138.474L1035.37 138.972C1036.38 139.494 1037.39 140.032 1038.42 140.506C1041.04 141.671 1043.7 142.675 1046.51 143.357L1046.58 143.213C1043.43 141.012 1040.05 139.261 1036.47 137.896L1036.9 138.651L1037.56 130.867C1037.72 128.932 1038.01 125.012 1038.14 123.076L1037.98 123.06V123.052Z" fill="black"/>
<path d="M1046.57 86.2008C1045.86 93.237 1045.19 100.273 1044.6 107.325L1044.58 107.558L1044.7 107.831C1047.6 113.904 1051.4 123.044 1054.52 128.9L1054.57 127.365C1052.15 131.96 1049.86 136.618 1048.1 141.51L1048.38 141.671C1051.9 137.486 1054.91 132.924 1057.8 128.289C1056.89 126.241 1055.9 124.217 1054.84 122.249C1053.04 119.02 1048.32 110.297 1046.51 106.94L1046.61 107.446C1046.69 103.912 1046.76 100.378 1046.79 96.8434C1046.83 93.3092 1046.89 89.7751 1046.9 86.2329L1046.58 86.2169L1046.57 86.2008Z" fill="black"/>
<path d="M1053.76 85.6145C1054.81 85.6145 1055.66 84.9168 1055.66 84.0563C1055.66 83.1957 1054.81 82.498 1053.76 82.498C1052.7 82.498 1051.85 83.1957 1051.85 84.0563C1051.85 84.9168 1052.7 85.6145 1053.76 85.6145Z" fill="black" stroke="black" stroke-miterlimit="10"/>
<path d="M1035.31 56.2088L1014.9 56.9157L992.104 54.1847C990.79 54.0241 989.636 55.0522 989.636 56.3775V79.2129L981.72 108.506L1023.58 159.157H1035.45" fill="#323232"/>
<path d="M1035.31 56.2088L1014.9 56.9157L992.104 54.1847C990.79 54.0241 989.636 55.0522 989.636 56.3775V79.2129L981.72 108.506L1023.58 159.157H1035.45" stroke="black" stroke-miterlimit="10"/>
<path d="M995.284 124.956L982.849 161.237L985.109 177.871H1035.26L1035.06 159.92L1023.57 159.157L995.284 124.956Z" fill="#323232" stroke="black" stroke-miterlimit="10"/>
<path d="M994.155 70.5221L1005.09 59.751L995.581 56.7229C994.443 56.3614 993.297 57.261 993.37 58.4578L994.155 70.5221Z" fill="black" stroke="black" stroke-miterlimit="10"/>
<path d="M1028 58.5703L1028.28 67.502L1019.04 76.5703V83.751L1016.03 82.6185L1015.65 73.3574L1025.64 66.5542L1028 58.5703Z" fill="black" stroke="black" stroke-miterlimit="10"/>
<path d="M1008.82 82.5703L1013.76 91.1245L1017.34 92.6346L1023.59 105.253L1022.44 86.2089L1008.82 82.5703Z" fill="#7D7D7D" stroke="#7D7D7D" stroke-miterlimit="10"/>
<path d="M1008.04 80.0241L997.552 82.996L990.573 100.386L1000.94 85.4538L1010.15 82.3615L1008.04 80.0241Z" fill="black" stroke="black" stroke-miterlimit="10"/>
<path d="M1014.9 88.2892L1023.38 84.8835L1008.87 80.3534L1014.9 88.2892Z" fill="#59B6FF" stroke="black" stroke-miterlimit="10"/>
<path d="M998.305 130.056L998.874 144.233L1013.41 177.189L1035.54 177.116L1035.33 159.96L1023.17 159.896L998.305 130.056Z" fill="#7D7D7D" stroke="#7D7D7D" stroke-miterlimit="10"/>
<path d="M1021.82 115.952L1016.78 120.225L992.648 109.647L987.256 114.112L1023.92 158.378L1035.33 158.402L1035.26 121.695L1021.82 115.952Z" fill="#7D7D7D" stroke="#7D7D7D" stroke-miterlimit="10"/>
<path d="M1010.56 73.9277C1012.12 73.9277 1013.38 72.6583 1013.38 71.0924C1013.38 69.5265 1012.12 68.257 1010.56 68.257C1008.99 68.257 1007.73 69.5265 1007.73 71.0924C1007.73 72.6583 1008.99 73.9277 1010.56 73.9277Z" fill="black" stroke="black" stroke-miterlimit="10"/>
<path d="M1011.97 65.992C1013.38 65.992 1014.52 64.8484 1014.52 63.4378C1014.52 62.0271 1013.38 60.8835 1011.97 60.8835C1010.57 60.8835 1009.43 62.0271 1009.43 63.4378C1009.43 64.8484 1010.57 65.992 1011.97 65.992Z" fill="black" stroke="black" stroke-miterlimit="10"/>
<path d="M998.778 79.0281C1000.08 79.0281 1001.13 77.9709 1001.13 76.6667C1001.13 75.3625 1000.08 74.3052 998.778 74.3052C997.477 74.3052 996.422 75.3625 996.422 76.6667C996.422 77.9709 997.477 79.0281 998.778 79.0281Z" fill="black" stroke="black" stroke-miterlimit="10"/>
<path d="M1024.7 66.739C1025.74 66.739 1026.58 65.8939 1026.58 64.8514C1026.58 63.809 1025.74 62.9639 1024.7 62.9639C1023.66 62.9639 1022.81 63.809 1022.81 64.8514C1022.81 65.8939 1023.66 66.739 1024.7 66.739Z" fill="black" stroke="black" stroke-miterlimit="10"/>
<path d="M995.004 91.502C996.203 91.502 997.175 90.5275 997.175 89.3253C997.175 88.1232 996.203 87.1486 995.004 87.1486C993.805 87.1486 992.833 88.1232 992.833 89.3253C992.833 90.5275 993.805 91.502 995.004 91.502Z" fill="black" stroke="black" stroke-miterlimit="10"/>
<path d="M1006.97 95.2771C1008.43 95.2771 1009.61 94.094 1009.61 92.6345C1009.61 91.1751 1008.43 89.992 1006.97 89.992C1005.52 89.992 1004.34 91.1751 1004.34 92.6345C1004.34 94.094 1005.52 95.2771 1006.97 95.2771Z" fill="black" stroke="black" stroke-miterlimit="10"/>
<path d="M1017.16 102.08C1018.41 102.08 1019.42 101.066 1019.42 99.8153C1019.42 98.5643 1018.41 97.5502 1017.16 97.5502C1015.91 97.5502 1014.9 98.5643 1014.9 99.8153C1014.9 101.066 1015.91 102.08 1017.16 102.08Z" fill="black" stroke="black" stroke-miterlimit="10"/>
<path d="M1009.43 106.241C1010.88 106.241 1012.06 105.058 1012.06 103.598C1012.06 102.139 1010.88 100.956 1009.43 100.956C1007.97 100.956 1006.79 102.139 1006.79 103.598C1006.79 105.058 1007.97 106.241 1009.43 106.241Z" fill="black" stroke="black" stroke-miterlimit="10"/>
<path d="M1014.51 112.482C1015.87 112.482 1016.97 111.382 1016.97 110.024C1016.97 108.667 1015.87 107.566 1014.51 107.566C1013.16 107.566 1012.06 108.667 1012.06 110.024C1012.06 111.382 1013.16 112.482 1014.51 112.482Z" fill="black" stroke="black" stroke-miterlimit="10"/>
<path d="M1004.52 114.554C1005.77 114.554 1006.78 113.54 1006.78 112.289C1006.78 111.038 1005.77 110.024 1004.52 110.024C1003.27 110.024 1002.26 111.038 1002.26 112.289C1002.26 113.54 1003.27 114.554 1004.52 114.554Z" fill="black" stroke="black" stroke-miterlimit="10"/>
<path d="M993.498 108.321C995.215 108.321 996.606 106.926 996.606 105.205C996.606 103.484 995.215 102.088 993.498 102.088C991.781 102.088 990.389 103.484 990.389 105.205C990.389 106.926 991.781 108.321 993.498 108.321Z" fill="black" stroke="black" stroke-miterlimit="10"/>
<path d="M999.531 99.4378C1000.31 99.4378 1000.94 98.8048 1000.94 98.0241C1000.94 97.2434 1000.31 96.6104 999.531 96.6104C998.752 96.6104 998.121 97.2434 998.121 98.0241C998.121 98.8048 998.752 99.4378 999.531 99.4378Z" fill="black" stroke="black" stroke-miterlimit="10"/>
<path d="M993.97 144.418C995.532 144.418 996.799 143.148 996.799 141.582C996.799 140.016 995.532 138.747 993.97 138.747C992.408 138.747 991.142 140.016 991.142 141.582C991.142 143.148 992.408 144.418 993.97 144.418Z" fill="black" stroke="black" stroke-miterlimit="10"/>
<path d="M994.155 157.269C995.818 157.269 997.167 155.917 997.167 154.249C997.167 152.581 995.818 151.229 994.155 151.229C992.491 151.229 991.142 152.581 991.142 154.249C991.142 155.917 992.491 157.269 994.155 157.269Z" fill="black" stroke="black" stroke-miterlimit="10"/>
<path d="M991.238 171.631C993.163 171.631 994.724 170.066 994.724 168.137C994.724 166.207 993.163 164.643 991.238 164.643C989.313 164.643 987.753 166.207 987.753 168.137C987.753 170.066 989.313 171.631 991.238 171.631Z" fill="black" stroke="black" stroke-miterlimit="10"/>
<path d="M1002.54 175.036C1004.16 175.036 1005.47 173.724 1005.47 172.104C1005.47 170.485 1004.16 169.173 1002.54 169.173C1000.93 169.173 999.619 170.485 999.619 172.104C999.619 173.724 1000.93 175.036 1002.54 175.036Z" fill="black" stroke="black" stroke-miterlimit="10"/>
<path d="M1010.65 165.02C1012.27 165.02 1013.58 163.707 1013.58 162.088C1013.58 160.469 1012.27 159.157 1010.65 159.157C1009.04 159.157 1007.73 160.469 1007.73 162.088C1007.73 163.707 1009.04 165.02 1010.65 165.02Z" fill="black" stroke="black" stroke-miterlimit="10"/>
<path d="M1007.82 153.679C1009.75 153.679 1011.31 152.114 1011.31 150.185C1011.31 148.255 1009.75 146.691 1007.82 146.691C1005.9 146.691 1004.34 148.255 1004.34 150.185C1004.34 152.114 1005.9 153.679 1007.82 153.679Z" fill="black" stroke="black" stroke-miterlimit="10"/>
<path d="M1021.21 169.936C1022.83 169.936 1024.14 168.623 1024.14 167.004C1024.14 165.385 1022.83 164.072 1021.21 164.072C1019.6 164.072 1018.29 165.385 1018.29 167.004C1018.29 168.623 1019.6 169.936 1021.21 169.936Z" fill="black" stroke="black" stroke-miterlimit="10"/>
<path d="M1031.94 123.052C1032.7 127.341 1033.77 134.12 1034.47 138.474L1034.55 138.972C1033.54 139.494 1032.53 140.032 1031.5 140.506C1028.88 141.671 1026.22 142.675 1023.41 143.357L1023.34 143.213C1026.49 141.012 1029.87 139.261 1033.45 137.896L1033.02 138.651L1032.36 130.867C1032.2 128.932 1031.92 125.012 1031.78 123.076L1031.94 123.06V123.052Z" fill="black"/>
<path d="M1023.35 86.2008C1024.06 93.237 1024.73 100.273 1025.32 107.325L1025.34 107.558L1025.22 107.831C1022.33 113.904 1018.52 123.044 1015.4 128.9L1015.35 127.365C1017.77 131.96 1020.06 136.618 1021.82 141.51L1021.54 141.671C1018.02 137.486 1015.01 132.924 1012.12 128.289C1013.03 126.241 1014.02 124.217 1015.08 122.249C1016.89 119.02 1021.6 110.297 1023.42 106.94L1023.31 107.446C1023.23 103.912 1023.16 100.378 1023.13 96.8434C1023.09 93.3092 1023.03 89.7751 1023.02 86.2329L1023.34 86.2169L1023.35 86.2008Z" fill="black"/>
<path d="M1016.16 85.6145C1017.22 85.6145 1018.07 84.9168 1018.07 84.0563C1018.07 83.1957 1017.22 82.498 1016.16 82.498C1015.11 82.498 1014.26 83.1957 1014.26 84.0563C1014.26 84.9168 1015.11 85.6145 1016.16 85.6145Z" fill="black" stroke="black" stroke-miterlimit="10"/>
<path d="M1022.06 113.614H1047.51L1048.45 116.257L1036.01 121.173H1033.94L1022.06 115.695V113.614Z" fill="black" stroke="black" stroke-miterlimit="10"/>
<rect x="1011" y="6" width="19" height="19" fill="#59B6FF"/>
<path d="M1013.58 17H1013.28L1013.41 16.172H1012.87L1012.74 17H1012.45L1012.58 16.172H1012.14L1012.18 15.908H1012.62L1012.7 15.376H1012.26L1012.3 15.112H1012.74L1012.86 14.332H1013.15L1013.03 15.112H1013.57L1013.69 14.332H1013.98L1013.86 15.112H1014.3L1014.26 15.376H1013.82L1013.74 15.908H1014.18L1014.14 16.172H1013.7L1013.58 17ZM1013.45 15.908L1013.53 15.376H1012.99L1012.91 15.908H1013.45ZM1016.78 14.552V14.92C1016.68 14.8133 1016.56 14.7307 1016.43 14.672C1016.28 14.6027 1016.13 14.568 1015.97 14.568C1015.67 14.568 1015.41 14.676 1015.21 14.892C1015 15.1053 1014.9 15.368 1014.9 15.68C1014.9 16.016 1015.01 16.2813 1015.23 16.476C1015.46 16.6707 1015.71 16.768 1015.98 16.768C1016.15 16.768 1016.31 16.7267 1016.47 16.644C1016.59 16.588 1016.69 16.5133 1016.78 16.42V16.788C1016.54 16.9613 1016.27 17.048 1015.98 17.048C1015.58 17.048 1015.25 16.916 1014.99 16.652C1014.73 16.388 1014.6 16.0627 1014.6 15.676C1014.6 15.2787 1014.73 14.948 1014.99 14.684C1015.26 14.42 1015.59 14.288 1015.99 14.288C1016.29 14.288 1016.55 14.376 1016.78 14.552ZM1018.54 14.332V14.612H1017.62V15.4H1018.51V15.68H1017.62V17H1017.33V14.332H1018.54ZM1021.1 14.552V14.92C1021 14.8133 1020.88 14.7307 1020.75 14.672C1020.6 14.6027 1020.45 14.568 1020.29 14.568C1019.99 14.568 1019.73 14.676 1019.53 14.892C1019.32 15.1053 1019.22 15.368 1019.22 15.68C1019.22 16.016 1019.33 16.2813 1019.55 16.476C1019.78 16.6707 1020.03 16.768 1020.3 16.768C1020.47 16.768 1020.63 16.7267 1020.79 16.644C1020.91 16.588 1021.01 16.5133 1021.1 16.42V16.788C1020.86 16.9613 1020.59 17.048 1020.3 17.048C1019.9 17.048 1019.57 16.916 1019.31 16.652C1019.05 16.388 1018.92 16.0627 1018.92 15.676C1018.92 15.2787 1019.05 14.948 1019.31 14.684C1019.58 14.42 1019.91 14.288 1020.31 14.288C1020.61 14.288 1020.87 14.376 1021.1 14.552ZM1023.05 14.184V16.224H1023.38V16.496H1023.05V17H1022.75V16.496H1021.38L1023.05 14.184ZM1021.91 16.224H1022.75V15.044L1021.91 16.224ZM1025.13 15.612C1025.4 15.732 1025.53 15.9493 1025.53 16.264C1025.53 16.4853 1025.46 16.672 1025.31 16.824C1025.17 16.9733 1024.97 17.048 1024.71 17.048C1024.46 17.048 1024.25 16.9733 1024.11 16.824C1023.97 16.672 1023.9 16.4853 1023.9 16.264C1023.9 15.9493 1024.03 15.732 1024.3 15.612C1024.09 15.4867 1023.98 15.292 1023.98 15.028C1023.98 14.8253 1024.04 14.652 1024.17 14.508C1024.3 14.3613 1024.48 14.288 1024.71 14.288C1024.94 14.288 1025.12 14.3613 1025.25 14.508C1025.38 14.652 1025.45 14.8253 1025.45 15.028C1025.45 15.292 1025.34 15.4867 1025.13 15.612ZM1024.39 15.36C1024.47 15.448 1024.58 15.492 1024.71 15.492C1024.84 15.492 1024.95 15.448 1025.04 15.36C1025.13 15.272 1025.17 15.1627 1025.17 15.032C1025.17 14.8907 1025.12 14.7773 1025.03 14.692C1024.95 14.604 1024.84 14.56 1024.71 14.56C1024.59 14.56 1024.48 14.604 1024.39 14.692C1024.3 14.7773 1024.26 14.8907 1024.26 15.032C1024.26 15.1627 1024.3 15.272 1024.39 15.36ZM1024.34 16.632C1024.43 16.728 1024.56 16.776 1024.71 16.776C1024.87 16.776 1024.99 16.728 1025.09 16.632C1025.19 16.5333 1025.23 16.408 1025.23 16.256C1025.23 16.1067 1025.18 15.9853 1025.09 15.892C1024.99 15.796 1024.87 15.748 1024.71 15.748C1024.56 15.748 1024.44 15.796 1024.34 15.892C1024.24 15.9853 1024.19 16.1067 1024.19 16.256C1024.19 16.408 1024.24 16.5333 1024.34 16.632ZM1027.62 14.332V14.604H1026.76L1026.59 15.18C1026.63 15.1693 1026.69 15.164 1026.76 15.164C1027.02 15.164 1027.23 15.252 1027.39 15.428C1027.55 15.604 1027.64 15.824 1027.64 16.088C1027.64 16.376 1027.54 16.608 1027.35 16.784C1027.16 16.96 1026.94 17.048 1026.66 17.048C1026.43 17.048 1026.24 16.9787 1026.07 16.84C1025.97 16.7573 1025.89 16.6667 1025.84 16.568L1026.07 16.4C1026.11 16.48 1026.17 16.552 1026.25 16.616C1026.38 16.7227 1026.53 16.776 1026.68 16.776C1026.87 16.776 1027.03 16.7093 1027.15 16.576C1027.28 16.4427 1027.34 16.2813 1027.34 16.092C1027.34 15.9 1027.28 15.7427 1027.15 15.62C1027.03 15.4973 1026.87 15.436 1026.68 15.436C1026.52 15.436 1026.34 15.4973 1026.17 15.62L1026.56 14.332H1027.62Z" fill="black"/>
<rect x="1033.43" y="6" width="19" height="19" fill="#323232"/>
<path d="M1036.58 17H1036.28L1036.41 16.172H1035.87L1035.74 17H1035.45L1035.58 16.172H1035.14L1035.18 15.908H1035.62L1035.7 15.376H1035.26L1035.3 15.112H1035.74L1035.86 14.332H1036.15L1036.03 15.112H1036.57L1036.69 14.332H1036.98L1036.86 15.112H1037.3L1037.26 15.376H1036.82L1036.74 15.908H1037.18L1037.14 16.172H1036.7L1036.58 17ZM1036.45 15.908L1036.53 15.376H1035.99L1035.91 15.908H1036.45ZM1038.04 14.992H1037.74C1037.75 14.8507 1037.79 14.72 1037.87 14.6C1038 14.392 1038.21 14.288 1038.49 14.288C1038.72 14.288 1038.91 14.3587 1039.04 14.5C1039.17 14.6413 1039.24 14.8107 1039.24 15.008C1039.24 15.288 1039.12 15.4853 1038.89 15.6C1038.93 15.6133 1038.96 15.632 1038.99 15.656C1039.03 15.6773 1039.07 15.712 1039.12 15.76C1039.17 15.808 1039.21 15.8747 1039.23 15.96C1039.26 16.0427 1039.28 16.1373 1039.28 16.244C1039.28 16.4867 1039.2 16.6813 1039.04 16.828C1038.89 16.9747 1038.69 17.048 1038.46 17.048C1038.3 17.048 1038.15 17.012 1038.02 16.94C1037.88 16.8653 1037.78 16.748 1037.71 16.588C1037.68 16.5027 1037.66 16.4093 1037.65 16.308H1037.95C1037.96 16.4173 1038 16.5067 1038.05 16.576C1038.14 16.7093 1038.27 16.776 1038.46 16.776C1038.61 16.776 1038.73 16.724 1038.83 16.62C1038.93 16.5133 1038.98 16.3853 1038.98 16.236C1038.98 16.0173 1038.89 15.868 1038.72 15.788C1038.63 15.7453 1038.53 15.7267 1038.41 15.732V15.468C1038.53 15.476 1038.63 15.4573 1038.72 15.412C1038.87 15.3347 1038.94 15.2027 1038.94 15.016C1038.94 14.8853 1038.91 14.7773 1038.83 14.692C1038.76 14.604 1038.64 14.56 1038.49 14.56C1038.34 14.56 1038.22 14.6107 1038.14 14.712C1038.08 14.792 1038.05 14.8853 1038.04 14.992ZM1041.4 17H1039.67L1040.64 15.876C1040.81 15.6813 1040.91 15.552 1040.96 15.488C1041.06 15.3467 1041.1 15.2107 1041.1 15.08C1041.1 14.928 1041.06 14.804 1040.96 14.708C1040.86 14.6093 1040.73 14.56 1040.57 14.56C1040.38 14.56 1040.23 14.6387 1040.13 14.796C1040.07 14.8813 1040.04 14.9867 1040.04 15.112H1039.74C1039.76 14.8853 1039.82 14.7013 1039.94 14.56C1040.1 14.3787 1040.32 14.288 1040.58 14.288C1040.81 14.288 1041.01 14.364 1041.16 14.516C1041.32 14.6653 1041.4 14.8547 1041.4 15.084C1041.4 15.2627 1041.33 15.4533 1041.19 15.656C1041.12 15.7547 1041 15.9027 1040.82 16.1L1040.27 16.728H1041.4V17ZM1042.23 14.992H1041.94C1041.95 14.8507 1041.99 14.72 1042.06 14.6C1042.2 14.392 1042.4 14.288 1042.68 14.288C1042.92 14.288 1043.1 14.3587 1043.23 14.5C1043.37 14.6413 1043.43 14.8107 1043.43 15.008C1043.43 15.288 1043.32 15.4853 1043.09 15.6C1043.12 15.6133 1043.16 15.632 1043.19 15.656C1043.22 15.6773 1043.27 15.712 1043.31 15.76C1043.36 15.808 1043.4 15.8747 1043.43 15.96C1043.46 16.0427 1043.47 16.1373 1043.47 16.244C1043.47 16.4867 1043.4 16.6813 1043.24 16.828C1043.08 16.9747 1042.89 17.048 1042.65 17.048C1042.5 17.048 1042.35 17.012 1042.21 16.94C1042.08 16.8653 1041.98 16.748 1041.91 16.588C1041.88 16.5027 1041.86 16.4093 1041.85 16.308H1042.15C1042.16 16.4173 1042.19 16.5067 1042.24 16.576C1042.33 16.7093 1042.47 16.776 1042.65 16.776C1042.8 16.776 1042.92 16.724 1043.03 16.62C1043.13 16.5133 1043.18 16.3853 1043.18 16.236C1043.18 16.0173 1043.09 15.868 1042.91 15.788C1042.83 15.7453 1042.72 15.7267 1042.61 15.732V15.468C1042.72 15.476 1042.83 15.4573 1042.91 15.412C1043.06 15.3347 1043.14 15.2027 1043.14 15.016C1043.14 14.8853 1043.1 14.7773 1043.03 14.692C1042.95 14.604 1042.84 14.56 1042.68 14.56C1042.53 14.56 1042.42 14.6107 1042.34 14.712C1042.28 14.792 1042.24 14.8853 1042.23 14.992ZM1045.59 17H1043.87L1044.84 15.876C1045.01 15.6813 1045.11 15.552 1045.15 15.488C1045.25 15.3467 1045.3 15.2107 1045.3 15.08C1045.3 14.928 1045.25 14.804 1045.15 14.708C1045.05 14.6093 1044.93 14.56 1044.77 14.56C1044.58 14.56 1044.43 14.6387 1044.32 14.796C1044.27 14.8813 1044.24 14.9867 1044.24 15.112H1043.94C1043.95 14.8853 1044.02 14.7013 1044.14 14.56C1044.3 14.3787 1044.51 14.288 1044.77 14.288C1045.01 14.288 1045.21 14.364 1045.36 14.516C1045.52 14.6653 1045.6 14.8547 1045.6 15.084C1045.6 15.2627 1045.53 15.4533 1045.38 15.656C1045.31 15.7547 1045.19 15.9027 1045.02 16.1L1044.46 16.728H1045.59V17ZM1046.43 14.992H1046.13C1046.14 14.8507 1046.18 14.72 1046.26 14.6C1046.39 14.392 1046.6 14.288 1046.88 14.288C1047.11 14.288 1047.3 14.3587 1047.43 14.5C1047.56 14.6413 1047.63 14.8107 1047.63 15.008C1047.63 15.288 1047.51 15.4853 1047.29 15.6C1047.32 15.6133 1047.35 15.632 1047.39 15.656C1047.42 15.6773 1047.46 15.712 1047.51 15.76C1047.56 15.808 1047.6 15.8747 1047.63 15.96C1047.65 16.0427 1047.67 16.1373 1047.67 16.244C1047.67 16.4867 1047.59 16.6813 1047.43 16.828C1047.28 16.9747 1047.08 17.048 1046.85 17.048C1046.69 17.048 1046.55 17.012 1046.41 16.94C1046.27 16.8653 1046.17 16.748 1046.11 16.588C1046.07 16.5027 1046.05 16.4093 1046.05 16.308H1046.34C1046.35 16.4173 1046.39 16.5067 1046.44 16.576C1046.53 16.7093 1046.67 16.776 1046.85 16.776C1047 16.776 1047.12 16.724 1047.22 16.62C1047.32 16.5133 1047.37 16.3853 1047.37 16.236C1047.37 16.0173 1047.29 15.868 1047.11 15.788C1047.02 15.7453 1046.92 15.7267 1046.81 15.732V15.468C1046.92 15.476 1047.02 15.4573 1047.11 15.412C1047.26 15.3347 1047.33 15.2027 1047.33 15.016C1047.33 14.8853 1047.3 14.7773 1047.22 14.692C1047.15 14.604 1047.03 14.56 1046.88 14.56C1046.73 14.56 1046.61 14.6107 1046.53 14.712C1046.47 14.792 1046.44 14.8853 1046.43 14.992ZM1049.79 17H1048.06L1049.04 15.876C1049.2 15.6813 1049.3 15.552 1049.35 15.488C1049.45 15.3467 1049.5 15.2107 1049.5 15.08C1049.5 14.928 1049.45 14.804 1049.35 14.708C1049.25 14.6093 1049.12 14.56 1048.96 14.56C1048.77 14.56 1048.62 14.6387 1048.52 14.796C1048.46 14.8813 1048.43 14.9867 1048.43 15.112H1048.14C1048.15 14.8853 1048.21 14.7013 1048.34 14.56C1048.5 14.3787 1048.71 14.288 1048.97 14.288C1049.2 14.288 1049.4 14.364 1049.56 14.516C1049.71 14.6653 1049.79 14.8547 1049.79 15.084C1049.79 15.2627 1049.72 15.4533 1049.58 15.656C1049.51 15.7547 1049.39 15.9027 1049.22 16.1L1048.66 16.728H1049.79V17Z" fill="white"/>
<rect x="1055.86" y="6" width="19" height="19" fill="black"/>
<path d="M1058.58 17H1058.28L1058.41 16.172H1057.87L1057.74 17H1057.45L1057.58 16.172H1057.14L1057.18 15.908H1057.62L1057.7 15.376H1057.26L1057.3 15.112H1057.74L1057.86 14.332H1058.15L1058.03 15.112H1058.57L1058.69 14.332H1058.98L1058.86 15.112H1059.3L1059.26 15.376H1058.82L1058.74 15.908H1059.18L1059.14 16.172H1058.7L1058.58 17ZM1058.45 15.908L1058.53 15.376H1057.99L1057.91 15.908H1058.45ZM1061.22 16.648C1061.03 16.9147 1060.81 17.048 1060.53 17.048C1060.26 17.048 1060.03 16.9147 1059.85 16.648C1059.67 16.3893 1059.58 16.0627 1059.58 15.668C1059.58 15.2733 1059.67 14.9467 1059.85 14.688C1060.03 14.4213 1060.26 14.288 1060.53 14.288C1060.81 14.288 1061.03 14.4213 1061.22 14.688C1061.4 14.9467 1061.49 15.2733 1061.49 15.668C1061.49 16.0627 1061.4 16.3893 1061.22 16.648ZM1060.99 14.856C1060.87 14.6587 1060.72 14.56 1060.53 14.56C1060.35 14.56 1060.2 14.6587 1060.07 14.856C1059.94 15.064 1059.88 15.3347 1059.88 15.668C1059.88 16.0013 1059.94 16.272 1060.07 16.48C1060.2 16.6773 1060.35 16.776 1060.53 16.776C1060.72 16.776 1060.87 16.6773 1060.99 16.48C1061.13 16.272 1061.19 16.0013 1061.19 15.668C1061.19 15.3347 1061.13 15.064 1060.99 14.856ZM1063.49 16.648C1063.31 16.9147 1063.08 17.048 1062.81 17.048C1062.54 17.048 1062.31 16.9147 1062.12 16.648C1061.95 16.3893 1061.86 16.0627 1061.86 15.668C1061.86 15.2733 1061.95 14.9467 1062.12 14.688C1062.31 14.4213 1062.54 14.288 1062.81 14.288C1063.08 14.288 1063.31 14.4213 1063.49 14.688C1063.67 14.9467 1063.76 15.2733 1063.76 15.668C1063.76 16.0627 1063.67 16.3893 1063.49 16.648ZM1063.27 14.856C1063.15 14.6587 1062.99 14.56 1062.81 14.56C1062.62 14.56 1062.47 14.6587 1062.35 14.856C1062.22 15.064 1062.15 15.3347 1062.15 15.668C1062.15 16.0013 1062.22 16.272 1062.35 16.48C1062.47 16.6773 1062.62 16.776 1062.81 16.776C1062.99 16.776 1063.15 16.6773 1063.27 16.48C1063.4 16.272 1063.46 16.0013 1063.46 15.668C1063.46 15.3347 1063.4 15.064 1063.27 14.856ZM1065.77 16.648C1065.58 16.9147 1065.35 17.048 1065.08 17.048C1064.81 17.048 1064.58 16.9147 1064.4 16.648C1064.22 16.3893 1064.13 16.0627 1064.13 15.668C1064.13 15.2733 1064.22 14.9467 1064.4 14.688C1064.58 14.4213 1064.81 14.288 1065.08 14.288C1065.35 14.288 1065.58 14.4213 1065.77 14.688C1065.94 14.9467 1066.03 15.2733 1066.03 15.668C1066.03 16.0627 1065.94 16.3893 1065.77 16.648ZM1065.54 14.856C1065.42 14.6587 1065.27 14.56 1065.08 14.56C1064.9 14.56 1064.74 14.6587 1064.62 14.856C1064.49 15.064 1064.43 15.3347 1064.43 15.668C1064.43 16.0013 1064.49 16.272 1064.62 16.48C1064.74 16.6773 1064.9 16.776 1065.08 16.776C1065.27 16.776 1065.42 16.6773 1065.54 16.48C1065.67 16.272 1065.74 16.0013 1065.74 15.668C1065.74 15.3347 1065.67 15.064 1065.54 14.856ZM1068.04 16.648C1067.85 16.9147 1067.63 17.048 1067.35 17.048C1067.08 17.048 1066.85 16.9147 1066.67 16.648C1066.49 16.3893 1066.4 16.0627 1066.4 15.668C1066.4 15.2733 1066.49 14.9467 1066.67 14.688C1066.85 14.4213 1067.08 14.288 1067.35 14.288C1067.63 14.288 1067.85 14.4213 1068.04 14.688C1068.22 14.9467 1068.31 15.2733 1068.31 15.668C1068.31 16.0627 1068.22 16.3893 1068.04 16.648ZM1067.81 14.856C1067.69 14.6587 1067.54 14.56 1067.35 14.56C1067.17 14.56 1067.02 14.6587 1066.89 14.856C1066.76 15.064 1066.7 15.3347 1066.7 15.668C1066.7 16.0013 1066.76 16.272 1066.89 16.48C1067.02 16.6773 1067.17 16.776 1067.35 16.776C1067.54 16.776 1067.69 16.6773 1067.81 16.48C1067.95 16.272 1068.01 16.0013 1068.01 15.668C1068.01 15.3347 1067.95 15.064 1067.81 14.856ZM1070.31 16.648C1070.13 16.9147 1069.9 17.048 1069.63 17.048C1069.36 17.048 1069.13 16.9147 1068.94 16.648C1068.77 16.3893 1068.68 16.0627 1068.68 15.668C1068.68 15.2733 1068.77 14.9467 1068.94 14.688C1069.13 14.4213 1069.36 14.288 1069.63 14.288C1069.9 14.288 1070.13 14.4213 1070.31 14.688C1070.49 14.9467 1070.58 15.2733 1070.58 15.668C1070.58 16.0627 1070.49 16.3893 1070.31 16.648ZM1070.09 14.856C1069.97 14.6587 1069.81 14.56 1069.63 14.56C1069.44 14.56 1069.29 14.6587 1069.17 14.856C1069.04 15.064 1068.97 15.3347 1068.97 15.668C1068.97 16.0013 1069.04 16.272 1069.17 16.48C1069.29 16.6773 1069.44 16.776 1069.63 16.776C1069.81 16.776 1069.97 16.6773 1070.09 16.48C1070.22 16.272 1070.28 16.0013 1070.28 15.668C1070.28 15.3347 1070.22 15.064 1070.09 14.856ZM1072.59 16.648C1072.4 16.9147 1072.17 17.048 1071.9 17.048C1071.63 17.048 1071.4 16.9147 1071.22 16.648C1071.04 16.3893 1070.95 16.0627 1070.95 15.668C1070.95 15.2733 1071.04 14.9467 1071.22 14.688C1071.4 14.4213 1071.63 14.288 1071.9 14.288C1072.17 14.288 1072.4 14.4213 1072.59 14.688C1072.76 14.9467 1072.85 15.2733 1072.85 15.668C1072.85 16.0627 1072.76 16.3893 1072.59 16.648ZM1072.36 14.856C1072.24 14.6587 1072.09 14.56 1071.9 14.56C1071.72 14.56 1071.56 14.6587 1071.44 14.856C1071.31 15.064 1071.25 15.3347 1071.25 15.668C1071.25 16.0013 1071.31 16.272 1071.44 16.48C1071.56 16.6773 1071.72 16.776 1071.9 16.776C1072.09 16.776 1072.24 16.6773 1072.36 16.48C1072.49 16.272 1072.56 16.0013 1072.56 15.668C1072.56 15.3347 1072.49 15.064 1072.36 14.856Z" fill="white"/>
<rect x="1078.29" y="6" width="19" height="19" fill="#7D7D7D"/>
<path d="M1080.58 17H1080.28L1080.41 16.172H1079.87L1079.74 17H1079.45L1079.58 16.172H1079.14L1079.18 15.908H1079.62L1079.7 15.376H1079.26L1079.3 15.112H1079.74L1079.86 14.332H1080.15L1080.03 15.112H1080.57L1080.69 14.332H1080.98L1080.86 15.112H1081.3L1081.26 15.376H1080.82L1080.74 15.908H1081.18L1081.14 16.172H1080.7L1080.58 17ZM1080.45 15.908L1080.53 15.376H1079.99L1079.91 15.908H1080.45ZM1081.61 16.908L1083.12 14.604H1081.66V14.332H1083.62L1081.84 17.064L1081.61 16.908ZM1084.02 17V14.332H1084.56C1084.97 14.332 1085.3 14.436 1085.54 14.644C1085.85 14.8973 1086 15.2387 1086 15.668C1086 16.084 1085.84 16.4253 1085.53 16.692C1085.4 16.8013 1085.27 16.88 1085.12 16.928C1084.97 16.976 1084.79 17 1084.56 17H1084.02ZM1084.31 14.612V16.72H1084.57C1084.89 16.72 1085.14 16.64 1085.34 16.48C1085.58 16.2773 1085.7 16.0067 1085.7 15.668C1085.7 15.348 1085.59 15.092 1085.39 14.9C1085.18 14.708 1084.91 14.612 1084.57 14.612H1084.31ZM1086.41 16.908L1087.92 14.604H1086.46V14.332H1088.42L1086.64 17.064L1086.41 16.908ZM1088.82 17V14.332H1089.36C1089.77 14.332 1090.1 14.436 1090.34 14.644C1090.65 14.8973 1090.8 15.2387 1090.8 15.668C1090.8 16.084 1090.64 16.4253 1090.33 16.692C1090.2 16.8013 1090.07 16.88 1089.92 16.928C1089.77 16.976 1089.59 17 1089.36 17H1088.82ZM1089.11 14.612V16.72H1089.37C1089.69 16.72 1089.94 16.64 1090.14 16.48C1090.38 16.2773 1090.5 16.0067 1090.5 15.668C1090.5 15.348 1090.39 15.092 1090.19 14.9C1089.98 14.708 1089.71 14.612 1089.37 14.612H1089.11ZM1091.21 16.908L1092.72 14.604H1091.26V14.332H1093.22L1091.44 17.064L1091.21 16.908ZM1093.62 17V14.332H1094.16C1094.57 14.332 1094.9 14.436 1095.15 14.644C1095.45 14.8973 1095.6 15.2387 1095.6 15.668C1095.6 16.084 1095.45 16.4253 1095.13 16.692C1095.01 16.8013 1094.87 16.88 1094.72 16.928C1094.57 16.976 1094.39 17 1094.16 17H1093.62ZM1093.91 14.612V16.72H1094.17C1094.49 16.72 1094.75 16.64 1094.94 16.48C1095.18 16.2773 1095.3 16.0067 1095.3 15.668C1095.3 15.348 1095.19 15.092 1094.99 14.9C1094.78 14.708 1094.51 14.612 1094.17 14.612H1093.91Z" fill="black"/>
</g>
<defs>
<clipPath id="clip0_4_502">
<rect width="1124" height="169" fill="white"/>
</clipPath>
</defs>
</svg>
