<svg width="600" height="600" viewBox="0 0 600 600" fill="none" xmlns="http://www.w3.org/2000/svg">
<rect width="600" height="600" fill="white"/>
<path d="M299.616 170.191L348.566 172.059L421.799 109.883L459.908 99.3964L462.153 173.566L415.829 314.413L414.325 362.366L396.012 382.978L402.003 436.918L376.597 496.483L300.379 497.226" fill="#705941"/>
<path d="M299.616 170.191L348.566 172.059L421.799 109.883L459.908 99.3964L462.153 173.566L415.829 314.413L414.325 362.366L396.012 382.978L402.003 436.918L376.597 496.483L300.379 497.226" stroke="#070509" stroke-miterlimit="10"/>
<path d="M425.017 217.487L375.306 176.283L424.636 124.594L446.295 115.593L449.661 165.797L425.017 217.487Z" fill="#070509" stroke="#070509" stroke-miterlimit="10"/>
<path d="M414.643 362.048L360.74 414.544L321.889 435.878L315.919 448.997L300.209 447.872" stroke="#070509" stroke-miterlimit="10"/>
<path d="M404.184 317.236L385.024 344.492L343.188 369.966L358.876 397.668L345.051 420.53L302.453 404.8L300.675 381.046" stroke="#070509" stroke-miterlimit="10"/>
<path d="M336.371 417.622L315.919 448.997" stroke="#070509" stroke-miterlimit="10"/>
<path d="M326.738 311.526C323.752 316.832 322.715 325.472 321.169 331.352C321.826 335.322 323.371 344.259 323.985 348.143C324.62 349.927 325.234 351.71 325.997 353.493C326.124 351.582 326.124 349.672 326.124 347.783C325.446 344.11 323.964 335.025 323.308 331.204V331.607L325.552 321.672C326.441 318.34 326.928 314.986 326.759 311.504L326.738 311.526Z" fill="#070509"/>
<path d="M336.837 297.664L356.632 275.544L383.542 265.058L371.58 293.164L336.837 297.664Z" fill="#CFC485" stroke="#070509" stroke-miterlimit="10"/>
<path d="M361.502 284.927C364.086 284.927 366.181 282.827 366.181 280.236C366.181 277.645 364.086 275.544 361.502 275.544C358.918 275.544 356.823 277.645 356.823 280.236C356.823 282.827 358.918 284.927 361.502 284.927Z" fill="#070509" stroke="#070509" stroke-miterlimit="10"/>
<path d="M301.056 411.508L303.046 423.502L313.886 447.85L300.802 447.341L301.056 411.508Z" fill="#231F20" stroke="#070509" stroke-miterlimit="10"/>
<path d="M301.797 170.191L252.869 172.059L179.636 109.883L141.526 99.3964L139.282 173.566L185.606 314.413L187.109 362.366L205.402 382.978L199.431 436.918L224.837 496.483L301.056 497.226" fill="#705941"/>
<path d="M301.797 170.191L252.869 172.059L179.636 109.883L141.526 99.3964L139.282 173.566L185.606 314.413L187.109 362.366L205.402 382.978L199.431 436.918L224.837 496.483L301.056 497.226" stroke="#070509" stroke-miterlimit="10"/>
<path d="M176.418 217.487L226.108 176.283L176.799 124.594L155.119 115.593L151.773 165.797L176.418 217.487Z" fill="#070509" stroke="#070509" stroke-miterlimit="10"/>
<path d="M186.792 362.048L240.695 414.544L279.545 435.878L285.516 448.997L301.204 447.872" stroke="#070509" stroke-miterlimit="10"/>
<path d="M197.251 317.236L216.411 344.492L258.247 369.966L242.558 397.668L256.384 420.53L298.981 404.8L300.739 381.046" stroke="#070509" stroke-miterlimit="10"/>
<path d="M265.064 417.622L285.516 448.997" stroke="#070509" stroke-miterlimit="10"/>
<path d="M274.697 311.526C277.682 316.832 278.72 325.472 280.265 331.352C279.609 335.322 278.063 344.259 277.449 348.143C276.814 349.927 276.2 351.71 275.438 353.493C275.311 351.582 275.311 349.672 275.311 347.783C275.989 344.11 277.471 335.025 278.127 331.204V331.607L275.883 321.672C274.994 318.34 274.507 314.986 274.676 311.504L274.697 311.526Z" fill="#070509"/>
<path d="M264.598 297.664L244.803 275.544L217.893 265.058L229.855 293.164L264.598 297.664Z" fill="#CFC485" stroke="#070509" stroke-miterlimit="10"/>
<path d="M239.933 284.927C242.517 284.927 244.612 282.827 244.612 280.236C244.612 277.645 242.517 275.544 239.933 275.544C237.349 275.544 235.254 277.645 235.254 280.236C235.254 282.827 237.349 284.927 239.933 284.927Z" fill="#070509" stroke="#070509" stroke-miterlimit="10"/>
<path d="M300.379 411.508L298.388 423.502L287.548 447.85L300.633 447.341L300.379 411.508Z" fill="#231F20" stroke="#070509" stroke-miterlimit="10"/>
<path d="M207.159 383.912L206.587 436.727L256.659 484.935L252.17 494.679L226.15 494.297L200.998 437.045L207.159 383.912Z" fill="#ECDCC2" stroke="#ECDCC2" stroke-miterlimit="10"/>
<path d="M147.941 103.451L154.293 113.81L177.455 123.808L228.013 177.26L217.237 186.43L230.194 200.908L257.167 199.719L277.09 241.941L273.596 218.718L259.644 185.984L276.581 195.473L295.763 219.949L295.276 271.66L276.518 311.61L281.07 330.843L277.386 354.788L300.654 354.979L301.691 172.059L250.837 173.163L178.704 111.751L147.941 103.451Z" fill="#ECDCC2" stroke="#ECDCC2" stroke-miterlimit="10"/>
<path d="M293.265 372.789L260.893 346.318L216.051 342.837L260.406 369.308L244.697 398.029L257.315 417.898L296.758 403.272L293.265 372.789Z" fill="#ECDCC2" stroke="#ECDCC2" stroke-miterlimit="10"/>
<path d="M383.944 267.648L372.617 313.733L348.566 325.854L347.571 350.818L351.932 347.57L352.8 337.827L383.817 315.983L381.191 310.358L397.134 254.911L425.25 240.71L399.124 289.13L406.111 300.869L383.415 342.985L331.882 367.312L323.922 286.88L361.777 250.666L381.7 241.941L431.771 235.19L386.421 261.407L381.7 264.4L355.171 274.016L332.623 299.872L372.977 295.01L382.822 270.153L383.944 267.648Z" fill="#ECDCC2" stroke="#ECDCC2" stroke-miterlimit="10"/>
<path d="M381.7 241.941L390.422 191.737L425.779 219.949L451.44 166.752L448.306 114.447L457.939 103.663L460.099 173.29L435.751 233.45L381.7 241.941Z" fill="#ECDCC2" stroke="#ECDCC2" stroke-miterlimit="10"/>
<path d="M302.432 407.135L302.559 411.699L304.867 422.547L308.085 429.361L315.262 446.025L333.745 418.429L302.432 407.135Z" fill="#ECDCC2" stroke="#ECDCC2" stroke-miterlimit="10"/>
<path d="M312.955 256.164L313.696 234.936L322.418 223.961L324.663 186.621L328.897 225.447L319.92 238.927L312.955 256.164Z" fill="#070509"/>
<path d="M312.955 256.164C313.23 249.243 312.32 242.026 312.637 234.893C312.658 234.532 312.637 234.554 312.87 234.278L321.593 223.282L321.36 223.876L323.604 186.536L325.721 186.494L329.956 225.32L329.998 225.702C327.309 229.714 323.477 235.53 320.831 239.521C318.777 244.149 315.135 250.878 312.976 256.164H312.955ZM312.955 256.164C315.368 250.22 316.935 244.17 319.031 238.332C321.572 234.511 325.425 228.737 328.008 224.853L327.838 225.553L323.604 186.727L325.721 186.685L323.477 224.025V224.364L323.244 224.619L314.521 235.615L314.754 234.999C314.5 242.005 313.124 248.946 312.955 256.185V256.164Z" fill="#070509"/>
<path d="M348.206 172.887L352.8 218.463L342.595 225.192L328.643 252.173L340.605 221.456L348.079 214.706L348.206 172.887Z" fill="#070509" stroke="#070509" stroke-miterlimit="10"/>
<path d="M375.094 176.623L370.733 233.45L380.705 216.213L377.719 201.481L390.422 187.746" fill="#070509"/>
<path d="M375.094 176.623L370.733 233.45L380.705 216.213L377.719 201.481L390.422 187.746" stroke="#070509" stroke-miterlimit="10"/>
<path d="M274.104 291.38L278.572 278.155L251.683 252.916L231.994 244.425L270.611 282.401L268.367 289.13L274.104 291.38Z" fill="#070509" stroke="#070509" stroke-miterlimit="10"/>
<path d="M205.105 225.702L193.143 266.417L217.809 265.525L205.105 225.702Z" fill="#070509" stroke="#070509" stroke-miterlimit="10"/>
<path d="M218.063 188.744C220.243 190.124 222.445 191.78 224.435 193.393C225.134 193.902 225.769 194.433 226.087 195.261L231.443 203.497L228.585 202.054L253.737 200.547L255.664 200.441L256.659 202.118C257.781 203.964 263.053 213.092 264.175 214.727C264.895 217.784 265.466 220.798 265.869 223.961C263.307 222.093 260.914 220.14 258.607 218.038C257.739 216.34 252.255 207.212 251.175 205.365L254.097 206.915L228.945 208.422L227.103 208.528L226.087 206.979C225.748 206.448 220.18 197.936 220.032 197.723C219.248 194.815 218.486 191.758 218.041 188.744H218.063Z" fill="#070509"/>
<path d="M213.066 341.839L207.35 384.04L206.1 355.807L191.64 308.108L213.066 341.839Z" fill="#231F20" stroke="#070509" stroke-miterlimit="10"/>
<path d="M262.142 300.997L268.113 333.348L260.893 344.322L247.449 343.197L259.39 328.593L262.142 300.997Z" fill="#231F20" stroke="#070509" stroke-miterlimit="10"/>
<path d="M343.59 244.191L340.605 260.919L311.219 284.63L317.443 306.367L322.418 292.888L322.8 285.394L348.672 260.388L343.59 244.191Z" fill="#231F20" stroke="#070509" stroke-miterlimit="10"/>
<path d="M431.517 267.648L404.057 285.479L436.556 236.04L439.732 241.941L431.517 267.648Z" fill="#231F20" stroke="#070509" stroke-miterlimit="10"/>
<path d="M401.368 338.081L401.876 361.814L358.284 397.774L355.849 391.491L364.762 376.037L395.398 354.321L401.368 338.081Z" fill="#231F20" stroke="#070509" stroke-miterlimit="10"/>
<path d="M383.69 400.385L387.797 424.372L366.879 465.958V475.68L394.53 425.115L383.69 400.385Z" fill="#231F20" stroke="#070509" stroke-miterlimit="10"/>
<path d="M357.543 417.24L363.894 413.122L364.635 440.484L354.557 449.846L351.551 496.292L349.328 446.088L359.025 438.234L357.543 417.24Z" fill="#231F20" stroke="#070509" stroke-miterlimit="10"/>
<path d="M344.289 494.445L320.555 443.838L349.878 491.41L344.289 494.445Z" fill="#070509"/>
<path d="M314.204 497.417L315.326 470.819L308.212 449.846" fill="#231F20"/>
<path d="M314.204 497.418C313.844 495.189 313.505 492.939 313.399 490.731L313.696 484.087L314.246 470.798L314.31 471.18L310.753 460.694C309.398 457.212 308.614 453.604 308.212 449.867C309.165 451.481 310.012 453.158 310.901 454.792C312.298 458.189 315.008 466.892 316.321 470.501C316.385 470.628 316.385 470.756 316.385 470.883L315.834 484.171L315.58 490.816C315.305 493.023 314.754 495.231 314.225 497.418H314.204Z" fill="#070509"/>
<path d="M297.753 451.714L295.149 477.187L282.806 478.312L282.446 497.035L302.623 496.674L297.753 451.714Z" fill="#231F20"/>
<path d="M297.753 451.714C296.864 460.396 297.288 468.781 296.187 477.293L296.102 478.164L295.234 478.248L282.912 479.374L283.865 478.333L283.484 497.056L282.404 495.974L302.581 495.592L301.543 496.759C299.701 481.666 299.087 466.934 297.732 451.693L297.753 451.714ZM297.753 451.714C299.849 466.807 302.348 482.452 303.787 497.714L302.623 497.736L282.446 498.118H281.345L281.366 497.035L281.747 478.312V477.357L282.7 477.272L295.022 476.147L294.069 477.102C294.302 474.894 294.937 469.184 295.213 467.04C296.165 461.924 297.245 456.617 297.732 451.756L297.753 451.714Z" fill="#070509"/>
<path d="M276.095 497.035L276.454 460.714L227.886 421.74L225.282 398.899L223.779 430.741L270.484 464.45L265.636 497.799" fill="#231F20"/>
<path d="M276.095 497.035L276.454 460.714L227.886 421.74L225.282 398.899L223.779 430.741L270.484 464.45L265.636 497.799" stroke="#070509" stroke-miterlimit="10"/>
<path d="M251.239 371.26L230.512 372.301L224.901 401.51L232.756 377.544L251.239 371.26Z" fill="#231F20" stroke="#070509" stroke-miterlimit="10"/>
<path d="M384.558 265.291L394.403 258.159L381.446 315.729L352.313 335.577L349.688 348.695L350.429 325.854L374.353 314.604L384.558 265.291Z" fill="#231F20" stroke="#070509" stroke-miterlimit="10"/>
<path d="M326.653 357.059L275.057 356.847L300.463 375.952L326.653 357.059Z" fill="#070509" stroke="#070509" stroke-miterlimit="10"/>
</svg>
